<?xml version="1.0" encoding="UTF-8"?><svg xmlns="http://www.w3.org/2000/svg" xmlns:xlink="http://www.w3.org/1999/xlink" viewBox="0 0 285.45 396.3"><defs><style>.cls-1{fill:#fefefe;}.cls-1,.cls-2,.cls-3,.cls-4,.cls-5,.cls-6,.cls-7,.cls-8,.cls-9,.cls-10,.cls-11,.cls-12,.cls-13,.cls-14,.cls-15,.cls-16,.cls-17,.cls-18,.cls-19,.cls-20,.cls-21,.cls-22,.cls-23,.cls-24,.cls-25,.cls-26,.cls-27,.cls-28,.cls-29,.cls-30,.cls-31,.cls-32,.cls-33,.cls-34{stroke-width:0px;}.cls-2{fill:url(#linear-gradient-12);}.cls-3{fill:url(#linear-gradient);mix-blend-mode:multiply;}.cls-3,.cls-35,.cls-12{opacity:.5;}.cls-4{fill:#f89f60;}.cls-5{fill:url(#linear-gradient-6);}.cls-36{isolation:isolate;}.cls-6{fill:#f6f6f7;}.cls-7{fill:#3a6daa;}.cls-8{fill:url(#linear-gradient-11);}.cls-9{fill:#d3e9f8;}.cls-10{fill:url(#linear-gradient-5);}.cls-11{fill:none;}.cls-12,.cls-25{fill:#203e79;}.cls-37{clip-path:url(#clippath-1);}.cls-13{fill:url(#linear-gradient-13);}.cls-14{fill:#fff;}.cls-15{fill:#5692cd;}.cls-38{opacity:.3;}.cls-16{fill:url(#linear-gradient-14);}.cls-17{fill:url(#linear-gradient-2);}.cls-18{fill:url(#linear-gradient-7);}.cls-19{fill:url(#linear-gradient-3);}.cls-39{clip-path:url(#clippath);}.cls-20{fill:#115dab;}.cls-21{fill:url(#linear-gradient-9);}.cls-22{fill:url(#linear-gradient-8);}.cls-23{fill:#e6a223;}.cls-24{fill:#870830;}.cls-26{fill:#efbbca;}.cls-27{fill:url(#linear-gradient-10);}.cls-28{fill:#fcfcfd;}.cls-29{fill:url(#linear-gradient-4);}.cls-30{fill:#d37a43;}.cls-31{fill:#cbe5f6;}.cls-32{fill:#7e56a2;}.cls-33{fill:#e13262;}.cls-34{fill:#7ab0df;}</style><linearGradient id="linear-gradient" x1="151.5" y1="328.33" x2="75.86" y2="197.33" gradientUnits="userSpaceOnUse"><stop offset="0" stop-color="#fff"/><stop offset=".34" stop-color="#60a1d7"/></linearGradient><linearGradient id="linear-gradient-2" x1="157.25" y1="280.01" x2="160.14" y2="280.01" gradientUnits="userSpaceOnUse"><stop offset="0" stop-color="#60a1d7"/><stop offset="1" stop-color="#a4c6e8"/></linearGradient><linearGradient id="linear-gradient-3" x1="123.22" y1="260.86" x2="126.11" y2="260.86" xlink:href="#linear-gradient-2"/><linearGradient id="linear-gradient-4" x1="105.53" y1="250.36" x2="108.42" y2="250.36" xlink:href="#linear-gradient-2"/><linearGradient id="linear-gradient-5" x1="96.5" y1="258.12" x2="101.49" y2="258.12" xlink:href="#linear-gradient-2"/><linearGradient id="linear-gradient-6" x1="58.48" y1="240.5" x2="80.86" y2="240.5" gradientUnits="userSpaceOnUse"><stop offset="0" stop-color="#1b75bb"/><stop offset="1" stop-color="#a4c6e8"/></linearGradient><linearGradient id="linear-gradient-7" x1="72.64" y1="246.45" x2="95.02" y2="246.45" xlink:href="#linear-gradient-6"/><linearGradient id="linear-gradient-8" x1="79.73" y1="252.97" x2="108.42" y2="252.97" xlink:href="#linear-gradient-6"/><linearGradient id="linear-gradient-9" x1="96.75" y1="263.84" x2="126.14" y2="263.84" xlink:href="#linear-gradient-6"/><linearGradient id="linear-gradient-10" x1="112.29" y1="275.12" x2="141.25" y2="275.12" xlink:href="#linear-gradient-6"/><linearGradient id="linear-gradient-11" x1="130.74" y1="283.47" x2="160.14" y2="283.47" xlink:href="#linear-gradient-6"/><linearGradient id="linear-gradient-12" x1="151.72" y1="290.24" x2="180.68" y2="290.24" xlink:href="#linear-gradient-6"/><linearGradient id="linear-gradient-13" x1="28.25" y1="221.23" x2="59.32" y2="221.23" xlink:href="#linear-gradient-6"/><linearGradient id="linear-gradient-14" x1="52.55" y1="230.38" x2="62.59" y2="230.38" xlink:href="#linear-gradient-6"/><clipPath id="clippath"><polygon class="cls-11" points="155.02 180.54 188.23 198.93 232.11 173.68 237.43 184.6 168.17 224.46 142.83 211.52 155.02 180.54"/></clipPath><clipPath id="clippath-1"><polygon class="cls-11" points="151.75 178.74 188.23 198.93 238.79 169.83 239.58 126.08 205.92 120.6 153.23 157.34 151.75 178.74"/></clipPath></defs><g class="cls-36"><g id="Layer_1"><rect class="cls-20" x="-.04" y="0" width="241.04" height="396.66"/><polygon class="cls-3" points="178.85 312.54 194.43 298.24 48.24 213.69 30.64 223.44 178.85 312.54"/><polygon class="cls-17" points="160.14 277.84 157.25 279.77 157.25 282.18 160.14 282.18 160.14 277.84"/><polygon class="cls-19" points="126.11 257.99 123.22 261.32 123.22 263.74 126.11 263.26 126.11 257.99"/><polygon class="cls-29" points="108.42 247.48 105.53 250.82 105.53 253.23 108.42 253.23 108.42 247.48"/><polygon class="cls-10" points="101.49 256.91 96.5 257.22 98.6 259.32 101.49 259.32 101.49 256.91"/><path class="cls-5" d="m58.48,244.67v-5.96l22.38-8.9v5.96l-13.35,7.56,5.62-.02v5.96l-3.35,1.93-11.3-6.53Z"/><path class="cls-18" d="m72.64,252.88v-5.96l22.38-8.9v5.96l-18.9,10.91-3.48-2.01Z"/><path class="cls-22" d="m79.73,256.94v-5.96l18.9-8.29,5.14,2.96c4.37,2.53,6.61,7.93,2.42,10.35-1.7.98-3.51,1.46-5.55,1.35,1.36,1.75,1.18,3.15-1.22,4.53-4.37,2.53-9.18,1.12-12.35-.71l-7.34-4.24Z"/><path class="cls-21" d="m107.7,273.09v-5.96l3.08-.37-3.53-2.04-7.02,4.05-3.48-2.01v-5.96l18.9-8.29,6.96,4.02c3.67,2.12,5.2,7.9,1.09,10.27-2.92,1.68-5.84,1.71-8.74,1.31l-3.65,7.06-3.61-2.09Z"/><polygon class="cls-27" points="141.25 264.74 141.25 270.7 129.11 285.51 125.5 283.43 125.5 278.16 122.1 276.2 115.9 277.89 112.29 275.81 112.29 269.84 137.96 265.46 141.25 264.74"/><path class="cls-8" d="m141.69,292.71v-5.96l3.08-.37-3.53-2.04-7.02,4.05-3.48-2.01v-5.96l18.9-8.29,6.96,4.02c3.67,2.12,5.2,7.9,1.09,10.27-2.92,1.68-5.84,1.71-8.74,1.31l-3.65,7.06-3.61-2.09Z"/><path class="cls-2" d="m163.57,295.68l-8.37,4.83-3.48-2.01v-5.96l9.36-3.97,6.66-8.6v5.96l-2.83,3.63,15.77-2.12v5.96l-17.11,2.28Z"/><polygon class="cls-13" points="59.32 214.93 59.32 220.88 55.98 222.82 50.02 219.38 50.02 224.02 46.67 225.96 44.04 224.43 44.04 230.02 40.69 231.96 28.25 224.77 28.25 218.81 47.15 210.51 59.32 214.93"/><path class="cls-6" d="m28.25,218.81l18.9-10.91,12.17,7.03-3.35,1.93-8.61-4.97-4.02,2.32,6.68,3.86-3.35,1.93-6.68-3.86-4.83,2.79,8.89,5.13-3.35,1.93-12.44-7.18Z"/><path class="cls-6" d="m58.48,238.72l18.9-10.91,3.48,2.01-15.55,8.98,7.83,4.52-3.35,1.93-11.3-6.53Z"/><path class="cls-6" d="m72.64,246.92l18.9-10.91,3.48,2.01-18.9,10.91-3.48-2.01Z"/><path class="cls-6" d="m79.73,250.99l18.9-10.91,5.14,2.96c4.37,2.53,6.61,4.59,2.42,7.01-1.7.98-3.51,1.46-5.55,1.35,1.36,1.75,1.18,3.15-1.22,4.53-4.37,2.53-9.18,1.12-12.35-.71l-7.34-4.24Zm19.44-7.21l-4.64,2.68,3.4,1.96c.98.56,2.71,1.1,4.52.05,1.97-1.14,1.4-2-.21-2.92l-3.07-1.77Zm-7.37,4.26l-5.64,3.26,3.42,1.98c2.23,1.29,4.32,1.71,6.45.48,2.19-1.26,1.34-2.5-.62-3.63l-3.61-2.09Z"/><path class="cls-6" d="m107.7,267.13l3.08-6.33-3.53-2.04-7.02,4.05-3.48-2.01,18.9-10.91,6.96,4.02c3.67,2.12,5.2,4.56,1.09,6.93-2.92,1.68-5.84,1.71-8.74,1.31l-3.65,7.06-3.61-2.09Zm8.54-13.56l-5.75,3.32,2.55,1.47c3.15,1.82,5.07,1.49,6.77.51,1.76-1.01,2.1-2.03-.89-3.75l-2.69-1.55Z"/><path class="cls-6" d="m125.5,277.47l2.93-3.58-6.33-3.66-6.19,1.69-3.61-2.09,25.67-7.01,3.29,1.9-12.14,14.82-3.61-2.09Zm8.64-10.54l-7.49,2.07,3.94,2.27,3.55-4.34Z"/><path class="cls-6" d="m141.69,286.76l3.08-6.33-3.53-2.04-7.02,4.05-3.48-2.01,18.9-10.91,6.96,4.02c3.67,2.12,5.2,4.56,1.09,6.93-2.92,1.68-5.84,1.71-8.74,1.31l-3.65,7.06-3.61-2.09Zm8.54-13.56l-5.75,3.32,2.55,1.47c3.15,1.82,5.07,1.49,6.77.51,1.76-1.01,2.1-2.03-.89-3.75l-2.69-1.55Z"/><path class="cls-6" d="m163.57,289.72l-8.37,4.83-3.48-2.01,8.37-4.83,3.96-9.88,3.7,2.13-2.83,6.97,12.07-1.64,3.7,2.13-17.11,2.28Z"/><polygon class="cls-28" points="62.59 227.3 59.24 229.23 52.55 225.37 55.9 223.44 62.59 227.3"/><polygon class="cls-16" points="62.59 227.3 62.59 233.25 59.29 235.38 52.55 230.96 52.55 225.37 59.24 229.23 62.59 227.3"/><path class="cls-25" d="m0,71.57c3.42.58,6.93.89,10.51.89,34.15,0,61.83-27.68,61.83-61.83,0-3.82-.35-7.56-1.01-11.19H0v72.12Z"/><path class="cls-30" d="m27.9,396.3c10.46-8.26,17.19-21.04,17.19-35.4,0-24.9-20.18-45.08-45.08-45.08v80.48h27.9Z"/><path class="cls-12" d="m269.77,179.99l-48-27.8c-2.61-1.51-7.17-1.33-10.18.41l-100.74,57.98c-3.02,1.74-3.35,4.37-.74,5.88l48,27.8c2.61,1.51,7.17,1.33,10.18-.41l100.74-57.98c3.02-1.74,3.35-4.37.74-5.88Z"/><path class="cls-7" d="m156.71,233.95l-49.95-28.93c-1.64-.95-2.41-2.23-2.35-3.56h-.01s.02-7.24.02-7.24l2.78,3.25c.18-.12.36-.24.56-.35l102.19-58.81c4.06-2.33,10.19-2.58,13.7-.55l49.25,28.52c1-1.09,3.09-3.4,3.09-3.4l-.02,7.09h0c.07,1.6-1.06,3.3-3.35,4.62l-102.19,58.81c-4.06,2.33-10.19,2.58-13.7.55Z"/><path class="cls-25" d="m129.7,216.2l2.88,1.66c.38.22.69-.01.69-.52h0c0-.51-.31-1.1-.69-1.32l-2.88-1.66c-.38-.22-.69.01-.69.52h0c0,.51.31,1.1.69,1.32Z"/><path class="cls-15" d="m209.94,138.3c4.06-2.33,10.19-2.58,13.7-.55l49.25,28.52c1-1.09,3.09-3.4,3.09-3.4l-.02,7.09h0c.07,1.6-1.06,3.3-3.35,4.62l-102.19,58.81c-2.12,1.22-4.8,1.86-7.38,1.92l.1-70.07,46.81-26.94Z"/><path class="cls-9" d="m273.61,159.4l-49.95-28.93c-3.51-2.03-9.64-1.79-13.7.55l-102.19,58.81c-4.06,2.33-4.5,5.87-.99,7.91l49.95,28.93c3.51,2.03,9.64,1.79,13.7-.55l102.19-58.81c4.06-2.33,4.5-5.87.99-7.91Z"/><path class="cls-14" d="m156.69,227.44l-49.95-28.93c-1.81-1.05-2.56-2.5-2.31-3.97.09,1.2.86,2.34,2.35,3.2l49.95,28.93c3.51,2.03,9.64,1.79,13.7-.55l102.19-58.81c1.96-1.13,3.07-2.54,3.31-3.93.12,1.62-1.01,3.36-3.34,4.71l-102.19,58.81c-4.06,2.33-10.19,2.58-13.7.55Z"/><path class="cls-25" d="m269.77,160.54l-48-27.8c-2.61-1.51-7.17-1.33-10.18.41l-100.74,57.98c-3.02,1.74-3.35,4.37-.74,5.88l48,27.8c2.61,1.51,7.17,1.33,10.18-.41l100.74-57.98c3.02-1.74,3.35-4.37.74-5.88Z"/><polygon class="cls-9" points="170.2 210.36 136.32 190.8 138.49 189.56 172.36 209.11 170.2 210.36"/><polygon class="cls-9" points="146.63 204.66 129.48 194.76 131.64 193.51 148.79 203.41 146.63 204.66"/><polygon class="cls-30" points="154.95 209.46 149.39 206.25 151.55 205 157.11 208.22 154.95 209.46"/><polygon class="cls-14" points="163.35 214.31 157.79 211.1 159.95 209.85 165.51 213.07 163.35 214.31"/><polygon class="cls-14" points="146.82 200.82 132.9 192.78 135.06 191.53 148.98 199.57 146.82 200.82"/><polygon class="cls-9" points="163.81 210.63 149.89 202.59 152.05 201.34 165.97 209.38 163.81 210.63"/><path class="cls-33" d="m153.51,193.45c-.7.4-1.83.4-2.52,0-.7-.4-.7-1.05,0-1.46.7-.4,1.83-.4,2.52,0,.7.4.7,1.05,0,1.46Z"/><path class="cls-14" d="m157.28,195.62c-.7.4-1.83.4-2.52,0-.7-.4-.7-1.05,0-1.46.7-.4,1.83-.4,2.52,0,.7.4.7,1.05,0,1.46Z"/><path class="cls-9" d="m161.04,197.8c-.7.4-1.83.4-2.52,0-.7-.4-.7-1.05,0-1.46.7-.4,1.83-.4,2.52,0,.7.4.7,1.05,0,1.46Z"/><path class="cls-4" d="m164.81,199.98c-.7.4-1.83.4-2.52,0-.7-.4-.7-1.05,0-1.46.7-.4,1.83-.4,2.52,0,.7.4.7,1.05,0,1.46Z"/><path class="cls-14" d="m168.58,202.15c-.7.4-1.83.4-2.52,0-.7-.4-.7-1.05,0-1.46.7-.4,1.83-.4,2.52,0,.7.4.7,1.05,0,1.46Z"/><polygon class="cls-33" points="244.34 160.75 238.64 157.46 240.85 156.18 246.55 159.47 244.34 160.75"/><polygon class="cls-14" points="252.28 165.34 246.58 162.04 248.79 160.76 254.5 164.06 252.28 165.34"/><polygon class="cls-14" points="218.86 145.91 213.16 142.61 215.38 141.33 221.08 144.63 218.86 145.91"/><polygon class="cls-14" points="243.07 164.07 235.13 159.48 237.34 158.2 245.28 162.79 243.07 164.07"/><polygon class="cls-9" points="248.77 167.36 245.29 165.35 247.5 164.07 250.99 166.08 248.77 167.36"/><path class="cls-12" d="m203.18,241.89l19.88-11.48c1.57-.91,4.12-.96,6.18-.22l5.47-3.2c-5.13-3.82-5.6-9.06-1.39-13.14.82,1.16,2.04,2.25,3.67,3.19,6.58,3.8,17.26,3.8,23.84,0,2.57-1.48,4.12-3.33,4.68-5.25,7.51,4.59,7.38,11.82-.41,16.31-7.69,4.44-20,4.56-27.96.38l-5.52,3.23c.93,1.12.73,2.41-.7,3.24l-19.88,11.48c-1.88,1.09-5.17.95-7.34-.3-2.17-1.25-2.41-3.15-.53-4.24Z"/><g class="cls-35"><path class="cls-9" d="m260.82,205.83c-6.58-3.8-17.26-3.8-23.84,0-2.73,1.58-4.32,3.56-4.79,5.61.41,1.81,1.7,3.56,3.87,5.03.54-.44,1.15-.87,1.84-1.27,6.58-3.8,17.26-3.8,23.84,0,.32.19.63.38.92.58,1.62-1.32,2.6-2.81,2.95-4.35-.47-2.05-2.06-4.03-4.79-5.61Z"/><path class="cls-30" d="m260.82,205.83c-7.08-3.75-16.21-3.75-23.31-.09-2.29,1.23-4.49,3.15-5.1,5.75.39,1.58,2.05,3.74,3.79,4.78,0,0-.29.01-.29.01,7.39-5.45,19.11-5.43,26.79-.54,1.05-.95,2.6-2.62,2.89-4.29-.58-2.51-2.62-4.36-4.76-5.61h0Zm0,0c2.16,1.24,4.22,3.09,4.82,5.61-.41,1.73-1.6,3.42-3.01,4.4-7.55-4.66-19.23-4.48-26.41.82,0,0-.16.11-.16.11-1.88-1.26-3.6-3.04-4.1-5.33,3.02-9.87,21.38-10.23,28.86-5.61h0Z"/></g><path class="cls-20" d="m231.79,214.47l2.57-3.35,7.81-3.63,6.73-.6,7.88.96,5.47,2.82,3.49,2.23.63-3.63-1.18-4.18s-2.99-1.98-3.17-2.16c-.18-.18-6.98-2.62-6.98-2.62l-6.8-.46-5.47.69-5.56,1.65-3.67,2.57-2.76,3.49-.31,4.36,1.32,1.84Z"/><path class="cls-30" d="m231.79,214.47l2.54-3.38s7.79-3.71,7.79-3.72c.04-.03,6.73-.62,6.77-.63.07,0,7.87.93,7.95.94.04.02,5.47,2.8,5.51,2.82,0,0,3.5,2.21,3.51,2.22,0,0-.34.15-.34.15l.61-3.63v.1s-1.19-4.18-1.19-4.18l.1.14c-.78-.5-2.72-1.97-3.48-2.32,0,0-1.31-.51-1.31-.51l-5.29-1.96h.06s-6.8-.47-6.8-.47c.18-.03-5.47.68-5.43.67.17-.05-5.74,1.69-5.5,1.61.03-.02-3.79,2.64-3.66,2.53.02-.04-2.88,3.6-2.78,3.42,0-.02-.35,4.42-.36,4.34,0,0,1.3,1.85,1.3,1.85h0Zm0,0s-1.34-1.82-1.35-1.83c0,0,.27-4.37.26-4.38,0,0,0-.02,0-.02v-.02s2.73-3.52,2.73-3.52c0-.03,3.68-2.59,3.69-2.61,0,0,.03-.02.04-.02.01,0,5.55-1.67,5.56-1.68,0-.01,5.47-.7,5.48-.71.03-.02,6.8.44,6.83.43,0,0,.03,0,.03,0h.03s5.31,1.93,5.31,1.93c.47.2,1.61.54,2.01.9.49.32,2.46,1.66,2.97,2,0,0,.02.09.02.09l1.17,4.18v.05s0,.05,0,.05l-.64,3.63-.06.33-.28-.18s-3.54-2.27-3.47-2.23c0,0-5.46-2.84-5.46-2.84.36.07-8.02-1-7.78-.97.05-.02-6.91.61-6.69.56.02-.01-7.92,3.6-7.83,3.54,0,0-2.61,3.33-2.61,3.33h0Z"/><polygon class="cls-20" points="268.26 210.16 268.26 217.22 266.37 214.16 268.26 210.16"/><path class="cls-30" d="m268.26,210.16c.08,2.55.26,5.32.26,7.93-.82-1.28-1.6-2.62-2.39-3.92.66-1.35,1.48-2.7,2.13-4.01h0Zm0,0c-.63,1.39-1.1,2.74-1.7,4.09v-.2c.63,1.02,1.28,2.02,1.9,3.05l-.45.13c0-2.38.2-4.62.24-7.06h0Z"/><path class="cls-20" d="m236.98,210.53c6.58-3.8,17.26-3.8,23.84,0,2.07,1.2,3.49,2.62,4.26,4.14.58-.52,1.33-.93,1.64-1.63-.94-1.28-2.32-2.49-4.13-3.53-7.56-4.36-19.81-4.36-27.37,0-1.65.95-2.95,2.04-3.88,3.2.3.71.77,1.4,1.38,1.97.77-1.52,2.19-2.95,4.26-4.15Z"/><path class="cls-30" d="m236.98,210.53c7.72-4.44,23.22-4.31,28.29,4.04,0,0-.34-.06-.34-.06.6-.53,1.3-.92,1.58-1.56l.02.22c-4.1-5.06-11.19-6.54-17.42-6.74-6.29.02-13.4,1.34-17.74,6.29.3.58.78,1.43,1.37,1.93.78-1.72,2.56-3.16,4.24-4.13h0Zm0,0c-1.75.98-3.34,2.46-4.27,4.16-.59-.55-1.12-1.25-1.39-2,4.33-5.02,11.43-6.52,17.79-6.64,6.39.11,13.6,1.59,17.78,6.87,0,0,.08.11.08.11-.42.97-1.33,1.37-1.96,2l-.13-.25c-4.95-8.27-20.21-8.63-27.9-4.24h0Z"/><g class="cls-35"><path class="cls-9" d="m260.82,205.83c-6.58-3.8-17.26-3.8-23.84,0-2.73,1.58-4.32,3.56-4.79,5.61.47,2.05,2.06,4.03,4.79,5.61,6.58,3.8,17.26,3.8,23.84,0,2.73-1.58,4.32-3.56,4.79-5.61-.47-2.05-2.06-4.03-4.79-5.61Z"/><path class="cls-30" d="m260.82,205.83c-4.74-2.6-10.39-3.24-15.69-2.5-4.96.79-11.18,2.84-12.72,8.16.68,2.78,3.91,5.28,6.83,6.38,6.1,2.42,13.24,2.48,19.38.13,2.99-1.2,6.15-3.25,6.96-6.56-.56-2.45-2.62-4.36-4.76-5.6h0Zm0,0c2.16,1.24,4.22,3.09,4.82,5.61-.81,3.34-3.94,5.48-6.94,6.75-6.2,2.51-13.41,2.57-19.65.13-3.08-1.25-6.28-3.43-7.09-6.88.32-1.38,1.09-2.62,2.07-3.61,6.75-6.19,19-6.22,26.79-2h0Z"/></g><path class="cls-20" d="m266.72,213.04c-.13.3-.34.54-.59.76v-.07s-1.75,1.04-1.75,1.04l-2.14,1.99-2.97,1.32-4.1,1.47-3.64.86-5.02.21-3.25-.34-6.43-1.68-4.19-3.7c.03-.07.06-.15.1-.22-.61-.57-1.08-1.26-1.38-1.97-.11.14-.22.28-.32.43l-1.47-3.06v7.34h0c0,2.86,1.88,5.72,5.66,7.9,7.56,4.36,19.81,4.36,27.37,0,5.74-3.32,7.12-8.2,4.13-12.27Z"/><path class="cls-30" d="m266.72,213.04c-.12.27-.38.64-.6.76,0,0,0-.07,0-.07h.01s-1.74,1.06-1.74,1.06c.02-.02-2.13,2.01-2.12,2.01,0,.02-2.97,1.34-2.98,1.36,0,0-4.09,1.51-4.09,1.51,0,.01-3.65.86-3.65.87,0,.02-5.03.22-5.05.23-.03.02-3.24-.34-3.27-.33,0,0-.02,0-.02,0,0,0-6.44-1.66-6.44-1.66h-.04s-.03-.04-.03-.04l-4.2-3.69-.11-.1.06-.14.1-.23.04.24c-.62-.57-1.11-1.27-1.44-2.03l.36.05-.31.42-.21.28-.15-.31-1.48-3.06.42-.1.02,7.34-.46-.12s.47-.87.47-.88c-.5,5.01,4.14,8.46,8.37,10.07,8.18,2.98,18.17,2.74,25.6-2.09,3.91-2.47,6-7.35,2.93-11.35h0Zm0,0c3.17,3.99,1.12,8.98-2.79,11.55-7.53,4.94-17.56,5.24-25.9,2.28-4.05-1.57-8.63-4.63-8.72-9.47,0,0,.46.12.46.12,0,0-.47.86-.47.86,0,0,0-.98,0-.98l.02-7.34v-.98s.42.89.42.89l1.46,3.06-.36-.03.33-.44.22-.28.14.33c.32.76.82,1.45,1.43,2-.05.09-.11.27-.16.36,0,0-.05-.24-.05-.24l4.18,3.72c-.41-.16,6.44,1.7,6.35,1.66-.15-.02,3.34.35,3.2.34-.03-.02,5.13-.19,5-.19-.02,0,3.7-.86,3.63-.84,0,0,4.14-1.44,4.11-1.43-.01,0,3.04-1.32,2.97-1.28,0,0,2.16-1.97,2.17-1.97,0,0,1.76-1.02,1.76-1.02h.01s0,0,0,0v.07c.16-.2.48-.47.58-.76h0Z"/><path class="cls-20" d="m234.14,216.23l-1.51-1.34c.03-.07.06-.15.1-.22-.61-.57-1.08-1.26-1.38-1.97-.11.14-.22.28-.32.43l-1.47-3.06v7.34h0c0,2.57,1.53,5.14,4.58,7.22v-8.39Z"/><path class="cls-30" d="m234.14,216.23l-1.55-1.29-.03-.03s.09-.23.11-.27c0,0,.01.08.01.08-.61-.54-1.12-1.21-1.46-1.96l.22.03c-.09.14-.36.48-.45.61,0,0-.1-.21-.1-.21l-1.52-3.04.37-.08.05,7.34s-.48-.11-.46-.12c0,0,.46-.86.46-.86v.97c0,2.98,2.11,5.43,4.45,7.06,0,0-.3.16-.3.16.03-2.77.11-5.56.19-8.39h0Zm0,0c.09,2.88.17,5.82.2,8.76-2.62-1.64-5.03-4.31-5.03-7.59,0,0,.48.11.46.12,0,0-.47.86-.47.86,0-.22.05-7.79.06-8.31v-.88s.37.8.37.8l1.42,3.08-.24-.02.33-.43.14-.18c.32.82.78,1.6,1.43,2.21,0,.02-.12.23-.13.26,0,0-.01-.07-.01-.07l1.47,1.38h0Z"/><path class="cls-20" d="m262.59,202.26c-7.56-4.36-19.81-4.36-27.37,0-7.56,4.36-7.56,11.44,0,15.8,7.56,4.36,19.81,4.36,27.37,0,7.56-4.36,7.56-11.44,0-15.8Zm-1.76,14.78c-6.58,3.8-17.26,3.8-23.84,0-6.58-3.8-6.58-9.96,0-13.76,6.58-3.8,17.26-3.8,23.84,0s6.58,9.96,0,13.76Z"/><path class="cls-30" d="m262.59,202.26c-8.65-4.57-20.89-4.44-28.98,1.27-6.05,4.47-4.46,10.99,1.74,14.32,7.06,3.87,15.92,4.23,23.52,1.75,9.27-2.94,13.5-11.57,3.72-17.34h0Zm0,0c9.91,5.72,5.68,14.51-3.64,17.57-7.7,2.59-16.61,2.31-23.85-1.56-9.94-5.87-5.73-14.78,3.77-17.79,7.69-2.51,16.58-2.14,23.72,1.77h0Z"/><path class="cls-30" d="m260.82,217.04c-6.22,3.41-13.97,3.74-20.67,1.56-4.02-1.35-8.86-4.51-8.23-9.36,2.34-9.48,18.15-10.38,25.73-7.52,8.11,2.67,11.82,10.33,3.17,15.32h0Zm0,0c8.49-5.02,4.84-12.52-3.25-15.08-7.27-2.74-22.94-1.6-25.25,7.34-.63,4.65,4.06,7.7,7.91,9.06,6.63,2.24,14.35,2,20.59-1.32h0Z"/><polygon class="cls-9" points="222.56 226.07 233.29 219.83 234.71 222.14 223.94 228.41 222.56 226.07"/><path class="cls-30" d="m222.56,226.07c3.14-1.93,7.45-4.62,10.61-6.44,0,0,.19-.11.19-.11l.12.19,1.44,2.3.14.22-.22.13c-3.63,2.09-7.25,4.18-10.94,6.18l-.04-.07-1.3-2.39h0Zm0,0l1.45,2.3c2.91-2.13,7.18-4.35,10.57-6.45,0,0-.09.35-.09.35l-1.41-2.32.32.08c-3.07,1.79-7.67,4.3-10.84,6.04h0Z"/><path class="cls-32" d="m224.21,227.8c0,.61-.43.86-.96.56s-.96-1.05-.96-1.67.43-.86.96-.56c.53.31.96,1.05.96,1.67Z"/><path class="cls-30" d="m224.21,227.8c.05.79-.75.91-1.27.48-.74-.44-1.46-2.1-.28-2.48,1.04-.01,1.49,1.17,1.56,1.99h0Zm0,0c-.01-.73-.72-1.68-1.46-1.57-.51.39-.03,1.42.35,1.87.4.51,1.12.46,1.11-.29h0Z"/><path class="cls-32" d="m224.21,227.8c0,.61-.43.86-.96.56s-.96-1.05-.96-1.67.43-.86.96-.56c.53.31.96,1.05.96,1.67Z"/><path class="cls-30" d="m224.21,227.8c.05.79-.75.91-1.27.48-.74-.44-1.46-2.1-.28-2.48,1.04-.01,1.49,1.17,1.56,1.99h0Zm0,0c-.01-.73-.72-1.68-1.46-1.57-.51.39-.03,1.42.35,1.87.4.51,1.12.46,1.11-.29h0Z"/><path class="cls-9" d="m234.94,221.55c0,.61-.43.86-.96.56-.53-.31-.96-1.05-.96-1.67s.43-.86.96-.56c.53.31.96,1.05.96,1.67Z"/><path class="cls-30" d="m234.94,221.55c.05.79-.75.91-1.27.48-.74-.44-1.46-2.1-.28-2.48,1.04-.01,1.49,1.17,1.56,1.99h0Zm0,0c-.01-.73-.72-1.68-1.46-1.57-.51.39-.03,1.42.35,1.87.4.51,1.12.46,1.11-.29h0Z"/><path class="cls-15" d="m229.49,228.25c0-2.64-1.85-5.85-4.14-7.17-1.17-.68-2.22-.72-2.98-.25h0s-22.68,13.18-22.68,13.18l5.93,10.09,22.44-13.06c.15-.07.3-.15.43-.25h.02s0-.01,0-.01c.61-.48.98-1.34.98-2.52Z"/><path class="cls-30" d="m229.49,228.25c.04-3.23-3.55-8.92-7.16-7.39-7.17,4.41-15.07,8.97-22.51,13.36,0,0,.09-.33.09-.33l5.9,10.1-.29-.08c7.51-4.3,15.06-8.54,22.54-12.89,1.03-.44,1.45-1.67,1.43-2.77h0Zm0,0c.02.91-.28,2.01-.99,2.54-7.61,4.44-15.18,9-22.77,13.49l-.18.11-.11-.18-5.95-10.07-.12-.21.21-.12c7.57-4.33,15.27-8.84,22.84-12.99,3.3-1.72,7.25,4.31,7.07,7.45h0Z"/><path class="cls-9" d="m201.34,236.8l25.38-14.65c-.43-.42-.89-.79-1.37-1.06-1.17-.68-2.22-.72-2.98-.25h0s-22.68,13.18-22.68,13.18l1.64,2.79Z"/><path class="cls-30" d="m201.34,236.8c7.42-4.41,17.9-10.62,25.26-14.86,0,0-.05.38-.05.38-1.01-.99-2.67-2.06-4.05-1.28,0,0-.21.13-.21.13,0,0-.13-.21-.13-.21l.33.09c-6.69,3.86-16.12,9.31-22.77,13.01,0,0,.02-.07.02-.07l1.6,2.82h0Zm0,0l-1.68-2.77-.03-.04.04-.03c6.48-3.93,15.94-9.46,22.58-13.35,0,0,.21-.12.21-.12,0,0,.12.21.13.21,0,0-.34-.08-.34-.08,1.76-1,3.67.34,4.87,1.58-7.49,4.33-18.14,10.31-25.78,14.6h0Z"/><ellipse class="cls-9" cx="202.66" cy="239.05" rx="3.38" ry="5.85" transform="translate(-92.38 133.36) rotate(-30)"/><path class="cls-30" d="m206.8,241.44c.06,3.44-3.01,3.7-5.21,1.77-1.9-1.6-3.22-3.98-3.32-6.55.01-3.59,3.2-3.96,5.46-1.77,1.79,1.69,3.01,4.08,3.07,6.55h0Zm0,0c-.09-3.21-2.91-7.81-6.45-7.46-1.18.27-1.61,1.58-1.58,2.69.05,2.38,1.25,4.73,2.98,6.36,2.09,2.03,5.03,1.81,5.05-1.58h0Z"/><path class="cls-15" d="m203.44,240.21c0,1.49-1.21,2.69-2.69,2.69s-2.69-1.21-2.69-2.69,1.21-2.69,2.69-2.69,2.69,1.21,2.69,2.69Z"/><path class="cls-30" d="m203.44,240.21c-.08,3.69-5.5,3.77-5.64,0,.14-3.77,5.56-3.69,5.64,0h0Zm0,0c-.11-3.43-5.09-3.35-5.14,0,.05,3.35,5.03,3.43,5.14,0h0Z"/><path class="cls-14" d="m200.25,239.22c0,.44-.36.8-.8.8s-.8-.36-.8-.8.36-.8.8-.8.8.36.8.8Z"/><path class="cls-30" d="m200.25,239.22c.01,1.17-1.8,1.27-1.84,0,.04-1.27,1.85-1.17,1.84,0h0Zm0,0c-.04-.95-1.36-.84-1.34,0-.02.85,1.31.95,1.34,0h0Z"/><path class="cls-14" d="m202.96,234.1c-1.22-.71-2.32-.72-3.08-.19.73-.34,1.7-.25,2.77.36,2.28,1.32,4.14,4.53,4.14,7.17,0,1.23-.4,2.11-1.06,2.57.84-.39,1.37-1.35,1.37-2.75,0-2.64-1.85-5.85-4.14-7.17Z"/><path class="cls-30" d="m202.96,234.1c-.91-.52-2.14-.82-3.06-.16,0,0-.03-.06-.03-.06,3.54-1.14,6.76,3.76,7.12,6.83.16,1.23-.03,2.7-1.13,3.49,0,0-.22-.38-.22-.38,3.2-2.08,0-8.3-2.68-9.72h0Zm0,0c2.82,1.5,6.38,7.85,2.86,10.12,0,0-.22-.38-.22-.38.89-.66,1.03-1.95.9-3.07-.3-2.87-3.2-7.84-6.61-6.82,0,0-.03-.05-.03-.05.94-.66,2.18-.34,3.09.21h0Z"/><path class="cls-14" d="m260.82,203.28c-6.58-3.8-17.26-3.8-23.84,0-3.43,1.98-5.07,4.6-4.92,7.19.13-2.39,1.77-4.75,4.92-6.57,6.58-3.8,17.26-3.8,23.84,0,3.15,1.82,4.79,4.19,4.92,6.57.14-2.59-1.5-5.21-4.92-7.19Z"/><path class="cls-30" d="m260.82,203.28c-7.71-4.25-21.6-4.01-27.39,3.31-.79,1.13-1.26,2.5-1.18,3.87h-.4c.09-1.83,1.06-3.49,2.31-4.74,6.37-5.8,17.35-6.01,24.98-2.78,3.1,1.38,6.42,3.86,6.65,7.53,0,0-.11,0-.11,0,.19-3.17-2.3-5.7-4.87-7.19h0Zm0,0c2.61,1.47,5.13,3.99,4.98,7.19,0,0-.11,0-.11,0-.27-3.61-3.56-6-6.63-7.32-7.71-3.12-18.11-2.74-24.57,2.9-1.22,1.18-2.14,2.73-2.24,4.43h-.4c-.08-1.47.45-2.92,1.29-4.09,5.97-7.38,19.87-7.5,27.67-3.11h0Z"/><path class="cls-14" d="m262.59,218.06c-7.56,4.36-19.81,4.36-27.37,0-3.64-2.1-5.52-4.84-5.66-7.59-.14,2.96,1.74,5.95,5.66,8.21,7.56,4.36,19.81,4.36,27.37,0,3.92-2.26,5.8-5.25,5.66-8.21-.13,2.76-2.01,5.49-5.66,7.59Z"/><path class="cls-30" d="m262.59,218.06c-8.88,4.97-24.24,4.83-31.39-3.12-1.02-1.25-1.74-2.81-1.83-4.46h.39c-.09,2.01.85,3.96,2.24,5.41,7.17,6.88,20.07,7.31,28.88,3.54,3.86-1.7,7.22-4.66,7.41-8.95-.2,3.41-2.9,5.99-5.71,7.59h0Zm0,0c2.77-1.61,5.45-4.21,5.6-7.59.59,4.12-3.71,7.57-7.22,9.16-8.75,3.89-22.21,3.64-29.31-3.44-1.43-1.52-2.41-3.59-2.3-5.73h.39c.07,1.55.73,3.05,1.7,4.27,7.01,7.92,22.27,8.18,31.12,3.33h0Z"/><g class="cls-38"><g class="cls-39"><path class="cls-9" d="m185.17,188.28c-1.82,1.05-1.82,2.76,0,3.81l30.89,17.83c.5.29,1.31.29,1.81,0s.5-.76,0-1.04l-30.89-17.83c-.82-.47-.82-1.24,0-1.72l2.99-1.73c-.33-.5-.63-1.02-.93-1.55l-3.87,2.24Z"/><path class="cls-15" d="m228.92,202.5l-30.89-17.83c-1.82-1.05-4.77-1.05-6.59,0l-2.4,1.38c.3.53.6,1.05.93,1.55l3.27-1.89c.82-.47,2.15-.47,2.97,0l30.89,17.83c.5.29,1.31.29,1.81,0,.5-.29.5-.76,0-1.04Z"/><polygon class="cls-15" points="229.29 203.06 229.29 159.62 196.92 141.58 192.4 141.28 188.02 144.12 185.33 146.45 216.87 196.46 227.17 202.53 229.29 203.06"/><polygon class="cls-34" points="217.32 208.54 226.99 202.96 226.99 160.98 217.02 165.62 217.32 208.54"/><polygon class="cls-9" points="183.81 146.79 183.81 190.15 217.79 209.59 218.24 209.41 218.24 165.98 183.81 146.79"/><path class="cls-14" d="m202.92,147.15l-6.75-3.88c-.82-.38-2.03-.36-2.79.08l-6.27,3.62c-.49.28-.68.66-.59,1.03l17.06,10.2,13.71,8.41,9.71-5.63-24.07-13.83Z"/><path class="cls-15" d="m217.02,165.3v44.83c.31,0,.61-.08.85-.21.25-.14.37-.33.37-.51h0v-43.43l-1.22-.68Z"/><polygon class="cls-14" points="229.29 160.17 229.29 159.62 229.12 159.62 229.07 159.99 229.29 160.17"/><polygon class="cls-14" points="218.24 166.54 218.24 165.99 218.08 166.22 218.24 166.54"/><path class="cls-9" d="m216.06,166.5l-30.89-17.83c-1.82-1.05-1.82-2.76,0-3.81l6.27-3.62c1.82-1.05,4.77-1.05,6.59,0l30.89,17.83c.5.29.5.76,0,1.04s-1.31.29-1.81,0l-30.89-17.83c-.82-.47-2.15-.47-2.97,0l-6.27,3.62c-.82.47-.82,1.24,0,1.72l30.89,17.83c.5.29.5.76,0,1.04s-1.31.29-1.81,0Z"/><polygon class="cls-14" points="208.01 187.05 191.96 177.79 191.96 161.7 208.01 170.96 208.01 187.05"/><path class="cls-14" d="m228.92,160.12c-.5.29-1.31.29-1.81,0l-30.89-17.83c-.82-.47-2.15-.47-2.97,0l-6.27,3.62c-.54.31-.72.75-.55,1.14.09-.21.27-.41.55-.57l6.27-3.62c.82-.47,2.15-.47,2.97,0l30.89,17.83c.5.29,1.31.29,1.81,0,.38-.22.47-.54.27-.81-.06.09-.15.17-.27.24Z"/><path class="cls-14" d="m217.87,166.5c-.5.29-1.31.29-1.81,0l-30.89-17.83c-.78-.45-1.23-1.03-1.33-1.62-.14.78.3,1.59,1.33,2.19l30.89,17.83c.5.29,1.31.29,1.81,0,.38-.22.47-.54.27-.81-.06.09-.15.17-.27.24Z"/><path class="cls-20" d="m170.97,196.69c-1.82,1.05-1.82,2.76,0,3.81l30.89,17.83c.5.29,1.31.29,1.81,0s.5-.76,0-1.04l-30.89-17.83c-.82-.47-.82-1.24,0-1.72l2.99-1.73c-.33-.5-.63-1.02-.93-1.55l-3.87,2.24Z"/><path class="cls-20" d="m214.72,210.9l-30.89-17.83c-1.82-1.05-4.77-1.05-6.59,0l-2.4,1.38c.3.53.6,1.05.93,1.55l3.27-1.89c.82-.47,2.15-.47,2.97,0l30.89,17.83c.5.29,1.31.29,1.81,0,.5-.29.5-.76,0-1.04Z"/><polygon class="cls-20" points="215.09 211.46 215.09 168.03 182.72 149.99 178.2 149.69 173.82 152.52 171.13 154.86 202.67 204.87 212.97 210.94 215.09 211.46"/><polygon class="cls-31" points="203.12 216.95 212.79 211.36 212.79 169.39 202.82 174.02 203.12 216.95"/><polygon class="cls-20" points="169.61 155.2 169.61 198.56 203.59 218 204.04 217.81 204.04 174.39 169.61 155.2"/><path class="cls-14" d="m188.72,155.56l-6.75-3.88c-.82-.38-2.03-.36-2.79.08l-6.27,3.62c-.49.28-.68.66-.59,1.03l17.06,10.2,13.71,8.41,9.71-5.63-24.07-13.83Z"/><path class="cls-20" d="m202.82,173.71v44.83c.31,0,.61-.08.85-.21.25-.14.37-.33.37-.51h0v-43.43l-1.22-.68Z"/><polygon class="cls-14" points="215.09 168.57 215.09 168.03 214.92 168.03 214.87 168.4 215.09 168.57"/><polygon class="cls-14" points="204.04 174.95 204.04 174.4 203.87 174.63 204.04 174.95"/><path class="cls-20" d="m201.86,174.9l-30.89-17.83c-1.82-1.05-1.82-2.76,0-3.81l6.27-3.62c1.82-1.05,4.77-1.05,6.59,0l30.89,17.83c.5.29.5.76,0,1.04s-1.31.29-1.81,0l-30.89-17.83c-.82-.47-2.15-.47-2.97,0l-6.27,3.62c-.82.47-.82,1.24,0,1.72l30.89,17.83c.5.29.5.76,0,1.04s-1.31.29-1.81,0Z"/><polygon class="cls-14" points="193.81 195.46 177.76 186.19 177.76 170.1 193.81 179.37 193.81 195.46"/><path class="cls-14" d="m214.72,168.52c-.5.29-1.31.29-1.81,0l-30.89-17.83c-.82-.47-2.15-.47-2.97,0l-6.27,3.62c-.54.31-.72.75-.55,1.14.09-.21.27-.41.55-.57l6.27-3.62c.82-.47,2.15-.47,2.97,0l30.89,17.83c.5.29,1.31.29,1.81,0,.38-.22.47-.54.27-.81-.06.09-.15.17-.27.24Z"/><path class="cls-14" d="m203.67,174.9c-.5.29-1.31.29-1.81,0l-30.89-17.83c-.78-.45-1.23-1.03-1.33-1.62-.14.78.3,1.59,1.33,2.19l30.89,17.83c.5.29,1.31.29,1.81,0,.38-.22.47-.54.27-.81-.06.09-.15.17-.27.24Z"/><path class="cls-9" d="m156.38,210.77c-1.82,1.05-1.82,2.76,0,3.81l30.89,17.83c.5.29,1.31.29,1.81,0s.5-.76,0-1.04l-30.89-17.83c-.82-.47-.82-1.24,0-1.72l2.99-1.73c-.33-.5-.63-1.02-.93-1.55l-3.87,2.24Z"/><path class="cls-15" d="m200.13,224.99l-30.89-17.83c-1.82-1.05-4.77-1.05-6.59,0l-2.4,1.38c.3.53.6,1.05.93,1.55l3.27-1.89c.82-.47,2.15-.47,2.97,0l30.89,17.83c.5.29,1.31.29,1.81,0,.5-.29.5-.76,0-1.04Z"/><polygon class="cls-15" points="200.5 225.54 200.5 182.11 168.13 164.07 163.61 163.77 159.23 166.6 156.54 168.94 188.08 218.95 198.38 225.02 200.5 225.54"/><polygon class="cls-34" points="188.53 231.03 198.2 225.44 198.2 183.47 188.23 188.1 188.53 231.03"/><polygon class="cls-9" points="155.02 169.28 155.02 212.64 189 232.08 189.45 231.9 189.45 188.47 155.02 169.28"/><path class="cls-14" d="m174.13,169.64l-6.75-3.88c-.82-.38-2.03-.36-2.79.08l-6.27,3.62c-.49.28-.68.66-.59,1.03l17.06,10.2,13.71,8.41,9.71-5.63-24.07-13.83Z"/><path class="cls-15" d="m188.23,187.79v44.83c.31,0,.61-.08.85-.21.25-.14.37-.33.37-.51h0v-43.43l-1.22-.68Z"/><polygon class="cls-14" points="200.5 182.65 200.5 182.11 200.33 182.11 200.27 182.48 200.5 182.65"/><polygon class="cls-14" points="189.45 189.03 189.45 188.48 189.28 188.71 189.45 189.03"/><path class="cls-9" d="m187.27,188.98l-30.89-17.83c-1.82-1.05-1.82-2.76,0-3.81l6.27-3.62c1.82-1.05,4.77-1.05,6.59,0l30.89,17.83c.5.29.5.76,0,1.04s-1.31.29-1.81,0l-30.89-17.83c-.82-.47-2.15-.47-2.97,0l-6.27,3.62c-.82.47-.82,1.24,0,1.72l30.89,17.83c.5.29.5.76,0,1.04s-1.31.29-1.81,0Z"/><polygon class="cls-14" points="179.22 209.54 163.17 200.28 163.17 184.18 179.22 193.45 179.22 209.54"/><path class="cls-14" d="m200.13,182.6c-.5.29-1.31.29-1.81,0l-30.89-17.83c-.82-.47-2.15-.47-2.97,0l-6.27,3.62c-.54.31-.72.75-.55,1.14.09-.21.27-.41.55-.57l6.27-3.62c.82-.47,2.15-.47,2.97,0l30.89,17.83c.5.29,1.31.29,1.81,0,.38-.22.47-.54.27-.81-.06.09-.15.17-.27.24Z"/><path class="cls-14" d="m189.08,188.98c-.5.29-1.31.29-1.81,0l-30.89-17.83c-.78-.45-1.23-1.03-1.33-1.62-.14.78.3,1.59,1.33,2.19l30.89,17.83c.5.29,1.31.29,1.81,0,.38-.22.47-.54.27-.81-.06.09-.15.17-.27.24Z"/></g></g><g class="cls-37"><polygon class="cls-23" points="213.45 170.53 210.87 178.99 204.27 183.53 209.28 185.58 207.78 193.97 213.45 186.67 219.13 187.42 217.62 180.76 222.63 172.93 216.03 176.01 213.45 170.53"/><path class="cls-20" d="m225.71,174.7l-3.08-1.77-4.76,2.22s.02,3.2,0,3.28c-.02.08,1.96.17,2.09.17s5.74-3.9,5.74-3.9Z"/><path class="cls-20" d="m207.78,193.97l3.08,1.77,1.5-8.4s-1.49-1.58-1.49-1.58-1.68.29-1.68.29l-1.42,7.92Z"/><polygon class="cls-20" points="216.53 172.3 213.95 180.76 207.35 185.3 212.36 187.34 210.86 195.74 216.53 188.44 222.21 189.19 220.7 182.53 225.71 174.7 219.11 177.78 216.53 172.3"/><path class="cls-14" d="m211.46,194.96l1.41-7.9-4.57-1.86,6.04-4.15,2.28-7.48,2.27,4.82,6.36-2.97.46-.72-6.6,3.08-2.58-5.48-2.58,8.46-6.6,4.54,5.01,2.04-1.5,8.4.6-.78Z"/><polygon class="cls-20" points="216.53 172.3 213.45 170.53 210.87 178.99 213.95 180.76 216.53 172.3"/><polygon class="cls-20" points="204.27 183.53 207.35 185.3 213.95 180.76 210.87 178.99 204.27 183.53"/><polygon class="cls-14" points="213.8 180.97 214.27 180.7 210.94 178.77 210.87 178.99 210.65 179.14 213.8 180.97"/><polygon class="cls-23" points="192.41 182.58 189.83 191.04 183.23 195.58 188.24 197.62 186.74 206.01 192.41 198.71 198.09 199.46 196.58 192.8 201.59 184.98 194.99 188.06 192.41 182.58"/><path class="cls-20" d="m204.67,186.75l-3.08-1.77-4.76,2.22s.02,3.2,0,3.28c-.02.08,1.96.17,2.09.17s5.74-3.9,5.74-3.9Z"/><path class="cls-20" d="m186.74,206.01l3.08,1.77,1.5-8.4s-1.49-1.58-1.49-1.58-1.68.29-1.68.29l-1.42,7.92Z"/><polygon class="cls-20" points="195.49 184.34 192.91 192.8 186.31 197.35 191.32 199.39 189.82 207.78 195.49 200.48 201.17 201.23 199.66 194.57 204.67 186.75 198.07 189.83 195.49 184.34"/><path class="cls-14" d="m190.42,207.01l1.41-7.9-4.57-1.86,6.04-4.15,2.28-7.48,2.27,4.82,6.36-2.97.46-.72-6.6,3.08-2.58-5.48-2.58,8.46-6.6,4.54,5.01,2.04-1.5,8.4.6-.78Z"/><polygon class="cls-20" points="195.49 184.34 192.41 182.58 189.83 191.04 192.91 192.8 195.49 184.34"/><polygon class="cls-20" points="183.23 195.58 186.31 197.35 192.91 192.8 189.83 191.04 183.23 195.58"/><polygon class="cls-14" points="192.76 193.02 193.23 192.75 189.9 190.81 189.83 191.04 189.61 191.19 192.76 193.02"/><polygon class="cls-23" points="171.37 194.62 168.79 203.08 162.19 207.62 167.2 209.66 165.7 218.06 171.37 210.75 177.05 211.51 175.54 204.84 180.55 197.02 173.95 200.1 171.37 194.62"/><path class="cls-20" d="m183.63,198.79l-3.08-1.77-4.76,2.22s.02,3.2,0,3.28c-.02.08,1.96.17,2.09.17s5.74-3.9,5.74-3.9Z"/><path class="cls-20" d="m165.7,218.06l3.08,1.77,1.5-8.4s-1.49-1.58-1.49-1.58-1.68.29-1.68.29l-1.42,7.92Z"/><polygon class="cls-20" points="174.45 196.39 171.87 204.85 165.27 209.39 170.28 211.43 168.78 219.83 174.45 212.52 180.13 213.28 178.62 206.61 183.63 198.79 177.03 201.87 174.45 196.39"/><path class="cls-14" d="m169.38,219.05l1.41-7.9-4.57-1.86,6.04-4.15,2.28-7.48,2.27,4.82,6.36-2.97.46-.72-6.6,3.08-2.58-5.48-2.58,8.46-6.6,4.54,5.01,2.04-1.5,8.4.6-.78Z"/><polygon class="cls-20" points="174.45 196.39 171.37 194.62 168.79 203.08 171.87 204.85 174.45 196.39"/><polygon class="cls-20" points="162.19 207.62 165.27 209.39 171.87 204.85 168.79 203.08 162.19 207.62"/><polygon class="cls-14" points="171.72 205.06 172.19 204.79 168.86 202.85 168.79 203.08 168.57 203.23 171.72 205.06"/><polygon class="cls-23" points="198.81 150.56 196.23 159.02 189.63 163.56 194.64 165.6 193.14 174 198.81 166.69 204.49 167.45 202.99 160.79 207.99 152.96 201.39 156.04 198.81 150.56"/><path class="cls-20" d="m211.07,154.73l-3.08-1.77-4.76,2.22s.02,3.2,0,3.28c-.02.08,1.96.17,2.09.17s5.74-3.9,5.74-3.9Z"/><path class="cls-20" d="m193.14,174l3.08,1.77,1.5-8.4s-1.49-1.58-1.49-1.58-1.68.29-1.68.29l-1.42,7.92Z"/><polygon class="cls-20" points="201.89 152.33 199.31 160.79 192.71 165.33 197.72 167.37 196.22 175.77 201.89 168.46 207.57 169.22 206.07 162.55 211.07 154.73 204.47 157.81 201.89 152.33"/><path class="cls-14" d="m196.82,174.99l1.41-7.9-4.57-1.86,6.04-4.15,2.28-7.48,2.27,4.82,6.36-2.97.46-.72-6.6,3.08-2.58-5.48-2.58,8.46-6.6,4.54,5.01,2.04-1.5,8.4.6-.78Z"/><polygon class="cls-20" points="201.89 152.33 198.81 150.56 196.23 159.02 199.31 160.79 201.89 152.33"/><polygon class="cls-20" points="189.63 163.56 192.71 165.33 199.31 160.79 196.23 159.02 189.63 163.56"/><polygon class="cls-14" points="199.16 161 199.63 160.73 196.3 158.79 196.23 159.02 196.02 159.17 199.16 161"/><polygon class="cls-23" points="177.77 162.6 175.19 171.06 168.59 175.61 173.6 177.65 172.1 186.04 177.77 178.74 183.45 179.49 181.95 172.83 186.95 165.01 180.35 168.09 177.77 162.6"/><path class="cls-20" d="m190.03,166.77l-3.08-1.77-4.76,2.22s.02,3.2,0,3.28,1.96.17,2.09.17,5.74-3.9,5.74-3.9Z"/><path class="cls-20" d="m172.1,186.04l3.08,1.77,1.5-8.4s-1.49-1.58-1.49-1.58-1.68.29-1.68.29l-1.42,7.92Z"/><polygon class="cls-20" points="180.85 164.37 178.27 172.83 171.67 177.37 176.68 179.42 175.18 187.81 180.85 180.51 186.53 181.26 185.03 174.6 190.03 166.77 183.43 169.85 180.85 164.37"/><path class="cls-14" d="m175.78,187.04l1.41-7.9-4.57-1.86,6.04-4.15,2.28-7.48,2.27,4.82,6.36-2.97.46-.72-6.6,3.08-2.58-5.48-2.58,8.46-6.6,4.54,5.01,2.04-1.5,8.4.6-.78Z"/><polygon class="cls-20" points="180.85 164.37 177.77 162.6 175.19 171.06 178.27 172.83 180.85 164.37"/><polygon class="cls-20" points="168.59 175.61 171.67 177.37 178.27 172.83 175.19 171.06 168.59 175.61"/><polygon class="cls-14" points="178.12 173.04 178.59 172.77 175.26 170.84 175.19 171.06 174.97 171.21 178.12 173.04"/><path class="cls-9" d="m185.17,178.98c-1.82,1.05-1.82,2.76,0,3.81l30.89,17.83c.5.29,1.31.29,1.81,0s.5-.76,0-1.04l-30.89-17.83c-.82-.47-.82-1.24,0-1.72l2.99-1.73c-.33-.5-.63-1.02-.93-1.55l-3.87,2.24Z"/><path class="cls-15" d="m228.92,193.19l-30.89-17.83c-1.82-1.05-4.77-1.05-6.59,0l-2.4,1.38c.3.53.6,1.05.93,1.55l3.27-1.89c.82-.47,2.15-.47,2.97,0l30.89,17.83c.5.29,1.31.29,1.81,0,.5-.29.5-.76,0-1.04Z"/><polygon class="cls-15" points="229.29 193.75 229.29 150.32 196.92 132.27 192.4 131.98 188.02 134.81 185.33 137.15 216.87 187.16 227.17 193.23 229.29 193.75"/><polygon class="cls-34" points="217.32 199.24 226.99 193.65 226.99 151.67 217.02 156.31 217.32 199.24"/><polygon class="cls-9" points="183.81 137.49 183.81 180.85 217.79 200.28 218.24 200.1 218.24 156.68 183.81 137.49"/><path class="cls-14" d="m202.92,137.84l-6.75-3.88c-.82-.38-2.03-.36-2.79.08l-6.27,3.62c-.49.28-.68.66-.59,1.03l17.06,10.2,13.71,8.41,9.71-5.63-24.07-13.83Z"/><path class="cls-15" d="m217.02,155.99v44.83c.31,0,.61-.08.85-.21.25-.14.37-.33.37-.51h0v-43.43l-1.22-.68Z"/><polygon class="cls-14" points="229.29 150.86 229.29 150.32 229.12 150.32 229.07 150.69 229.29 150.86"/><polygon class="cls-14" points="218.24 157.24 218.24 156.68 218.08 156.92 218.24 157.24"/><path class="cls-9" d="m216.06,157.19l-30.89-17.83c-1.82-1.05-1.82-2.76,0-3.81l6.27-3.62c1.82-1.05,4.77-1.05,6.59,0l30.89,17.83c.5.29.5.76,0,1.04s-1.31.29-1.81,0l-30.89-17.83c-.82-.47-2.15-.47-2.97,0l-6.27,3.62c-.82.47-.82,1.24,0,1.72l30.89,17.83c.5.29.5.76,0,1.04s-1.31.29-1.81,0Z"/><polygon class="cls-14" points="208.01 177.75 191.96 168.48 191.96 152.39 208.01 161.66 208.01 177.75"/><path class="cls-14" d="m228.92,150.81c-.5.29-1.31.29-1.81,0l-30.89-17.83c-.82-.47-2.15-.47-2.97,0l-6.27,3.62c-.54.31-.72.75-.55,1.14.09-.21.27-.41.55-.57l6.27-3.62c.82-.47,2.15-.47,2.97,0l30.89,17.83c.5.29,1.31.29,1.81,0,.38-.22.47-.54.27-.81-.06.09-.15.17-.27.24Z"/><path class="cls-14" d="m217.87,157.19c-.5.29-1.31.29-1.81,0l-30.89-17.83c-.78-.45-1.23-1.03-1.33-1.62-.14.78.3,1.59,1.33,2.19l30.89,17.83c.5.29,1.31.29,1.81,0,.38-.22.47-.54.27-.81-.06.09-.15.17-.27.24Z"/><path class="cls-24" d="m170.97,196.69c-1.82,1.05-1.82,2.76,0,3.81l30.89,17.83c.5.29,1.31.29,1.81,0s.5-.76,0-1.04l-30.89-17.83c-.82-.47-.82-1.24,0-1.72l2.99-1.73c-.33-.5-.63-1.02-.93-1.55l-3.87,2.24Z"/><path class="cls-24" d="m214.72,210.9l-30.89-17.83c-1.82-1.05-4.77-1.05-6.59,0l-2.4,1.38c.3.53.6,1.05.93,1.55l3.27-1.89c.82-.47,2.15-.47,2.97,0l30.89,17.83c.5.29,1.31.29,1.81,0,.5-.29.5-.76,0-1.04Z"/><polygon class="cls-33" points="215.09 211.46 215.09 168.03 182.72 149.99 178.2 149.69 173.82 152.52 171.13 154.86 202.67 204.87 212.97 210.94 215.09 211.46"/><polygon class="cls-26" points="203.12 216.95 212.79 211.36 212.79 169.39 202.82 174.02 203.12 216.95"/><polygon class="cls-33" points="169.61 155.2 169.61 198.56 203.59 218 204.04 217.81 204.04 174.39 169.61 155.2"/><path class="cls-14" d="m188.72,155.56l-6.75-3.88c-.82-.38-2.03-.36-2.79.08l-6.27,3.62c-.49.28-.68.66-.59,1.03l17.06,10.2,13.71,8.41,9.71-5.63-24.07-13.83Z"/><path class="cls-24" d="m202.82,173.71v44.83c.31,0,.61-.08.85-.21.25-.14.37-.33.37-.51h0v-43.43l-1.22-.68Z"/><polygon class="cls-14" points="215.09 168.57 215.09 168.03 214.92 168.03 214.87 168.4 215.09 168.57"/><polygon class="cls-14" points="204.04 174.95 204.04 174.4 203.87 174.63 204.04 174.95"/><path class="cls-33" d="m201.86,174.9l-30.89-17.83c-1.82-1.05-1.82-2.76,0-3.81l6.27-3.62c1.82-1.05,4.77-1.05,6.59,0l30.89,17.83c.5.29.5.76,0,1.04s-1.31.29-1.81,0l-30.89-17.83c-.82-.47-2.15-.47-2.97,0l-6.27,3.62c-.82.47-.82,1.24,0,1.72l30.89,17.83c.5.29.5.76,0,1.04s-1.31.29-1.81,0Z"/><polygon class="cls-14" points="193.81 195.46 177.76 186.19 177.76 170.1 193.81 179.37 193.81 195.46"/><path class="cls-14" d="m214.72,168.52c-.5.29-1.31.29-1.81,0l-30.89-17.83c-.82-.47-2.15-.47-2.97,0l-6.27,3.62c-.54.31-.72.75-.55,1.14.09-.21.27-.41.55-.57l6.27-3.62c.82-.47,2.15-.47,2.97,0l30.89,17.83c.5.29,1.31.29,1.81,0,.38-.22.47-.54.27-.81-.06.09-.15.17-.27.24Z"/><path class="cls-14" d="m203.67,174.9c-.5.29-1.31.29-1.81,0l-30.89-17.83c-.78-.45-1.23-1.03-1.33-1.62-.14.78.3,1.59,1.33,2.19l30.89,17.83c.5.29,1.31.29,1.81,0,.38-.22.47-.54.27-.81-.06.09-.15.17-.27.24Z"/><path class="cls-9" d="m156.38,210.06c-1.82,1.05-1.82,2.76,0,3.81l30.89,17.83c.5.29,1.31.29,1.81,0s.5-.76,0-1.04l-30.89-17.83c-.82-.47-.82-1.24,0-1.72l2.99-1.73c-.33-.5-.63-1.02-.93-1.55l-3.87,2.24Z"/><path class="cls-15" d="m200.13,224.27l-30.89-17.83c-1.82-1.05-4.77-1.05-6.59,0l-2.4,1.38c.3.53.6,1.05.93,1.55l3.27-1.89c.82-.47,2.15-.47,2.97,0l30.89,17.83c.5.29,1.31.29,1.81,0,.5-.29.5-.76,0-1.04Z"/><polygon class="cls-15" points="200.5 224.83 200.5 181.4 168.13 163.36 163.61 163.06 159.23 165.89 156.54 168.23 188.08 218.24 198.38 224.31 200.5 224.83"/><polygon class="cls-34" points="188.53 230.32 198.2 224.73 198.2 182.76 188.23 187.39 188.53 230.32"/><polygon class="cls-9" points="155.02 168.57 155.02 211.93 189 231.37 189.45 231.18 189.45 187.76 155.02 168.57"/><path class="cls-14" d="m174.13,168.93l-6.75-3.88c-.82-.38-2.03-.36-2.79.08l-6.27,3.62c-.49.28-.68.66-.59,1.03l17.06,10.2,13.71,8.41,9.71-5.63-24.07-13.83Z"/><path class="cls-15" d="m188.23,187.08v44.83c.31,0,.61-.08.85-.21.25-.14.37-.33.37-.51h0v-43.43l-1.22-.68Z"/><polygon class="cls-14" points="200.5 181.94 200.5 181.4 200.33 181.4 200.27 181.77 200.5 181.94"/><polygon class="cls-14" points="189.45 188.32 189.45 187.77 189.28 188 189.45 188.32"/><path class="cls-9" d="m187.27,188.27l-30.89-17.83c-1.82-1.05-1.82-2.76,0-3.81l6.27-3.62c1.82-1.05,4.77-1.05,6.59,0l30.89,17.83c.5.29.5.76,0,1.04s-1.31.29-1.81,0l-30.89-17.83c-.82-.47-2.15-.47-2.97,0l-6.27,3.62c-.82.47-.82,1.24,0,1.72l30.89,17.83c.5.29.5.76,0,1.04s-1.31.29-1.81,0Z"/><polygon class="cls-14" points="179.22 208.83 163.17 199.56 163.17 183.47 179.22 192.74 179.22 208.83"/><path class="cls-14" d="m200.13,181.89c-.5.29-1.31.29-1.81,0l-30.89-17.83c-.82-.47-2.15-.47-2.97,0l-6.27,3.62c-.54.31-.72.75-.55,1.14.09-.21.27-.41.55-.57l6.27-3.62c.82-.47,2.15-.47,2.97,0l30.89,17.83c.5.29,1.31.29,1.81,0,.38-.22.47-.54.27-.81-.06.09-.15.17-.27.24Z"/><path class="cls-14" d="m189.08,188.27c-.5.29-1.31.29-1.81,0l-30.89-17.83c-.78-.45-1.23-1.03-1.33-1.62-.14.78.3,1.59,1.33,2.19l30.89,17.83c.5.29,1.31.29,1.81,0,.38-.22.47-.54.27-.81-.06.09-.15.17-.27.24Z"/></g><polygon class="cls-12" points="260.72 146.91 253.31 142.63 260.72 138.36 268.12 142.63 260.72 146.91"/><polygon class="cls-4" points="268.12 137.21 260.72 141.48 260.72 132.93 268.12 128.66 268.12 137.21"/><polygon class="cls-30" points="260.72 132.93 253.31 128.66 260.72 124.39 268.12 128.66 260.72 132.93"/><polygon class="cls-30" points="260.72 141.48 253.31 137.21 253.31 128.66 260.72 132.93 260.72 141.48"/><polygon class="cls-14" points="258.05 136.86 255.98 135.67 255.98 133.28 258.05 134.47 258.05 136.86"/><polygon class="cls-12" points="72.64 190.49 64.94 186.04 72.64 181.59 80.35 186.04 72.64 190.49"/><polygon class="cls-33" points="80.35 180.39 72.64 184.84 72.64 175.94 80.35 171.49 80.35 180.39"/><polygon class="cls-24" points="72.64 175.94 64.94 171.49 72.64 167.05 80.35 171.49 72.64 175.94"/><polygon class="cls-26" points="72.64 184.84 64.94 180.39 64.94 171.49 72.64 175.94 72.64 184.84"/><polygon class="cls-14" points="69.87 180.04 67.71 178.79 67.71 176.3 69.87 177.55 69.87 180.04"/><path class="cls-4" d="m182.35,109.84l-19.26-11.12c-.38-.22-.73-.23-1-.08,0,0,0-.01,0-.01l-1.87,1.08s.83.3,1.31.48v14.02c0,1.14.69,2.47,1.55,2.96l18.41,10.63v1.65l1.89-1.09h-.01c.32-.2.52-.62.52-1.24v-14.32c0-1.14-.69-2.47-1.55-2.96Z"/><path class="cls-4" d="m180.45,129.38l-19.26-11.12c-.86-.49-1.55-1.82-1.55-2.96v-14.32c0-1.14.69-1.67,1.55-1.17l19.26,11.12c.86.49,1.55,1.82,1.55,2.96v14.32c0,1.14-.69,1.67-1.55,1.17Z"/><path class="cls-14" d="m180.92,110.59l-19.26-11.12c-.54-.31-1.02-.22-1.29.19.24-.06.52-.02.82.15l19.26,11.12c.86.49,1.55,1.82,1.55,2.96v14.32c0,.42-.09.75-.26.98.44-.11.73-.59.73-1.33v-14.32c0-1.14-.69-2.47-1.55-2.96Z"/><path class="cls-14" d="m167.67,113.33c0,.83-.58,1.16-1.3.75s-1.3-1.42-1.3-2.25.58-1.16,1.3-.75,1.3,1.42,1.3,2.25Z"/><path class="cls-14" d="m171.6,115.6c0,.83-.58,1.16-1.3.75s-1.3-1.42-1.3-2.25.58-1.16,1.3-.75,1.3,1.42,1.3,2.25Z"/><path class="cls-14" d="m175.54,117.87c0,.83-.58,1.16-1.3.75s-1.3-1.42-1.3-2.25.58-1.16,1.3-.75,1.3,1.42,1.3,2.25Z"/><circle class="cls-4" cx="84.62" cy="342.17" r="11.25"/><circle class="cls-26" cx="51.68" cy="114.2" r="6.65"/><path class="cls-1" d="m106.27,28.04h-1.79v-1.84h5.52v1.84h-1.79v6.01h-1.93v-6.01Z"/><path class="cls-1" d="m114.91,34.05h-1.66v-.49c-.31.38-.75.65-1.44.65-.79,0-1.62-.56-1.62-1.68v-3.86h1.84v3.4c0,.3.16.44.43.44s.47-.17.61-.38v-3.45h1.84v5.38Zm-4.46-6.88c0-.52.42-.93.93-.93s.93.42.93.93-.41.93-.93.93-.93-.42-.93-.93Zm2.28,0c0-.52.42-.93.93-.93s.93.42.93.93-.42.93-.93.93-.93-.42-.93-.93Z"/><path class="cls-1" d="m115.9,26.2h2.92c1.51,0,2.77.86,2.77,2.65,0,1.12-.45,1.91-1.21,2.31l1.47,2.89h-2.1l-1.25-2.56h-.66v2.56h-1.94v-7.85Zm2.84,3.57c.55,0,.91-.31.91-.89s-.36-.89-.91-.89h-.9v1.77h.9Z"/><path class="cls-1" d="m122.49,26.2h1.94v3.07h.48l1.29-3.07h2.24l-1.85,3.93,1.92,3.93h-2.24l-1.35-3.06h-.49v3.06h-1.94v-7.85Z"/><path class="cls-1" d="m128.78,27c0-.7.49-.99,1.04-.99s1.03.29,1.03.99-.48,1.01-1.03,1.01-1.04-.31-1.04-1.01Zm.12,1.67h1.84v5.38h-1.84v-5.38Z"/><path class="cls-1" d="m133.52,31.08l-2.34-4.88h2.11l1.2,2.95,1.19-2.95h2.12l-2.34,4.88v2.97h-1.93v-2.97Z"/><path class="cls-1" d="m138.32,26.2h4.63v1.73h-2.69v1.33h2.43v1.68h-2.43v1.36h2.76v1.75h-4.7v-7.85Z"/><path class="cls-1" d="m145.64,26.2h1.67l1.85,3.5,1.85-3.5h1.67v7.85h-1.9v-2.32c0-.75.07-1.48.19-2.22l-1.48,2.83h-.66l-1.48-2.83c.12.74.18,1.47.18,2.22v2.32h-1.9v-7.85Z"/><path class="cls-1" d="m155.68,26.2h1.95l2.49,7.85h-2.02l-.33-1.18h-2.23l-.33,1.18h-2.03l2.49-7.85Zm1.69,5.08l-.37-1.35c-.13-.52-.26-1.07-.35-1.69-.09.63-.2,1.18-.34,1.69l-.38,1.35h1.44Z"/><path class="cls-1" d="m162.52,26.2h1.95l2.49,7.85h-2.02l-.33-1.18h-2.23l-.33,1.18h-2.03l2.49-7.85Zm1.69,5.08l-.37-1.35c-.13-.52-.26-1.07-.35-1.69-.09.63-.2,1.18-.34,1.69l-.38,1.35h1.44Z"/><path class="cls-1" d="m167.47,26.2h2.92c1.51,0,2.77.86,2.77,2.65,0,1.12-.45,1.91-1.21,2.31l1.47,2.89h-2.1l-1.25-2.56h-.66v2.56h-1.94v-7.85Zm2.84,3.57c.55,0,.91-.31.91-.89s-.36-.89-.91-.89h-.9v1.77h.9Z"/><path class="cls-1" d="m173.83,27c0-.7.49-.99,1.04-.99s1.03.29,1.03.99-.48,1.01-1.03,1.01-1.04-.31-1.04-1.01Zm.12,1.67h1.84v5.38h-1.84v-5.38Z"/><path class="cls-1" d="m181.48,28.04h-2.76v1.44h2.54v1.84h-2.54v2.74h-1.94v-7.85h4.7v1.84Z"/><path class="cls-1" d="m183.25,26.2h2.06l1,4.12c.11.5.2,1.04.29,1.68.08-.64.17-1.18.28-1.68l1-4.12h2.06l-2.29,7.85h-2.12l-2.29-7.85Z"/><path class="cls-1" d="m191.66,26.2h1.95l2.49,7.85h-2.02l-.33-1.18h-2.23l-.33,1.18h-2.03l2.49-7.85Zm1.69,5.08l-.37-1.35c-.13-.52-.26-1.07-.35-1.69-.09.63-.2,1.18-.34,1.69l-.38,1.35h1.44Z"/><path class="cls-1" d="m196.61,26.2h1.94v3.07h.48l1.29-3.07h2.24l-1.85,3.93,1.92,3.93h-2.24l-1.35-3.06h-.49v3.06h-1.94v-7.85Z"/><path class="cls-1" d="m207.83,28.04h-2.76v1.44h2.54v1.84h-2.54v2.74h-1.94v-7.85h4.7v1.84Z"/><path class="cls-1" d="m210.61,34.05h-1.94v-7.85h1.94v7.85Z"/><path class="cls-1" d="m89.22,37.75l-2.77,2.77-3.49-3.5,3.49-3.5,1.07,1.07-2.43,2.43,1.36,1.36,2.01-2.01v-3.61l-1.98-1.98h-3.63l-2.01,2.01,1.36,1.36,2.42-2.43,1.07,1.07-3.49,3.5-3.49-3.5,2.77-2.77-2.77-2.77,3.49-3.5,3.49,3.5-1.07,1.07-2.42-2.43-1.36,1.36,2.01,2.01h3.63l1.98-1.98v-3.62l-2.01-2.01-1.36,1.36,2.43,2.43-1.07,1.07-3.49-3.5,3.49-3.5,2.77,2.77,2.77-2.77,3.49,3.5-3.49,3.5-1.07-1.07,2.43-2.43-1.36-1.36-2.01,2.01v3.62l1.98,1.98h3.61l2.01-2.01-1.36-1.36-2.43,2.43-1.07-1.07,3.49-3.5,3.5,3.5-2.77,2.77,2.77,2.77-3.5,3.5-3.49-3.5,1.07-1.07,2.42,2.43,1.36-1.36-2.01-2.01h-3.61l-1.98,1.98v3.61l2.01,2.01,1.36-1.36-2.43-2.43,1.07-1.07,3.49,3.5-3.49,3.5-2.77-2.77Zm0-6.38l1.35-1.35-1.35-1.35-1.35,1.35,1.35,1.35Z"/></g></g></svg>