<?xml version="1.0" encoding="UTF-8"?>
<svg xmlns="http://www.w3.org/2000/svg" version="1.1" xmlns:xlink="http://www.w3.org/1999/xlink" viewBox="0 0 286.9 396.3">
  <!-- Generator: Adobe Illustrator 29.0.1, SVG Export Plug-In . SVG Version: 2.1.0 Build 192)  -->
  <defs>
    <style>
      .st0, .st1, .st2, .st3 {
        isolation: isolate;
      }

      .st0, .st1, .st3, .st4 {
        opacity: .5;
      }

      .st0, .st5 {
        fill: #203e79;
      }

      .st6 {
        fill: url(#linear-gradient2);
      }

      .st1 {
        fill: url(#linear-gradient1);
      }

      .st1, .st3 {
        mix-blend-mode: multiply;
      }

      .st7 {
        fill: #efbbca;
      }

      .st8 {
        fill: #7ab0df;
      }

      .st9 {
        fill: #fff;
      }

      .st10 {
        fill: #870830;
      }

      .st11 {
        fill: #f89f60;
      }

      .st12 {
        fill: #cbe5f6;
      }

      .st13 {
        fill: none;
      }

      .st14 {
        fill: #3a6daa;
      }

      .st15 {
        clip-path: url(#clippath-1);
      }

      .st16 {
        fill: #7e56a2;
      }

      .st17 {
        fill: #d37a43;
      }

      .st18 {
        fill: #d3e9f8;
      }

      .st19 {
        fill: #5692cd;
      }

      .st20 {
        fill: #e6a223;
      }

      .st21 {
        fill: #e13262;
      }

      .st22 {
        fill: url(#linear-gradient4);
      }

      .st23 {
        opacity: .3;
      }

      .st24 {
        fill: url(#linear-gradient3);
      }

      .st25 {
        fill: #115dab;
      }

      .st3 {
        fill: url(#linear-gradient);
      }

      .st26 {
        clip-path: url(#clippath-2);
      }

      .st27 {
        fill: #fefefe;
      }

      .st28 {
        clip-path: url(#clippath);
      }
    </style>
    <clipPath id="clippath">
      <polygon class="st13" points="155 180.5 188.2 198.9 232.1 173.7 237.4 184.6 168.2 224.5 142.8 211.5 155 180.5"/>
    </clipPath>
    <clipPath id="clippath-1">
      <polygon class="st13" points="151.8 178.7 188.2 198.9 238.8 169.8 239.6 126.1 205.9 120.6 153.2 157.3 151.8 178.7"/>
    </clipPath>
    <linearGradient id="linear-gradient" x1="-199.8" y1="-780.4" x2="-275.2" y2="-649.7" gradientTransform="translate(395.8 -519) rotate(-.2) scale(1.1 -1.1) skewX(.4)" gradientUnits="userSpaceOnUse">
      <stop offset="0" stop-color="#fff"/>
      <stop offset=".3" stop-color="#60a1d7"/>
    </linearGradient>
    <linearGradient id="linear-gradient1" x1="-17" y1="-1144.2" x2="-90.3" y2="-1017.1" gradientTransform="translate(183.7 -689.5) rotate(-1.5) scale(1 -.9) skewX(2.9)" gradientUnits="userSpaceOnUse">
      <stop offset="0" stop-color="#fff"/>
      <stop offset=".3" stop-color="#60a1d7"/>
    </linearGradient>
    <linearGradient id="linear-gradient2" x1="33.6" y1="-835.9" x2="133.2" y2="-835.9" gradientTransform="translate(0 -604) scale(1 -1)" gradientUnits="userSpaceOnUse">
      <stop offset="0" stop-color="#1b75bb"/>
      <stop offset="1" stop-color="#a4c6e8"/>
    </linearGradient>
    <linearGradient id="linear-gradient3" x1="123.4" y1="-881.3" x2="198.6" y2="-881.3" gradientTransform="translate(0 -604) scale(1 -1)" gradientUnits="userSpaceOnUse">
      <stop offset="0" stop-color="#1b75bb"/>
      <stop offset="1" stop-color="#a4c6e8"/>
    </linearGradient>
    <linearGradient id="linear-gradient4" x1="24.3" y1="-879" x2="143.5" y2="-879" gradientTransform="translate(0 -604) scale(1 -1)" gradientUnits="userSpaceOnUse">
      <stop offset="0" stop-color="#1b75bb"/>
      <stop offset="1" stop-color="#a4c6e8"/>
    </linearGradient>
    <clipPath id="clippath-2">
      <polygon class="st13" points="-2.8 231.9 52.6 199.6 203.1 286.5 147.6 318.7 -2.8 231.9"/>
    </clipPath>
  </defs>
  <g class="st2">
    <g id="Layer_1">
      <rect class="st25" width="242.1" height="396.7"/>
      <path class="st5" d="M72.3,0H0v72.1h0c3.4.6,6.9.9,10.5.9,34.2,0,61.8-27.7,61.8-61.8"/>
      <path class="st17" d="M27.9,396.3c10.5-8.3,17.2-21,17.2-35.4,0-24.9-20.2-45.1-45.1-45.1v80.5h27.9Z"/>
      <path class="st0" d="M269.8,180l-48-27.8c-2.6-1.5-7.2-1.3-10.2.4l-100.7,58c-3,1.7-3.3,4.4-.7,5.9l48,27.8c2.6,1.5,7.2,1.3,10.2-.4l100.7-58c3-1.7,3.4-4.4.7-5.9Z"/>
      <path class="st14" d="M156.7,233.9l-49.9-28.9c-1.6-.9-2.4-2.2-2.3-3.6h0v-7.2l2.8,3.2c.2-.1.4-.2.6-.4l102.2-58.8c4.1-2.3,10.2-2.6,13.7-.6l49.3,28.5c1-1.1,3.1-3.4,3.1-3.4v7.1h0c0,1.6-1.1,3.3-3.4,4.6l-102.2,58.8c-4.1,2.3-10.2,2.6-13.7.6h-.2Z"/>
      <path class="st5" d="M129.7,216.2l2.9,1.7c.4.2.7,0,.7-.5h0c0-.5-.3-1.1-.7-1.3l-2.9-1.7c-.4-.2-.7,0-.7.5h0c0,.5.3,1.1.7,1.3Z"/>
      <path class="st19" d="M209.9,138.3c4.1-2.3,10.2-2.6,13.7-.6l49.3,28.5c1-1.1,3.1-3.4,3.1-3.4v7.1h0c0,1.6-1.1,3.3-3.4,4.6l-102.2,58.8c-2.1,1.2-4.8,1.9-7.4,1.9v-70.1c.1,0,46.9-26.9,46.9-26.9h0Z"/>
      <path class="st18" d="M273.6,159.4l-49.9-28.9c-3.5-2-9.6-1.8-13.7.6l-102.2,58.8c-4.1,2.3-4.5,5.9-1,7.9l50,28.9c3.5,2,9.6,1.8,13.7-.6l102.2-58.8c4.1-2.3,4.5-5.9,1-7.9h-.1Z"/>
      <path class="st9" d="M156.7,227.4l-49.9-28.9c-1.8-1.1-2.6-2.5-2.3-4,0,1.2.9,2.3,2.3,3.2l50,28.9c3.5,2,9.6,1.8,13.7-.6l102.2-58.8c2-1.1,3.1-2.5,3.3-3.9.1,1.6-1,3.4-3.3,4.7l-102.2,58.8c-4.1,2.3-10.2,2.6-13.7.6h0Z"/>
      <path class="st5" d="M269.8,160.5l-48-27.8c-2.6-1.5-7.2-1.3-10.2.4l-100.7,58c-3,1.7-3.3,4.4-.7,5.9l48,27.8c2.6,1.5,7.2,1.3,10.2-.4l100.7-58c3-1.7,3.4-4.4.7-5.9Z"/>
      <polygon class="st18" points="170.2 210.4 136.3 190.8 138.5 189.6 172.4 209.1 170.2 210.4"/>
      <polygon class="st18" points="146.6 204.7 129.5 194.8 131.6 193.5 148.8 203.4 146.6 204.7"/>
      <polygon class="st17" points="154.9 209.5 149.4 206.2 151.6 205 157.1 208.2 154.9 209.5"/>
      <polygon class="st9" points="163.4 214.3 157.8 211.1 159.9 209.9 165.5 213.1 163.4 214.3"/>
      <polygon class="st9" points="146.8 200.8 132.9 192.8 135.1 191.5 149 199.6 146.8 200.8"/>
      <polygon class="st18" points="163.8 210.6 149.9 202.6 152.1 201.3 166 209.4 163.8 210.6"/>
      <path class="st21" d="M153.5,193.4c-.7.4-1.8.4-2.5,0s-.7-1.1,0-1.5,1.8-.4,2.5,0,.7,1.1,0,1.5Z"/>
      <path class="st9" d="M157.3,195.6c-.7.4-1.8.4-2.5,0s-.7-1.1,0-1.5,1.8-.4,2.5,0,.7,1.1,0,1.5Z"/>
      <path class="st18" d="M161,197.8c-.7.4-1.8.4-2.5,0s-.7-1.1,0-1.5,1.8-.4,2.5,0,.7,1.1,0,1.5Z"/>
      <path class="st11" d="M164.8,200c-.7.4-1.8.4-2.5,0s-.7-1.1,0-1.5,1.8-.4,2.5,0,.7,1.1,0,1.5Z"/>
      <path class="st9" d="M168.6,202.1c-.7.4-1.8.4-2.5,0s-.7-1.1,0-1.5,1.8-.4,2.5,0,.7,1.1,0,1.5Z"/>
      <polygon class="st21" points="244.3 160.8 238.6 157.5 240.9 156.2 246.6 159.5 244.3 160.8"/>
      <polygon class="st9" points="252.3 165.3 246.6 162 248.8 160.8 254.5 164.1 252.3 165.3"/>
      <polygon class="st9" points="218.9 145.9 213.2 142.6 215.4 141.3 221.1 144.6 218.9 145.9"/>
      <polygon class="st9" points="243.1 164.1 235.1 159.5 237.3 158.2 245.3 162.8 243.1 164.1"/>
      <polygon class="st18" points="248.8 167.4 245.3 165.4 247.5 164.1 251 166.1 248.8 167.4"/>
      <path class="st0" d="M203.2,241.9l19.9-11.5c1.6-.9,4.1-1,6.2-.2l5.5-3.2c-5.1-3.8-5.6-9.1-1.4-13.1.8,1.2,2,2.2,3.7,3.2,6.6,3.8,17.3,3.8,23.8,0,2.6-1.5,4.1-3.3,4.7-5.2,7.5,4.6,7.4,11.8-.4,16.3-7.7,4.4-20,4.6-28,.4l-5.5,3.2c.9,1.1.7,2.4-.7,3.2l-19.9,11.5c-1.9,1.1-5.2.9-7.3-.3s-2.4-3.1-.5-4.2h-.1Z"/>
      <g class="st4">
        <path class="st18" d="M260.8,205.8c-6.6-3.8-17.3-3.8-23.8,0-2.7,1.6-4.3,3.6-4.8,5.6.4,1.8,1.7,3.6,3.9,5,.5-.4,1.1-.9,1.8-1.3,6.6-3.8,17.3-3.8,23.8,0,.3.2.6.4.9.6,1.6-1.3,2.6-2.8,3-4.4-.5-2.1-2.1-4-4.8-5.6h0Z"/>
        <path class="st17" d="M260.8,205.8c-7.1-3.8-16.2-3.8-23.3,0-2.3,1.2-4.5,3.1-5.1,5.8.4,1.6,2.1,3.7,3.8,4.8h-.3c7.4-5.4,19.1-5.4,26.8-.5,1-.9,2.6-2.6,2.9-4.3-.6-2.5-2.6-4.4-4.8-5.6h0v-.2ZM260.8,205.8c2.2,1.2,4.2,3.1,4.8,5.6-.4,1.7-1.6,3.4-3,4.4-7.6-4.7-19.2-4.5-26.4.8h-.2c-1.9-1.1-3.6-2.9-4.1-5.2,3-9.9,21.4-10.2,28.9-5.6h0Z"/>
      </g>
      <path class="st25" d="M231.8,214.5l2.6-3.4,7.8-3.6,6.7-.6,7.9,1,5.5,2.8,3.5,2.2.6-3.6-1.2-4.2s-3-2-3.2-2.2-7-2.6-7-2.6l-6.8-.5-5.5.7-5.6,1.6-3.7,2.6-2.8,3.5-.3,4.4,1.3,1.8h.2Z"/>
      <path class="st17" d="M231.8,214.5l2.5-3.4,7.8-3.7s6.7-.6,6.8-.6c0,0,7.9.9,8,.9l5.5,2.8,3.5,2.2h-.3c0,.1.6-3.5.6-3.5h0c0,.1-1.2-4.1-1.2-4.1h.1c-.8-.4-2.7-1.8-3.5-2.2l-1.3-.5-5.3-2h0l-6.8-.5c.2,0-5.5.7-5.4.7.2,0-5.7,1.7-5.5,1.6,0,0-3.8,2.6-3.7,2.5,0,0-2.9,3.6-2.8,3.4,0,0-.4,4.4-.4,4.3l1.3,1.9h0v.2h0ZM231.8,214.5s-1.3-1.8-1.4-1.8l.3-4.4h0l2.7-3.6,3.7-2.6h0l5.6-1.7,5.5-.7,6.8.4h0l5.3,1.9c.5.2,1.6.5,2,.9.5.3,2.5,1.7,3,2h0l1.2,4.3h0c0,.1-.6,3.7-.6,3.7v.3l-.3-.2s-3.5-2.3-3.5-2.2l-5.5-2.8c.4,0-8-1-7.8-1,0,0-6.9.6-6.7.6,0,0-7.9,3.6-7.8,3.5l-2.6,3.3h0Z"/>
      <polygon class="st25" points="268.3 210.2 268.3 217.2 266.4 214.2 268.3 210.2"/>
      <path class="st17" d="M268.3,210.2c0,2.6.3,5.3.3,7.9-.8-1.3-1.6-2.6-2.4-3.9.7-1.4,1.5-2.7,2.1-4h0ZM268.3,210.2c-.6,1.4-1.1,2.7-1.7,4.1v-.2c.6,1,1.3,2,1.9,3.1h-.5c0-2.2.2-4.5.2-6.9h.1Z"/>
      <path class="st25" d="M237,210.5c6.6-3.8,17.3-3.8,23.8,0,2.1,1.2,3.5,2.6,4.3,4.1.6-.5,1.3-.9,1.6-1.6-.9-1.3-2.3-2.5-4.1-3.5-7.6-4.4-19.8-4.4-27.4,0-1.6.9-2.9,2-3.9,3.2.3.7.8,1.4,1.4,2,.8-1.5,2.2-2.9,4.3-4.1h0Z"/>
      <path class="st17" d="M237,210.5c7.7-4.4,23.2-4.3,28.3,4h-.3c.6-.6,1.3-1,1.6-1.6v.2c-4.1-5.1-11.2-6.5-17.4-6.7-6.3,0-13.4,1.3-17.7,6.3.3.6.8,1.4,1.4,1.9.8-1.7,2.6-3.2,4.2-4.1h-.1ZM237,210.5c-1.8,1-3.3,2.5-4.3,4.2-.6-.6-1.1-1.2-1.4-2,4.3-5,11.4-6.5,17.8-6.6,6.4.1,13.6,1.6,17.8,6.9h0c-.4,1.1-1.3,1.5-2,2.1v-.2c-5.1-8.3-20.3-8.6-28-4.2h0v-.2h.1Z"/>
      <g class="st4">
        <path class="st18" d="M260.8,205.8c-6.6-3.8-17.3-3.8-23.8,0-2.7,1.6-4.3,3.6-4.8,5.6.5,2.1,2.1,4,4.8,5.6,6.6,3.8,17.3,3.8,23.8,0,2.7-1.6,4.3-3.6,4.8-5.6-.5-2.1-2.1-4-4.8-5.6Z"/>
        <path class="st17" d="M260.8,205.8c-4.7-2.6-10.4-3.2-15.7-2.5-5,.8-11.2,2.8-12.7,8.2.7,2.8,3.9,5.3,6.8,6.4,6.1,2.4,13.2,2.5,19.4.1,3-1.2,6.1-3.2,7-6.6-.6-2.4-2.6-4.4-4.8-5.6h0ZM260.8,205.8c2.2,1.2,4.2,3.1,4.8,5.6-.8,3.3-3.9,5.5-6.9,6.8-6.2,2.5-13.4,2.6-19.6.1-3.1-1.2-6.3-3.4-7.1-6.9.3-1.4,1.1-2.6,2.1-3.6,6.8-6.2,19-6.2,26.8-2h0Z"/>
      </g>
      <path class="st25" d="M266.7,213c-.1.3-.3.5-.6.8h0l-1.8,1-2.1,2-3,1.3-4.1,1.5-3.6.9-5,.2-3.2-.3-6.4-1.7-4.2-3.7s0-.1.1-.2c-.6-.6-1.1-1.3-1.4-2-.1.1-.2.3-.3.4l-1.5-3.1v7.3h0c0,2.9,1.9,5.7,5.7,7.9,7.6,4.4,19.8,4.4,27.4,0,5.7-3.3,7.1-8.2,4.1-12.3h-.1Z"/>
      <path class="st17" d="M266.7,213c-.1.3-.4.6-.6.8h0l-1.7,1.1-2.1,2s-3,1.3-3,1.4l-4.1,1.5-3.6.9s-5,.2-5.1.2c0,0-3.2-.3-3.3-.3h0l-6.4-1.7h0l-4.2-3.7h-.1v-.4c.1,0,.1.2.1.2-.6-.6-1.1-1.3-1.4-2h.4l-.3.5-.2.3v-.3c-.1,0-1.6-3.1-1.6-3.1h.4c0-.1,0,7.2,0,7.2h-.5c0-.1.5-1,.5-1-.5,5,4.1,8.5,8.4,10.1,8.2,3,18.2,2.7,25.6-2.1,3.9-2.5,6-7.4,2.9-11.4h0v-.2h0ZM266.7,213c3.2,4,1.1,9-2.8,11.6-7.5,4.9-17.6,5.2-25.9,2.3-4.1-1.6-8.6-4.6-8.7-9.5h.5c0,.1-.5,1-.5,1v-9.3l.4.9,1.5,3.1h-.4l.3-.5.2-.3v.3c.5.8,1,1.4,1.6,2,0,0-.1.3-.2.4v-.2l4.1,3.7c-.4-.2,6.4,1.7,6.4,1.7-.1,0,3.3.4,3.2.3,0,0,5.1-.2,5-.2s3.7-.9,3.6-.8l4.1-1.4,3-1.3,2.2-2,1.8-1h0c.2-.1.5-.4.6-.7h0Z"/>
      <path class="st25" d="M234.1,216.2l-1.5-1.3s0-.1.1-.2c-.6-.6-1.1-1.3-1.4-2-.1.1-.2.3-.3.4l-1.5-3.1v7.3h0c0,2.6,1.5,5.1,4.6,7.2v-8.4h0Z"/>
      <path class="st17" d="M234.1,216.2l-1.6-1.3h0s0-.3.1-.3h0c-.6-.5-1.1-1.1-1.5-1.9h.2c0,.2-.4.5-.4.6v-.2c-.1,0-1.6-3-1.6-3h.4v7.3h-.5c0-.1.5-1,.5-1v1c0,3,2.1,5.4,4.4,7.1l-.3.2c0-2.8.1-5.6.2-8.4h.1ZM234.1,216.2c0,2.9.2,5.8.2,8.8-2.6-1.6-5-4.3-5-7.6h.5c0,.1-.5,1-.5,1v-9.2l.4.8,1.4,3.1h-.2l.3-.4v-.2c.5.8.9,1.6,1.6,2.2,0,0-.1.2-.1.3h0l1.5,1.3h0Z"/>
      <path class="st25" d="M262.6,202.3c-7.6-4.4-19.8-4.4-27.4,0s-7.6,11.4,0,15.8,19.8,4.4,27.4,0c7.6-4.4,7.6-11.4,0-15.8ZM260.8,217c-6.6,3.8-17.3,3.8-23.8,0s-6.6-10,0-13.8,17.3-3.8,23.8,0c6.6,3.8,6.6,10,0,13.8Z"/>
      <path class="st17" d="M262.6,202.3c-8.6-4.6-20.9-4.4-29,1.3-6.1,4.5-4.5,11,1.7,14.3,7.1,3.9,15.9,4.2,23.5,1.8,9.3-2.9,13.5-11.6,3.7-17.3h.1ZM262.6,202.3c9.9,5.7,5.7,14.5-3.6,17.6-7.7,2.6-16.6,2.3-23.9-1.6-9.9-5.9-5.7-14.8,3.8-17.8,7.7-2.5,16.6-2.1,23.7,1.8h0Z"/>
      <path class="st17" d="M260.8,217c-6.2,3.4-14,3.7-20.7,1.6-4-1.4-8.9-4.5-8.2-9.4,2.3-9.5,18.1-10.4,25.7-7.5,8.1,2.7,11.8,10.3,3.2,15.3h0ZM260.8,217c8.5-5,4.8-12.5-3.2-15.1-7.3-2.7-22.9-1.6-25.2,7.3-.6,4.6,4.1,7.7,7.9,9.1,6.6,2.2,14.4,2,20.6-1.3h0Z"/>
      <polygon class="st18" points="222.6 226.1 233.3 219.8 234.7 222.1 223.9 228.4 222.6 226.1"/>
      <path class="st17" d="M222.6,226.1c3.1-1.9,7.4-4.6,10.6-6.4h.2c0-.1.1,0,.1,0l1.4,2.3v.2c.1,0,0,.1,0,.1-3.6,2.1-7.2,4.2-10.9,6.2h0l-1.3-2.5h-.1ZM222.6,226.1l1.4,2.3c2.9-2.1,7.2-4.4,10.6-6.4v.4l-1.5-2.3h.3c-3.1,1.9-7.7,4.4-10.8,6.1h0Z"/>
      <path class="st16" d="M224.2,227.8c0,.6-.4.9-1,.6s-1-1.1-1-1.7.4-.9,1-.6c.5.3,1,1.1,1,1.7Z"/>
      <path class="st17" d="M224.2,227.8c0,.8-.8.9-1.3.5-.7-.4-1.5-2.1-.3-2.5,1,0,1.5,1.2,1.6,2h0ZM224.2,227.8c0-.7-.7-1.7-1.5-1.6-.5.4,0,1.4.4,1.9s1.1.5,1.1-.3h0Z"/>
      <path class="st16" d="M224.2,227.8c0,.6-.4.9-1,.6s-1-1.1-1-1.7.4-.9,1-.6c.5.3,1,1.1,1,1.7Z"/>
      <path class="st17" d="M224.2,227.8c0,.8-.8.9-1.3.5-.7-.4-1.5-2.1-.3-2.5,1,0,1.5,1.2,1.6,2h0ZM224.2,227.8c0-.7-.7-1.7-1.5-1.6-.5.4,0,1.4.4,1.9s1.1.5,1.1-.3h0Z"/>
      <path class="st18" d="M234.9,221.6c0,.6-.4.9-1,.6-.5-.3-1-1.1-1-1.7s.4-.9,1-.6c.5.3,1,1.1,1,1.7Z"/>
      <path class="st17" d="M234.9,221.6c0,.8-.8.9-1.3.5-.7-.4-1.5-2.1-.3-2.5,1,0,1.5,1.2,1.6,2h0ZM234.9,221.6c0-.7-.7-1.7-1.5-1.6-.5.4,0,1.4.4,1.9s1.1.5,1.1-.3h0Z"/>
      <path class="st19" d="M229.5,228.2c0-2.6-1.9-5.9-4.1-7.2-1.2-.7-2.2-.7-3-.2h0l-22.7,13.2,5.9,10.1,22.4-13.1c.1,0,.3-.1.4-.2h0c.6-.5,1-1.3,1-2.5h.1Z"/>
      <path class="st17" d="M229.5,228.2c0-3.2-3.6-8.9-7.2-7.4-7.2,4.4-15.1,9-22.5,13.4v-.3l6,10.1h-.3c7.5-4.4,15.1-8.6,22.5-13,1-.4,1.4-1.7,1.4-2.8h.1ZM229.5,228.2c0,.9-.3,2-1,2.5-7.6,4.4-15.2,9-22.8,13.5h-.2c0,.1-.1,0-.1,0l-5.9-10.1v-.2c-.1,0,0-.1,0-.1,7.6-4.3,15.3-8.8,22.8-13,3.3-1.7,7.2,4.3,7.1,7.4h0Z"/>
      <path class="st18" d="M201.3,236.8l25.4-14.6c-.4-.4-.9-.8-1.4-1.1-1.2-.7-2.2-.7-3-.2h0l-22.7,13.2,1.6,2.8h0Z"/>
      <path class="st17" d="M201.3,236.8c7.4-4.4,17.9-10.6,25.3-14.9v.4c-1.1-1-2.7-2.1-4.1-1.3h-.2c0,.1-.1,0-.1,0h.3c-6.7,3.9-16.1,9.4-22.8,13.1h0l1.6,2.8h0ZM201.3,236.8l-1.7-2.8h0c6.5-3.9,15.9-9.5,22.6-13.4h.2c0-.1.1,0,.1,0h-.3c1.8-1.1,3.7.3,4.9,1.5-7.5,4.3-18.1,10.3-25.8,14.6h0Z"/>
      <ellipse class="st18" cx="202.7" cy="239.1" rx="3.4" ry="5.9" transform="translate(-92.4 133.4) rotate(-30)"/>
      <path class="st17" d="M206.8,241.4c0,3.4-3,3.7-5.2,1.8-1.9-1.6-3.2-4-3.3-6.6,0-3.6,3.2-4,5.5-1.8,1.8,1.7,3,4.1,3.1,6.6h-.1ZM206.8,241.4c0-3.2-2.9-7.8-6.4-7.5-1.2.3-1.6,1.6-1.6,2.7,0,2.4,1.2,4.7,3,6.4,2.1,2,5,1.8,5.1-1.6h-.1Z"/>
      <path class="st19" d="M203.4,240.2c0,1.5-1.2,2.7-2.7,2.7s-2.7-1.2-2.7-2.7,1.2-2.7,2.7-2.7,2.7,1.2,2.7,2.7Z"/>
      <path class="st17" d="M203.4,240.2c0,3.7-5.5,3.8-5.6,0,.1-3.8,5.6-3.7,5.6,0h0ZM203.4,240.2c-.1-3.4-5.1-3.4-5.1,0s5,3.4,5.1,0h0Z"/>
      <path class="st9" d="M200.2,239.2c0,.4-.4.8-.8.8s-.8-.4-.8-.8.4-.8.8-.8.8.4.8.8Z"/>
      <path class="st17" d="M200.2,239.2c0,1.2-1.8,1.3-1.8,0s1.9-1.2,1.8,0h0ZM200.2,239.2c0-.9-1.4-.8-1.3,0,0,.9,1.3.9,1.3,0h0Z"/>
      <path class="st9" d="M203,234.1c-1.2-.7-2.3-.7-3.1-.2.7-.3,1.7-.2,2.8.4,2.3,1.3,4.1,4.5,4.1,7.2s-.4,2.1-1.1,2.6c.8-.4,1.4-1.4,1.4-2.8,0-2.6-1.9-5.9-4.1-7.2h0Z"/>
      <path class="st17" d="M203,234.1c-.9-.5-2.1-.8-3.1-.2h0c3.5-1.2,6.8,3.7,7.1,6.8.2,1.2,0,2.7-1.1,3.5l-.2-.4c3.2-2.1,0-8.3-2.7-9.7h0ZM203,234.1c2.8,1.5,6.4,7.9,2.9,10.1l-.2-.4c.9-.7,1-1.9.9-3.1-.3-2.9-3.2-7.8-6.6-6.8h0c.9-.7,2.2-.4,3.1.2h0Z"/>
      <path class="st9" d="M260.8,203.3c-6.6-3.8-17.3-3.8-23.8,0-3.4,2-5.1,4.6-4.9,7.2.1-2.4,1.8-4.8,4.9-6.6,6.6-3.8,17.3-3.8,23.8,0,3.1,1.8,4.8,4.2,4.9,6.6.1-2.6-1.5-5.2-4.9-7.2Z"/>
      <path class="st17" d="M260.8,203.3c-7.7-4.2-21.6-4-27.4,3.3-.8,1.1-1.3,2.5-1.2,3.9h-.4c0-1.8,1.1-3.5,2.3-4.7,6.4-5.8,17.4-6,25-2.8,3.1,1.4,6.4,3.9,6.6,7.5h-.1c.2-3.2-2.3-5.7-4.9-7.2h0ZM260.8,203.3c2.6,1.5,5.1,4,5,7.2h-.1c-.3-3.6-3.6-6-6.6-7.3-7.7-3.1-18.1-2.7-24.6,2.9-1.2,1.2-2.1,2.7-2.2,4.4h-.4c0-1.5.4-2.9,1.3-4.1,6-7.4,19.9-7.5,27.7-3.1h-.1Z"/>
      <path class="st9" d="M262.6,218.1c-7.6,4.4-19.8,4.4-27.4,0-3.6-2.1-5.5-4.8-5.7-7.6-.1,3,1.7,5.9,5.7,8.2,7.6,4.4,19.8,4.4,27.4,0,3.9-2.3,5.8-5.2,5.7-8.2-.1,2.8-2,5.5-5.7,7.6Z"/>
      <path class="st17" d="M262.6,218.1c-8.9,5-24.2,4.8-31.4-3.1-1-1.2-1.7-2.8-1.8-4.5h.4c0,2,.9,4,2.2,5.4,7.2,6.9,20.1,7.3,28.9,3.5,3.9-1.7,7.2-4.7,7.4-8.9-.2,3.4-2.9,6-5.7,7.6h0ZM262.6,218.1c2.8-1.6,5.5-4.2,5.6-7.6.6,4.1-3.7,7.6-7.2,9.2-8.8,3.9-22.2,3.6-29.3-3.4-1.4-1.5-2.4-3.6-2.3-5.7h.4c0,1.6.7,3.1,1.7,4.3,7,7.9,22.3,8.2,31.1,3.3h0Z"/>
      <g class="st23">
        <g class="st28">
          <g>
            <path class="st18" d="M185.2,188.3c-1.8,1.1-1.8,2.8,0,3.8l30.9,17.8c.5.3,1.3.3,1.8,0s.5-.8,0-1l-30.9-17.8c-.8-.5-.8-1.2,0-1.7l3-1.7c-.3-.5-.6-1-.9-1.6l-3.9,2.2h0Z"/>
            <path class="st19" d="M228.9,202.5l-30.9-17.8c-1.8-1.1-4.8-1.1-6.6,0l-2.4,1.4c.3.5.6,1.1.9,1.6l3.3-1.9c.8-.5,2.1-.5,3,0l30.9,17.8c.5.3,1.3.3,1.8,0s.5-.8,0-1h0Z"/>
            <polygon class="st19" points="229.3 203.1 229.3 159.6 196.9 141.6 192.4 141.3 188 144.1 185.3 146.4 216.9 196.5 227.2 202.5 229.3 203.1"/>
            <polygon class="st8" points="217.3 208.5 227 203 227 161 217 165.6 217.3 208.5"/>
            <polygon class="st18" points="183.8 146.8 183.8 190.1 217.8 209.6 218.2 209.4 218.2 166 183.8 146.8"/>
            <path class="st9" d="M202.9,147.1l-6.8-3.9c-.8-.4-2-.4-2.8,0l-6.3,3.6c-.5.3-.7.7-.6,1l17.1,10.2,13.7,8.4,9.7-5.6-24.1-13.8h.1Z"/>
            <path class="st19" d="M217,165.3v44.8c.3,0,.6,0,.9-.2.2-.1.4-.3.4-.5h0v-43.4l-1.2-.7h0Z"/>
            <polygon class="st9" points="229.3 160.2 229.3 159.6 229.1 159.6 229.1 160 229.3 160.2"/>
            <polygon class="st9" points="218.2 166.5 218.2 166 218.1 166.2 218.2 166.5"/>
            <path class="st18" d="M216.1,166.5l-30.9-17.8c-1.8-1.1-1.8-2.8,0-3.8l6.3-3.6c1.8-1.1,4.8-1.1,6.6,0l30.9,17.8c.5.3.5.8,0,1s-1.3.3-1.8,0l-30.9-17.8c-.8-.5-2.1-.5-3,0l-6.3,3.6c-.8.5-.8,1.2,0,1.7l30.9,17.8c.5.3.5.8,0,1s-1.3.3-1.8,0h0Z"/>
            <polygon class="st9" points="208 187.1 192 177.8 192 161.7 208 171 208 187.1"/>
            <path class="st9" d="M228.9,160.1c-.5.3-1.3.3-1.8,0l-30.9-17.8c-.8-.5-2.1-.5-3,0l-6.3,3.6c-.5.3-.7.8-.6,1.1,0-.2.3-.4.6-.6l6.3-3.6c.8-.5,2.1-.5,3,0l30.9,17.8c.5.3,1.3.3,1.8,0,.4-.2.5-.5.3-.8,0,0-.1.2-.3.2h0Z"/>
            <path class="st9" d="M217.9,166.5c-.5.3-1.3.3-1.8,0l-30.9-17.8c-.8-.4-1.2-1-1.3-1.6-.1.8.3,1.6,1.3,2.2l30.9,17.8c.5.3,1.3.3,1.8,0,.4-.2.5-.5.3-.8,0,0-.1.2-.3.2h0Z"/>
            <path class="st25" d="M171,196.7c-1.8,1.1-1.8,2.8,0,3.8l30.9,17.8c.5.3,1.3.3,1.8,0s.5-.8,0-1l-30.9-17.8c-.8-.5-.8-1.2,0-1.7l3-1.7c-.3-.5-.6-1-.9-1.6l-3.9,2.2h0Z"/>
            <path class="st25" d="M214.7,210.9l-30.9-17.8c-1.8-1.1-4.8-1.1-6.6,0l-2.4,1.4c.3.5.6,1.1.9,1.6l3.3-1.9c.8-.5,2.1-.5,3,0l30.9,17.8c.5.3,1.3.3,1.8,0s.5-.8,0-1h0Z"/>
            <polygon class="st25" points="215.1 211.5 215.1 168 182.7 150 178.2 149.7 173.8 152.5 171.1 154.9 202.7 204.9 213 210.9 215.1 211.5"/>
            <polygon class="st12" points="203.1 216.9 212.8 211.4 212.8 169.4 202.8 174 203.1 216.9"/>
            <polygon class="st25" points="169.6 155.2 169.6 198.6 203.6 218 204 217.8 204 174.4 169.6 155.2"/>
            <path class="st9" d="M188.7,155.6l-6.8-3.9c-.8-.4-2-.4-2.8,0l-6.3,3.6c-.5.3-.7.7-.6,1l17.1,10.2,13.7,8.4,9.7-5.6-24.1-13.8h.1Z"/>
            <path class="st25" d="M202.8,173.7v44.8c.3,0,.6,0,.9-.2.2-.1.4-.3.4-.5h0v-43.4l-1.2-.7h0Z"/>
            <polygon class="st9" points="215.1 168.6 215.1 168 214.9 168 214.9 168.4 215.1 168.6"/>
            <polygon class="st9" points="204 174.9 204 174.4 203.9 174.6 204 174.9"/>
            <path class="st25" d="M201.9,174.9l-30.9-17.8c-1.8-1.1-1.8-2.8,0-3.8l6.3-3.6c1.8-1.1,4.8-1.1,6.6,0l30.9,17.8c.5.3.5.8,0,1s-1.3.3-1.8,0l-30.9-17.8c-.8-.5-2.1-.5-3,0l-6.3,3.6c-.8.5-.8,1.2,0,1.7l30.9,17.8c.5.3.5.8,0,1s-1.3.3-1.8,0h0Z"/>
            <polygon class="st9" points="193.8 195.5 177.8 186.2 177.8 170.1 193.8 179.4 193.8 195.5"/>
            <path class="st9" d="M214.7,168.5c-.5.3-1.3.3-1.8,0l-30.9-17.8c-.8-.5-2.1-.5-3,0l-6.3,3.6c-.5.3-.7.8-.6,1.1,0-.2.3-.4.6-.6l6.3-3.6c.8-.5,2.1-.5,3,0l30.9,17.8c.5.3,1.3.3,1.8,0,.4-.2.5-.5.3-.8,0,0-.1.2-.3.2h0Z"/>
            <path class="st9" d="M203.7,174.9c-.5.3-1.3.3-1.8,0l-30.9-17.8c-.8-.4-1.2-1-1.3-1.6-.1.8.3,1.6,1.3,2.2l30.9,17.8c.5.3,1.3.3,1.8,0,.4-.2.5-.5.3-.8,0,0-.1.2-.3.2h0Z"/>
            <path class="st18" d="M156.4,210.8c-1.8,1.1-1.8,2.8,0,3.8l30.9,17.8c.5.3,1.3.3,1.8,0s.5-.8,0-1l-30.9-17.8c-.8-.5-.8-1.2,0-1.7l3-1.7c-.3-.5-.6-1-.9-1.6l-3.9,2.2h0Z"/>
            <path class="st19" d="M200.1,225l-30.9-17.8c-1.8-1.1-4.8-1.1-6.6,0l-2.4,1.4c.3.5.6,1.1.9,1.6l3.3-1.9c.8-.5,2.1-.5,3,0l30.9,17.8c.5.3,1.3.3,1.8,0s.5-.8,0-1h0Z"/>
            <polygon class="st19" points="200.5 225.5 200.5 182.1 168.1 164.1 163.6 163.8 159.2 166.6 156.5 168.9 188.1 218.9 198.4 225 200.5 225.5"/>
            <polygon class="st8" points="188.5 231 198.2 225.4 198.2 183.5 188.2 188.1 188.5 231"/>
            <polygon class="st18" points="155 169.3 155 212.6 189 232.1 189.4 231.9 189.4 188.5 155 169.3"/>
            <path class="st9" d="M174.1,169.6l-6.8-3.9c-.8-.4-2-.4-2.8,0l-6.3,3.6c-.5.3-.7.7-.6,1l17.1,10.2,13.7,8.4,9.7-5.6-24.1-13.8h.1Z"/>
            <path class="st19" d="M188.2,187.8v44.8c.3,0,.6,0,.9-.2.2-.1.4-.3.4-.5h0v-43.4l-1.2-.7h0Z"/>
            <polygon class="st9" points="200.5 182.6 200.5 182.1 200.3 182.1 200.3 182.5 200.5 182.6"/>
            <polygon class="st9" points="189.4 189 189.4 188.5 189.3 188.7 189.4 189"/>
            <path class="st18" d="M187.3,189l-30.9-17.8c-1.8-1.1-1.8-2.8,0-3.8l6.3-3.6c1.8-1.1,4.8-1.1,6.6,0l30.9,17.8c.5.3.5.8,0,1s-1.3.3-1.8,0l-30.9-17.8c-.8-.5-2.1-.5-3,0l-6.3,3.6c-.8.5-.8,1.2,0,1.7l30.9,17.8c.5.3.5.8,0,1s-1.3.3-1.8,0h0Z"/>
            <polygon class="st9" points="179.2 209.5 163.2 200.3 163.2 184.2 179.2 193.4 179.2 209.5"/>
            <path class="st9" d="M200.1,182.6c-.5.3-1.3.3-1.8,0l-30.9-17.8c-.8-.5-2.1-.5-3,0l-6.3,3.6c-.5.3-.7.8-.6,1.1,0-.2.3-.4.6-.6l6.3-3.6c.8-.5,2.1-.5,3,0l30.9,17.8c.5.3,1.3.3,1.8,0,.4-.2.5-.5.3-.8,0,0-.1.2-.3.2h0Z"/>
            <path class="st9" d="M189.1,189c-.5.3-1.3.3-1.8,0l-30.9-17.8c-.8-.4-1.2-1-1.3-1.6-.1.8.3,1.6,1.3,2.2l30.9,17.8c.5.3,1.3.3,1.8,0,.4-.2.5-.5.3-.8,0,0-.1.2-.3.2h0Z"/>
          </g>
        </g>
      </g>
      <g class="st15">
        <g>
          <polygon class="st20" points="213.4 170.5 210.9 179 204.3 183.5 209.3 185.6 207.8 194 213.4 186.7 219.1 187.4 217.6 180.8 222.6 172.9 216 176 213.4 170.5"/>
          <path class="st25" d="M225.7,174.7l-3.1-1.8-4.8,2.2v3.3c0,.1,2,.2,2.1.2s5.7-3.9,5.7-3.9h.1Z"/>
          <path class="st25" d="M207.8,194l3.1,1.8,1.5-8.4-1.5-1.6-1.7.3-1.4,7.9h0Z"/>
          <polygon class="st25" points="216.5 172.3 213.9 180.8 207.4 185.3 212.4 187.3 210.9 195.7 216.5 188.4 222.2 189.2 220.7 182.5 225.7 174.7 219.1 177.8 216.5 172.3"/>
          <path class="st9" d="M211.5,195l1.4-7.9-4.6-1.9,6-4.1,2.3-7.5,2.3,4.8,6.4-3,.5-.7-6.6,3.1-2.6-5.5-2.6,8.5-6.6,4.5,5,2-1.5,8.4.6-.8h0Z"/>
          <polygon class="st25" points="216.5 172.3 213.4 170.5 210.9 179 213.9 180.8 216.5 172.3"/>
          <polygon class="st25" points="204.3 183.5 207.4 185.3 213.9 180.8 210.9 179 204.3 183.5"/>
          <polygon class="st9" points="213.8 181 214.3 180.7 210.9 178.8 210.9 179 210.6 179.1 213.8 181"/>
          <polygon class="st20" points="192.4 182.6 189.8 191 183.2 195.6 188.2 197.6 186.7 206 192.4 198.7 198.1 199.5 196.6 192.8 201.6 185 195 188.1 192.4 182.6"/>
          <path class="st25" d="M204.7,186.8l-3.1-1.8-4.8,2.2v3.3c0,.1,2,.2,2.1.2s5.7-3.9,5.7-3.9h.1Z"/>
          <path class="st25" d="M186.7,206l3.1,1.8,1.5-8.4-1.5-1.6-1.7.3-1.4,7.9h0Z"/>
          <polygon class="st25" points="195.5 184.3 192.9 192.8 186.3 197.4 191.3 199.4 189.8 207.8 195.5 200.5 201.2 201.2 199.7 194.6 204.7 186.8 198.1 189.8 195.5 184.3"/>
          <path class="st9" d="M190.4,207l1.4-7.9-4.6-1.9,6-4.1,2.3-7.5,2.3,4.8,6.4-3,.5-.7-6.6,3.1-2.6-5.5-2.6,8.5-6.6,4.5,5,2-1.5,8.4.6-.8h0Z"/>
          <polygon class="st25" points="195.5 184.3 192.4 182.6 189.8 191 192.9 192.8 195.5 184.3"/>
          <polygon class="st25" points="183.2 195.6 186.3 197.4 192.9 192.8 189.8 191 183.2 195.6"/>
          <polygon class="st9" points="192.8 193 193.2 192.8 189.9 190.8 189.8 191 189.6 191.2 192.8 193"/>
          <polygon class="st20" points="171.4 194.6 168.8 203.1 162.2 207.6 167.2 209.7 165.7 218.1 171.4 210.8 177.1 211.5 175.5 204.8 180.6 197 173.9 200.1 171.4 194.6"/>
          <path class="st25" d="M183.6,198.8l-3.1-1.8-4.8,2.2v3.3c0,.1,2,.2,2.1.2s5.7-3.9,5.7-3.9h.1Z"/>
          <path class="st25" d="M165.7,218.1l3.1,1.8,1.5-8.4-1.5-1.6-1.7.3-1.4,7.9h0Z"/>
          <polygon class="st25" points="174.4 196.4 171.9 204.9 165.3 209.4 170.3 211.4 168.8 219.8 174.4 212.5 180.1 213.3 178.6 206.6 183.6 198.8 177 201.9 174.4 196.4"/>
          <path class="st9" d="M169.4,219.1l1.4-7.9-4.6-1.9,6-4.1,2.3-7.5,2.3,4.8,6.4-3,.5-.7-6.6,3.1-2.6-5.5-2.6,8.5-6.6,4.5,5,2-1.5,8.4.6-.8h0Z"/>
          <polygon class="st25" points="174.4 196.4 171.4 194.6 168.8 203.1 171.9 204.9 174.4 196.4"/>
          <polygon class="st25" points="162.2 207.6 165.3 209.4 171.9 204.9 168.8 203.1 162.2 207.6"/>
          <polygon class="st9" points="171.7 205.1 172.2 204.8 168.9 202.9 168.8 203.1 168.6 203.2 171.7 205.1"/>
          <polygon class="st20" points="198.8 150.6 196.2 159 189.6 163.6 194.6 165.6 193.1 174 198.8 166.7 204.5 167.4 203 160.8 208 153 201.4 156 198.8 150.6"/>
          <path class="st25" d="M211.1,154.7l-3.1-1.8-4.8,2.2v3.3c0,.1,2,.2,2.1.2s5.7-3.9,5.7-3.9h.1Z"/>
          <path class="st25" d="M193.1,174l3.1,1.8,1.5-8.4-1.5-1.6-1.7.3-1.4,7.9h0Z"/>
          <polygon class="st25" points="201.9 152.3 199.3 160.8 192.7 165.3 197.7 167.4 196.2 175.8 201.9 168.5 207.6 169.2 206.1 162.6 211.1 154.7 204.5 157.8 201.9 152.3"/>
          <path class="st9" d="M196.8,175l1.4-7.9-4.6-1.9,6-4.1,2.3-7.5,2.3,4.8,6.4-3,.5-.7-6.6,3.1-2.6-5.5-2.6,8.5-6.6,4.5,5,2-1.5,8.4.6-.8h0Z"/>
          <polygon class="st25" points="201.9 152.3 198.8 150.6 196.2 159 199.3 160.8 201.9 152.3"/>
          <polygon class="st25" points="189.6 163.6 192.7 165.3 199.3 160.8 196.2 159 189.6 163.6"/>
          <polygon class="st9" points="199.2 161 199.6 160.7 196.3 158.8 196.2 159 196 159.2 199.2 161"/>
          <polygon class="st20" points="177.8 162.6 175.2 171.1 168.6 175.6 173.6 177.6 172.1 186 177.8 178.7 183.4 179.5 181.9 172.8 186.9 165 180.4 168.1 177.8 162.6"/>
          <path class="st25" d="M190,166.8l-3.1-1.8-4.8,2.2v3.3c0,.1,2,.2,2.1.2s5.7-3.9,5.7-3.9h.1Z"/>
          <path class="st25" d="M172.1,186l3.1,1.8,1.5-8.4-1.5-1.6-1.7.3-1.4,7.9h0Z"/>
          <polygon class="st25" points="180.9 164.4 178.3 172.8 171.7 177.4 176.7 179.4 175.2 187.8 180.9 180.5 186.5 181.3 185 174.6 190 166.8 183.4 169.9 180.9 164.4"/>
          <path class="st9" d="M175.8,187l1.4-7.9-4.6-1.9,6-4.1,2.3-7.5,2.3,4.8,6.4-3,.5-.7-6.6,3.1-2.6-5.5-2.6,8.5-6.6,4.5,5,2-1.5,8.4.6-.8h0Z"/>
          <polygon class="st25" points="180.9 164.4 177.8 162.6 175.2 171.1 178.3 172.8 180.9 164.4"/>
          <polygon class="st25" points="168.6 175.6 171.7 177.4 178.3 172.8 175.2 171.1 168.6 175.6"/>
          <polygon class="st9" points="178.1 173 178.6 172.8 175.3 170.8 175.2 171.1 175 171.2 178.1 173"/>
          <path class="st18" d="M185.2,179c-1.8,1.1-1.8,2.8,0,3.8l30.9,17.8c.5.3,1.3.3,1.8,0s.5-.8,0-1l-30.9-17.8c-.8-.5-.8-1.2,0-1.7l3-1.7c-.3-.5-.6-1-.9-1.6l-3.9,2.2h0Z"/>
          <path class="st19" d="M228.9,193.2l-30.9-17.8c-1.8-1.1-4.8-1.1-6.6,0l-2.4,1.4c.3.5.6,1.1.9,1.6l3.3-1.9c.8-.5,2.1-.5,3,0l30.9,17.8c.5.3,1.3.3,1.8,0s.5-.8,0-1h0Z"/>
          <polygon class="st19" points="229.3 193.8 229.3 150.3 196.9 132.3 192.4 132 188 134.8 185.3 137.1 216.9 187.2 227.2 193.2 229.3 193.8"/>
          <polygon class="st8" points="217.3 199.2 227 193.6 227 151.7 217 156.3 217.3 199.2"/>
          <polygon class="st18" points="183.8 137.5 183.8 180.9 217.8 200.3 218.2 200.1 218.2 156.7 183.8 137.5"/>
          <path class="st9" d="M202.9,137.8l-6.8-3.9c-.8-.4-2-.4-2.8,0l-6.3,3.6c-.5.3-.7.7-.6,1l17.1,10.2,13.7,8.4,9.7-5.6-24.1-13.8h.1Z"/>
          <path class="st19" d="M217,156v44.8c.3,0,.6,0,.9-.2.2-.1.4-.3.4-.5h0v-43.4l-1.2-.7h0Z"/>
          <polygon class="st9" points="229.3 150.9 229.3 150.3 229.1 150.3 229.1 150.7 229.3 150.9"/>
          <polygon class="st9" points="218.2 157.2 218.2 156.7 218.1 156.9 218.2 157.2"/>
          <path class="st18" d="M216.1,157.2l-30.9-17.8c-1.8-1.1-1.8-2.8,0-3.8l6.3-3.6c1.8-1.1,4.8-1.1,6.6,0l30.9,17.8c.5.3.5.8,0,1s-1.3.3-1.8,0l-30.9-17.8c-.8-.5-2.1-.5-3,0l-6.3,3.6c-.8.5-.8,1.2,0,1.7l30.9,17.8c.5.3.5.8,0,1s-1.3.3-1.8,0h0Z"/>
          <polygon class="st9" points="208 177.8 192 168.5 192 152.4 208 161.7 208 177.8"/>
          <path class="st9" d="M228.9,150.8c-.5.3-1.3.3-1.8,0l-30.9-17.8c-.8-.5-2.1-.5-3,0l-6.3,3.6c-.5.3-.7.8-.6,1.1,0-.2.3-.4.6-.6l6.3-3.6c.8-.5,2.1-.5,3,0l30.9,17.8c.5.3,1.3.3,1.8,0,.4-.2.5-.5.3-.8,0,0-.1.2-.3.2h0Z"/>
          <path class="st9" d="M217.9,157.2c-.5.3-1.3.3-1.8,0l-30.9-17.8c-.8-.4-1.2-1-1.3-1.6-.1.8.3,1.6,1.3,2.2l30.9,17.8c.5.3,1.3.3,1.8,0,.4-.2.5-.5.3-.8,0,0-.1.2-.3.2h0Z"/>
          <path class="st10" d="M171,196.7c-1.8,1.1-1.8,2.8,0,3.8l30.9,17.8c.5.3,1.3.3,1.8,0s.5-.8,0-1l-30.9-17.8c-.8-.5-.8-1.2,0-1.7l3-1.7c-.3-.5-.6-1-.9-1.6l-3.9,2.2h0Z"/>
          <path class="st10" d="M214.7,210.9l-30.9-17.8c-1.8-1.1-4.8-1.1-6.6,0l-2.4,1.4c.3.5.6,1.1.9,1.6l3.3-1.9c.8-.5,2.1-.5,3,0l30.9,17.8c.5.3,1.3.3,1.8,0s.5-.8,0-1h0Z"/>
          <polygon class="st21" points="215.1 211.5 215.1 168 182.7 150 178.2 149.7 173.8 152.5 171.1 154.9 202.7 204.9 213 210.9 215.1 211.5"/>
          <polygon class="st7" points="203.1 216.9 212.8 211.4 212.8 169.4 202.8 174 203.1 216.9"/>
          <polygon class="st21" points="169.6 155.2 169.6 198.6 203.6 218 204 217.8 204 174.4 169.6 155.2"/>
          <path class="st9" d="M188.7,155.6l-6.8-3.9c-.8-.4-2-.4-2.8,0l-6.3,3.6c-.5.3-.7.7-.6,1l17.1,10.2,13.7,8.4,9.7-5.6-24.1-13.8h.1Z"/>
          <path class="st10" d="M202.8,173.7v44.8c.3,0,.6,0,.9-.2.2-.1.4-.3.4-.5h0v-43.4l-1.2-.7h0Z"/>
          <polygon class="st9" points="215.1 168.6 215.1 168 214.9 168 214.9 168.4 215.1 168.6"/>
          <polygon class="st9" points="204 174.9 204 174.4 203.9 174.6 204 174.9"/>
          <path class="st21" d="M201.9,174.9l-30.9-17.8c-1.8-1.1-1.8-2.8,0-3.8l6.3-3.6c1.8-1.1,4.8-1.1,6.6,0l30.9,17.8c.5.3.5.8,0,1s-1.3.3-1.8,0l-30.9-17.8c-.8-.5-2.1-.5-3,0l-6.3,3.6c-.8.5-.8,1.2,0,1.7l30.9,17.8c.5.3.5.8,0,1s-1.3.3-1.8,0h0Z"/>
          <polygon class="st9" points="193.8 195.5 177.8 186.2 177.8 170.1 193.8 179.4 193.8 195.5"/>
          <path class="st9" d="M214.7,168.5c-.5.3-1.3.3-1.8,0l-30.9-17.8c-.8-.5-2.1-.5-3,0l-6.3,3.6c-.5.3-.7.8-.6,1.1,0-.2.3-.4.6-.6l6.3-3.6c.8-.5,2.1-.5,3,0l30.9,17.8c.5.3,1.3.3,1.8,0,.4-.2.5-.5.3-.8,0,0-.1.2-.3.2h0Z"/>
          <path class="st9" d="M203.7,174.9c-.5.3-1.3.3-1.8,0l-30.9-17.8c-.8-.4-1.2-1-1.3-1.6-.1.8.3,1.6,1.3,2.2l30.9,17.8c.5.3,1.3.3,1.8,0,.4-.2.5-.5.3-.8,0,0-.1.2-.3.2h0Z"/>
          <path class="st18" d="M156.4,210.1c-1.8,1.1-1.8,2.8,0,3.8l30.9,17.8c.5.3,1.3.3,1.8,0s.5-.8,0-1l-30.9-17.8c-.8-.5-.8-1.2,0-1.7l3-1.7c-.3-.5-.6-1-.9-1.6l-3.9,2.2h0Z"/>
          <path class="st19" d="M200.1,224.3l-30.9-17.8c-1.8-1.1-4.8-1.1-6.6,0l-2.4,1.4c.3.5.6,1.1.9,1.6l3.3-1.9c.8-.5,2.1-.5,3,0l30.9,17.8c.5.3,1.3.3,1.8,0s.5-.8,0-1h0Z"/>
          <polygon class="st19" points="200.5 224.8 200.5 181.4 168.1 163.4 163.6 163.1 159.2 165.9 156.5 168.2 188.1 218.2 198.4 224.3 200.5 224.8"/>
          <polygon class="st8" points="188.5 230.3 198.2 224.7 198.2 182.8 188.2 187.4 188.5 230.3"/>
          <polygon class="st18" points="155 168.6 155 211.9 189 231.4 189.4 231.2 189.4 187.8 155 168.6"/>
          <path class="st9" d="M174.1,168.9l-6.8-3.9c-.8-.4-2-.4-2.8,0l-6.3,3.6c-.5.3-.7.7-.6,1l17.1,10.2,13.7,8.4,9.7-5.6-24.1-13.8h.1Z"/>
          <path class="st19" d="M188.2,187.1v44.8c.3,0,.6,0,.9-.2.2-.1.4-.3.4-.5h0v-43.4l-1.2-.7h0Z"/>
          <polygon class="st9" points="200.5 181.9 200.5 181.4 200.3 181.4 200.3 181.8 200.5 181.9"/>
          <polygon class="st9" points="189.4 188.3 189.4 187.8 189.3 188 189.4 188.3"/>
          <path class="st18" d="M187.3,188.3l-30.9-17.8c-1.8-1.1-1.8-2.8,0-3.8l6.3-3.6c1.8-1.1,4.8-1.1,6.6,0l30.9,17.8c.5.3.5.8,0,1s-1.3.3-1.8,0l-30.9-17.8c-.8-.5-2.1-.5-3,0l-6.3,3.6c-.8.5-.8,1.2,0,1.7l30.9,17.8c.5.3.5.8,0,1s-1.3.3-1.8,0h0Z"/>
          <polygon class="st9" points="179.2 208.8 163.2 199.6 163.2 183.5 179.2 192.7 179.2 208.8"/>
          <path class="st9" d="M200.1,181.9c-.5.3-1.3.3-1.8,0l-30.9-17.8c-.8-.5-2.1-.5-3,0l-6.3,3.6c-.5.3-.7.8-.6,1.1,0-.2.3-.4.6-.6l6.3-3.6c.8-.5,2.1-.5,3,0l30.9,17.8c.5.3,1.3.3,1.8,0,.4-.2.5-.5.3-.8,0,0-.1.2-.3.2h0Z"/>
          <path class="st9" d="M189.1,188.3c-.5.3-1.3.3-1.8,0l-30.9-17.8c-.8-.4-1.2-1-1.3-1.6-.1.8.3,1.6,1.3,2.2l30.9,17.8c.5.3,1.3.3,1.8,0,.4-.2.5-.5.3-.8,0,0-.1.2-.3.2h0Z"/>
        </g>
      </g>
      <polygon class="st0" points="260.7 146.9 253.3 142.6 260.7 138.4 268.1 142.6 260.7 146.9"/>
      <polygon class="st11" points="268.1 137.2 260.7 141.5 260.7 132.9 268.1 128.7 268.1 137.2"/>
      <polygon class="st17" points="260.7 132.9 253.3 128.7 260.7 124.4 268.1 128.7 260.7 132.9"/>
      <polygon class="st17" points="260.7 141.5 253.3 137.2 253.3 128.7 260.7 132.9 260.7 141.5"/>
      <polygon class="st9" points="258 136.9 256 135.7 256 133.3 258 134.5 258 136.9"/>
      <polygon class="st0" points="72.6 190.5 64.9 186 72.6 181.6 80.3 186 72.6 190.5"/>
      <polygon class="st21" points="80.3 180.4 72.6 184.8 72.6 175.9 80.3 171.5 80.3 180.4"/>
      <polygon class="st10" points="72.6 175.9 64.9 171.5 72.6 167.1 80.3 171.5 72.6 175.9"/>
      <polygon class="st7" points="72.6 184.8 64.9 180.4 64.9 171.5 72.6 175.9 72.6 184.8"/>
      <polygon class="st9" points="69.9 180 67.7 178.8 67.7 176.3 69.9 177.6 69.9 180"/>
      <path class="st11" d="M182.4,109.8l-19.3-11.1c-.4-.2-.7-.2-1,0h0l-1.9,1.1s.8.3,1.3.5v14c0,1.1.7,2.5,1.6,3l18.4,10.6v1.6l1.9-1.1h0c.3-.2.5-.6.5-1.2v-14.3c0-1.1-.7-2.5-1.6-3h.1Z"/>
      <path class="st11" d="M180.4,129.4l-19.3-11.1c-.9-.5-1.6-1.8-1.6-3v-14.3c0-1.1.7-1.7,1.6-1.2l19.3,11.1c.9.5,1.6,1.8,1.6,3v14.3c0,1.1-.7,1.7-1.6,1.2Z"/>
      <path class="st9" d="M180.9,110.6l-19.3-11.1c-.5-.3-1-.2-1.3.2.2,0,.5,0,.8.2l19.3,11.1c.9.5,1.6,1.8,1.6,3v14.3c0,.4,0,.8-.3,1,.4-.1.7-.6.7-1.3v-14.3c0-1.1-.7-2.5-1.6-3h.1Z"/>
      <path class="st9" d="M167.7,113.3c0,.8-.6,1.2-1.3.8s-1.3-1.4-1.3-2.2.6-1.2,1.3-.8,1.3,1.4,1.3,2.2Z"/>
      <path class="st9" d="M171.6,115.6c0,.8-.6,1.2-1.3.8s-1.3-1.4-1.3-2.2.6-1.2,1.3-.8,1.3,1.4,1.3,2.2Z"/>
      <path class="st9" d="M175.5,117.9c0,.8-.6,1.2-1.3.8s-1.3-1.4-1.3-2.2.6-1.2,1.3-.8,1.3,1.4,1.3,2.2Z"/>
      <circle class="st11" cx="84.6" cy="342.2" r="11.2"/>
      <circle class="st7" cx="51.7" cy="114.2" r="6.7"/>
      <g class="st2">
        <g class="st2">
          <g class="st2">
            <path class="st27" d="M106.3,28.1h-1.8v-1.8h5.5v1.8h-1.8v6h-1.9s0-6,0-6Z"/>
            <path class="st27" d="M114.9,34.1h-1.7v-.5c-.3.4-.8.7-1.4.7s-1.6-.6-1.6-1.7v-3.9h1.8v3.4c0,.3.2.4.4.4s.5-.2.6-.4v-3.4h1.8v5.4h0ZM110.5,27.2c0-.5.4-.9.9-.9s.9.4.9.9-.4.9-.9.9-.9-.4-.9-.9ZM112.8,27.2c0-.5.4-.9.9-.9s.9.4.9.9-.4.9-.9.9-.9-.4-.9-.9Z"/>
            <path class="st27" d="M115.9,26.3h2.9c1.5,0,2.8.9,2.8,2.6s-.4,1.9-1.2,2.3l1.5,2.9h-2.1l-1.2-2.6h-.7v2.6h-1.9v-7.8h-.1ZM118.8,29.8c.5,0,.9-.3.9-.9s-.4-.9-.9-.9h-.9v1.8h.9Z"/>
            <path class="st27" d="M122.5,26.3h1.9v3.1h.5l1.3-3.1h2.2l-1.8,3.9,1.9,3.9h-2.2l-1.3-3.1h-.5v3.1h-1.9v-7.8h0Z"/>
            <path class="st27" d="M128.8,27.1c0-.7.5-1,1-1s1,.3,1,1-.5,1-1,1-1-.3-1-1ZM128.9,28.7h1.8v5.4h-1.8v-5.4Z"/>
            <path class="st27" d="M133.5,31.1l-2.3-4.9h2.1l1.2,2.9,1.2-2.9h2.1l-2.3,4.9v3h-1.9v-3h-.1Z"/>
            <path class="st27" d="M138.3,26.3h4.6v1.7h-2.7v1.3h2.4v1.7h-2.4v1.4h2.8v1.7h-4.7v-7.8h0Z"/>
            <path class="st27" d="M145.6,26.3h1.7l1.8,3.5,1.8-3.5h1.7v7.8h-1.9v-2.3c0-.8,0-1.5.2-2.2l-1.5,2.8h-.7l-1.5-2.8c.1.7.2,1.5.2,2.2v2.3h-1.9v-7.8h0Z"/>
            <path class="st27" d="M155.6,26.3h1.9l2.5,7.8h-2l-.3-1.2h-2.2l-.3,1.2h-2l2.5-7.8h0ZM157.3,31.3l-.4-1.3c-.1-.5-.3-1.1-.3-1.7,0,.6-.2,1.2-.3,1.7l-.4,1.3h1.4Z"/>
            <path class="st27" d="M162.5,26.3h1.9l2.5,7.8h-2l-.3-1.2h-2.2l-.3,1.2h-2l2.5-7.8h0ZM164.2,31.3l-.4-1.3c-.1-.5-.3-1.1-.3-1.7,0,.6-.2,1.2-.3,1.7l-.4,1.3h1.4Z"/>
            <path class="st27" d="M167.4,26.3h2.9c1.5,0,2.8.9,2.8,2.6s-.4,1.9-1.2,2.3l1.5,2.9h-2.1l-1.2-2.6h-.7v2.6h-1.9v-7.8h-.1ZM170.2,29.8c.5,0,.9-.3.9-.9s-.4-.9-.9-.9h-.9v1.8h.9Z"/>
            <path class="st27" d="M173.7,27.1c0-.7.5-1,1-1s1,.3,1,1-.5,1-1,1-1-.3-1-1ZM173.9,28.7h1.8v5.4h-1.8v-5.4Z"/>
            <path class="st27" d="M181.4,28.1h-2.8v1.4h2.5v1.8h-2.5v2.7h-1.9v-7.8h4.7v1.8h0Z"/>
            <path class="st27" d="M183.1,26.3h2.1l1,4.1c.1.5.2,1,.3,1.7,0-.6.2-1.2.3-1.7l1-4.1h2.1l-2.3,7.8h-2.1l-2.3-7.8h-.1Z"/>
            <path class="st27" d="M191.5,26.3h1.9l2.5,7.8h-2l-.3-1.2h-2.2l-.3,1.2h-2l2.5-7.8h0ZM193.2,31.3l-.4-1.3c-.1-.5-.3-1.1-.3-1.7,0,.6-.2,1.2-.3,1.7l-.4,1.3h1.4Z"/>
            <path class="st27" d="M196.5,26.3h1.9v3.1h.5l1.3-3.1h2.2l-1.8,3.9,1.9,3.9h-2.2l-1.3-3.1h-.5v3.1h-1.9v-7.8h0Z"/>
            <path class="st27" d="M207.7,28.1h-2.8v1.4h2.5v1.8h-2.5v2.7h-1.9v-7.8h4.7v1.8h0Z"/>
            <path class="st27" d="M210.5,34.1h-1.9v-7.8h1.9v7.8Z"/>
          </g>
        </g>
      </g>
      <path class="st27" d="M89.2,37.8l-2.8,2.8-3.5-3.5,3.5-3.5,1.1,1.1-2.4,2.4,1.4,1.4,2-2v-3.6l-2-2h-3.6l-2,2,1.4,1.4,2.4-2.4,1.1,1.1-3.5,3.5-3.5-3.5,2.8-2.8-2.8-2.8,3.5-3.5,3.5,3.5-1.1,1.1-2.4-2.4-1.4,1.4,2,2h3.6l2-2v-3.6l-2-2-1.4,1.4,2.4,2.4-1.1,1.1-3.5-3.5,3.5-3.5,2.8,2.8,2.8-2.8,3.5,3.5-3.5,3.5-1.1-1.1,2.4-2.4-1.4-1.4-2,2v3.6l2,2h3.6l2-2-1.4-1.4-2.4,2.4-1.1-1.1,3.5-3.5,3.5,3.5-2.8,2.8,2.8,2.8-3.5,3.5-3.5-3.5,1.1-1.1,2.4,2.4,1.4-1.4-2-2h-3.6l-2,2v3.6l2,2,1.4-1.4-2.4-2.4,1.1-1.1,3.5,3.5-3.5,3.5-2.8-2.8h0ZM89.2,31.4l1.3-1.4-1.3-1.4-1.3,1.4,1.3,1.4Z"/>
      <polygon class="st3" points="201.9 314.4 214.6 292.9 53.4 202.7 32.9 215.8 201.9 314.4"/>
      <polygon class="st1" points="156.5 329.6 174.5 314.4 42.7 240.7 24.6 252.9 156.5 329.6"/>
      <path class="st6" d="M39.8,219.9c1.9,1.1,3.4,1.9,4.3,2.2h0c.4.2.8.3,1.2.4h0c.2,0,.4.1.6.1s.4,0,.6.1h3.2v3l5.1,2.9,4.1-1.7v4.1l4.8,2.8,1.3.8c1.9,1.1,3.3,1.9,4.3,2.2h0c.4.2.8.3,1.2.4h0c.2,0,.4.1.6.1s.4,0,.6.1h3.1v2.9l11.2,6.5,2.3-1v2.3l5.1,2.9,9.7-4.1c-.4.8-.6,1.5-.5,2.3v-.4,5.6c0,.9.6,1.8,1.3,2.6.7.8,1.8,1.6,3.1,2.4.4.2.8.5,1.3.7,0,0,.3.1.4.2.3.1.5.2.8.4h0c.6.2,1.1.4,1.7.6h0c.4.1.8.2,1.2.3h.3c.2,0,.5,0,.7.1.2,0,.4,0,.6.1h0c.4,0,.8.1,1.2.1h3.3c.5,0,.9,0,1.4-.1h0c.5,0,1-.1,1.5-.2h.4c.6-.1,1.2-.2,1.7-.4.3,0,.6-.2.8-.2h0c.6-.2,1.1-.4,1.7-.6,0,0,.2-.1.3-.1.5-.2,1.1-.5,1.6-.8,0,0,0,0,.2-.1,0,0,.2-.1.2-.2.2-.1.4-.2.6-.4.1,0,.2-.2.3-.2.2-.1.3-.2.5-.4,0,0,.1,0,.2-.1h.1c.2-.3.4-.5.5-.7h.1c.1-.2.2-.4.3-.5,0,0,0-.1.1-.2h0s0-.2.1-.3c0-.1.1-.2.1-.3h0v-.3c0-.1,0-.2.1-.3h0v-.7h0v-5.3.2-.5c-.1-1.9-1.6-3.7-4.4-5.3-1.7-1-3.6-1.7-5.6-2.1s-4.2-.6-6.3-.6h-1.1v-4.4l-5.1-2.9-18.7,7.9v-2.3l-1-.6,11.2-4.7v-5.2l-5-2.9-7,2.9h0v-5.3h0c0-.4,0-.8-.5-1.3-.3-.4-.7-.8-1.3-1.2-.6-.4-1.8-1.1-3.4-2.1l-4.2-2.4-4.1,1.7v-4.1l-5.1-2.9-7.1,3h0v-.2h0v-5.2h0c0-.4,0-.8-.4-1.3-.3-.4-.7-.8-1.3-1.2s-1.8-1.1-3.4-2.1l-4.2-2.4-21.6,9.1v5.2l4.9,2.8,1.3.8h1.9ZM55.6,217.5c.2,0,.4.1.7.2h.5l-1.2.5v-.8h0ZM81.3,232.3c.2,0,.4.1.6.2h.4l-1.1.4v-.7h0ZM119.9,250.5h0c.4,0,.9.1,1.3.2h.2c.4.1.8.2,1.2.4h0c.4.2.8.4,1.2.6h0c-1.6.9-3.5,1.4-5.7,1.5-2.2,0-4-.4-5.5-1.2h.2c.4-.3.8-.5,1.2-.7,0,0,.2-.1.4-.1.3-.1.5-.2.8-.3.2,0,.5-.1.8-.2.3,0,.5-.1.8-.2h.3c.4,0,.9,0,1.4-.1h1.5-.1ZM130.6,253.8s.2-.1.2-.2h0l-.2.2ZM133.1,250.4v.2-.3h0ZM133,251s0,.1-.1.2c0-.1.1-.2.1-.3h0ZM132.7,251.7s0,.1-.1.2h0c0-.1.1-.2.2-.3h0ZM132.2,252.3s0,.1-.1.2h0s.1-.2.2-.3h0ZM131.6,253s-.1.1-.2.1l.2-.2h0ZM130,254.2h0c-.1.1-.3.2-.5.3.2-.1.3-.2.5-.3h0ZM90.2,224.1h0v.4-.4h0ZM64.6,209.3h0v.4-.4h0Z"/>
      <path class="st24" d="M192.4,281.2l-10,1.9,1.5-.6v-5.2c-.4-.8-1-1.5-1.7-2.1-.7-.7-1.6-1.3-2.6-1.9-1.7-1-3.6-1.7-5.6-2.2s-4-.6-6.1-.5h-.5v-3.9l-10.8-6.2-2.6,1.1v-2.6l-13.2-7.6-5,2.1v4.2l-12.4,5.2v5.2l5,2.9,16.6-7,1.5.9-11.4,4.8v5.2l10.8,6.2,4.8-2v-3.6l3.2,1.8.9-.4c-.2.5-.4,1-.4,1.6v.4-.3,5.2c0,1.9,1.3,3.5,3.9,5.1.9.5,1.8,1,2.6,1.4.3.1.6.2.9.4h.2c.5.2,1,.4,1.6.5l.9-.4v1.1l5.4,3.1,5.3-1,3.8,2.2v4.1l5.1,2.9,14.6-13.1v-5.2l-6.2-3.6h0ZM166.2,282.8c-.9-.3-1.6-.7-2.3-1-.1,0-.2-.1-.4-.2,0,0,.2-.1.2-.2.4-.2.8-.4,1.2-.6.1,0,.3-.1.4-.1.3-.1.5-.2.8-.3.2,0,.5-.1.8-.2s.5-.1.8-.2h.3c.4,0,.9-.1,1.4-.1h1.6c.4,0,.9.1,1.3.2h.2c.4.1.8.2,1.2.4h0c.4.2.8.4,1.2.6.9.5,1.6,1.1,2.2,1.8.3.4.5.8.7,1.2l-8.6,1.6v-2.1c-1.1-.3-2.1-.5-2.9-.9h0ZM158.5,271.9l1.3.8c-.5.2-.9.4-1.4.7v-1.5h0ZM163.1,276.6h.1c0,0,0,0-.1,0ZM162.7,277s.1,0,.1-.1c0,0-.1,0-.1.1ZM162.1,277.5h0ZM162.3,277.3s0-.1.1-.1c0,0,0,.1-.1.1ZM161.9,277.9h0ZM161.7,278.2h0ZM161.6,278.6h0ZM154.4,279.3v.4-.4ZM154.6,279.9c0,.1.1.2.2.4,0-.1-.1-.2-.2-.4ZM154.9,280.6c0,.1.2.2.2.4,0-.1-.2-.2-.2-.4ZM155.3,281.2c0,.1.2.2.3.4-.1-.1-.2-.2-.3-.4ZM155.9,281.9c.1.1.3.2.4.4-.1-.1-.3-.2-.4-.4ZM157.4,283.1c.3.2.6.4.9.6-.3-.2-.6-.4-.9-.6ZM156.6,282.5c.2.1.4.3.5.4-.2-.1-.4-.3-.5-.4Z"/>
      <path class="st22" d="M124.7,297.6l5.9-5.3v-5.2l-6.2-3.6-8.2,1.6,1.1-.5v-5.2l-13.2-7.6-2.5,1v-2.5l-5.1-3-8.5,3.6v-.6h0v-5.3.5c0-.9,0-1.8-.5-2.6-.6-1.2-1.8-2.3-3.6-3.3-1.5-.9-3.2-1.5-5-2s-3.7-.7-5.6-.7-1.6,0-2.3.1v-4.4l-5.1-2.9-9.9,4.2h0c0-.1,0-.3.2-.4v-.5h0v-.7h0v-5.3h0c0-.6-.2-1.3-.5-1.9-.3-.6-.9-1.2-1.8-1.8-.9-.7-2.5-1.7-4.9-3.1l-3.2-1.9-21.5,9.1v5.2l3.6,2.1.7.4c.4.2.7.4,1.1.6.1,0,.2.1.3.2.2,0,.5.2.7.4.1,0,.2.1.4.2.2.1.4.2.6.3.1,0,.3.1.4.2.2,0,.3.2.5.2s.2.1.4.2c.2,0,.3.1.5.2,0,0,.2.1.3.2,0,0,.3.1.4.2,0,0,.2.1.3.1s.2.1.4.2c0,0,.2,0,.3.1h.4c.5.2.9.3,1.4.5h.5c.3,0,.5.1.8.2h.5c.2,0,.4,0,.6.1h4.7v4.3l5.1,3,9.6-4.1c-.3.6-.5,1.3-.4,2v-.3,5.5c0,1.9,1.7,3.8,4.6,5.5.4.2.8.4,1.2.6,0,0,.3.1.4.2.3.1.5.2.8.4h.2c.4.1.8.3,1.2.4h.5c.2,0,.5.1.7.2h1.1c0,.1.2.1.3.1h5.2v3.8l5.1,2.9,19.1-8v1.5l-12.4,5.2v5.2l5,2.9,4.7-2v4.7l5.4,3.1,5.3-1,3.8,2.2v4.1l5.1,2.9,1-.9v1.5l11.2,6.5,5.1-2.2v-5.2l-1-.6,11.2-4.7v-5.2l-5-2.9-13.8,5.9h0l.3.9h0ZM108.2,284.5l2.9,1.7-12.5,2.4,9.7-4.1h0ZM67.9,267.9c.4-.2.8-.4,1.2-.6,0,0,.3-.1.4-.2,0,0,.3,0,.4-.1v2c-.3,0-.5-.1-.8-.2-.5-.2-1-.4-1.5-.7h.2c0-.1,0-.2,0-.2h0ZM83.8,271.7l2.1.2-2.2.9v-1.1h0ZM87.9,266h0c0,.4,0,.6-.2.9,0-.3.2-.6.2-.9h0ZM81.3,264.8h0c0-.1,0,0,0,0ZM46.2,248.4l1,.6s.2.1.4.2h0c-1.9,1.1-3.9,1.7-6,1.6h-.9l5.5-2.4h0Z"/>
      <g class="st2">
        <g class="st26">
          <g>
            <path class="st9" d="M42.7,211.7l5-2.1.9.5c1,.6,1.6,1.1,1.7,1.5,0,.4,0,.8-.8,1.2-.9.5-1.8.8-2.7.7-.9,0-2-.6-3.6-1.4l-.6-.4M51.7,207.9l4.2-1.8.7.4c.8.5,1.3.9,1.4,1.2s0,.7-.6,1c-.8.4-1.5.6-2.3.5-.8,0-1.8-.5-3-1.2l-.4-.2M59.4,204.1l-4.2-2.4-21.6,9.1,4.9,2.8,1.3.8c1.9,1.1,3.4,1.9,4.3,2.2,1,.4,1.9.6,2.8.8,1.2.2,2.4.1,3.6-.1,1.2-.2,2.3-.6,3.3-1.2,1.2-.7,1.8-1.4,1.9-2.2,0-.8-.3-1.6-1.3-2.4,1.4.6,2.8.9,4.3.8,1.5,0,2.9-.4,4.1-1.2.9-.5,1.5-1.1,1.7-1.8s0-1.3-.3-1.9c-.3-.4-.7-.8-1.3-1.2s-1.8-1.1-3.4-2.1"/>
            <polyline class="st9" points="76.7 214.1 71.6 211.1 50 220.2 55.2 223.1 76.7 214.1"/>
            <path class="st9" d="M68.3,226.5l5-2.1.9.5c1,.6,1.6,1.1,1.7,1.5s0,.8-.8,1.2c-.9.5-1.8.8-2.7.7s-2.1-.6-3.6-1.4l-.6-.4M77.3,222.7l4.2-1.8.7.4c.8.5,1.3.9,1.4,1.2s0,.7-.6,1c-.8.4-1.5.6-2.3.5-.8,0-1.8-.5-3-1.2l-.4-.2M85.1,218.9l-4.2-2.4-21.6,9.1,4.9,2.8,1.3.8c1.9,1.1,3.3,1.9,4.3,2.2s1.9.6,2.8.8c1.2.2,2.4.1,3.7,0s2.3-.6,3.3-1.2c1.2-.7,1.8-1.4,1.9-2.2,0-.8-.3-1.6-1.3-2.4,1.4.6,2.8.9,4.4.8,1.5,0,2.9-.4,4.1-1.2.9-.5,1.5-1.1,1.7-1.8s0-1.3-.3-1.9c-.3-.4-.7-.8-1.3-1.2-.6-.4-1.8-1.1-3.4-2.1"/>
            <polyline class="st9" points="102.2 228.8 97.2 225.9 75.6 235 86.8 241.4 92 239.2 85.8 235.7 102.2 228.8"/>
            <polyline class="st9" points="115.8 236.6 110.7 233.6 89.1 242.7 94.2 245.7 115.8 236.6"/>
            <path class="st9" d="M112.6,251.6c-1.4-.8-2-1.7-2-2.6s.8-1.9,2.2-2.7c1.6-.9,3.5-1.4,5.6-1.5,2.1,0,3.9.4,5.5,1.3,1.3.8,2,1.6,2,2.6s-.7,1.9-2,2.6c-1.6.9-3.5,1.4-5.7,1.5-2.2,0-4-.4-5.5-1.2M128.8,243.6c-1.7-1-3.6-1.7-5.6-2.1s-4.2-.6-6.3-.6-3.6.4-5.2.8c-1.6.4-3.2,1.1-4.5,1.9-1.3.8-2.3,1.6-2.9,2.6-.6.9-.9,1.9-.8,2.9,0,.9.6,1.8,1.3,2.6.7.8,1.8,1.6,3.1,2.4,1.7,1,3.6,1.7,5.6,2.2s4.2.6,6.4.5c1.8,0,3.6-.3,5.2-.8,1.7-.4,3.2-1.1,4.5-1.9,2.6-1.5,3.8-3.2,3.7-5.1-.1-1.9-1.6-3.7-4.4-5.3"/>
            <polyline class="st9" points="154 258.7 140.8 251.1 135.8 253.1 140 255.6 123.4 262.5 128.4 265.5 145 258.5 149 260.8 154 258.7"/>
            <polyline class="st9" points="167.4 266.4 156.6 260.2 135.1 269.3 145.9 275.5 150.7 273.5 144.9 270.2 148.5 268.7 153.9 271.8 158.5 269.8 153.2 266.7 156.7 265.2 162.5 268.5 167.4 266.4"/>
            <path class="st9" d="M179.7,273c-1.7-1-3.6-1.7-5.6-2.2s-4-.6-6.1-.5c-1.8.1-3.5.4-5.1.8-1.6.5-3.1,1.1-4.4,1.8-2.7,1.6-4.1,3.3-4.1,5.2s1.3,3.6,3.9,5.1c.9.5,1.8,1,2.6,1.4.9.4,1.7.7,2.6,1l5.6-2.4c-1.1-.3-2.1-.5-2.9-.9-.9-.3-1.6-.7-2.3-1-1.5-.9-2.3-1.8-2.3-2.8s.7-1.9,2.2-2.8c1.7-1,3.5-1.5,5.6-1.5s3.9.4,5.4,1.3c.9.5,1.6,1.1,2.2,1.8.5.7.8,1.4.9,2.2l6-2.5c-.4-.8-1-1.5-1.7-2.1-.7-.7-1.6-1.3-2.6-1.9"/>
            <path class="st9" d="M181.2,287.1l6.2-1.3c.3,0,.7-.1,1.2-.3.5-.1,1.1-.3,1.8-.5-.3.2-.6.4-.9.6s-.6.5-1,.8l-3.5,3-3.9-2.3M198.7,284.5l-6.3-3.6-28,5.4,5.4,3.1,5.3-1,6.5,3.8-2.8,2.5,5.1,2.9,14.6-13.1"/>
            <path class="st9" d="M35.4,248.7c-.2,0-.3-.2-.5-.3s-.4-.3-.7-.5l12-5.1.9.6c1.7,1,2.6,1.9,2.6,2.8s-.7,1.7-2.3,2.7c-1.9,1.1-3.9,1.7-6,1.6-2,0-4.1-.6-6.1-1.8M49.2,239.8l-3.2-1.9-21.5,9.1,3.6,2.1.7.4c3,1.7,5.3,2.9,6.9,3.5s3.1,1,4.7,1.1c2.3.2,4.4.1,6.4-.3,2-.4,3.9-1.1,5.7-2.2s3.1-2.2,3.7-3.4.6-2.4,0-3.6-.9-1.2-1.8-1.8c-.9-.7-2.5-1.7-4.9-3.1"/>
            <polyline class="st9" points="70.9 252.4 65.8 249.4 44.3 258.5 49.4 261.5 70.9 252.4"/>
            <path class="st9" d="M83.8,259.3c-1.5-.9-3.2-1.5-5-2s-3.7-.7-5.6-.7-3.9.2-5.8.7-3.5,1.1-5,2c-2.7,1.6-4,3.3-3.8,5.2s1.7,3.8,4.6,5.5,6.3,2.6,10,2.5c3.6,0,7.2-1.1,10.5-2.9l-9.4-5.4-4.4,1.9,4.3,2.5c-.6.2-1.1.3-1.7.3h-1.6c-.6,0-1.2-.2-1.7-.4-.6-.2-1.1-.4-1.6-.7-1.3-.8-2-1.6-1.9-2.6,0-1,.8-1.9,2.2-2.7,1.7-1,3.7-1.5,5.8-1.6,2.2,0,4,.4,5.6,1.3.9.5,1.5,1.1,1.8,1.8.3.6.2,1.3,0,2.1l6.7.7c.5-1.4.4-2.7-.2-3.9-.6-1.2-1.8-2.3-3.6-3.3"/>
            <polyline class="st9" points="101.5 270 96.4 267.1 74.9 276.2 80 279.1 101.5 270"/>
            <polyline class="st9" points="117.3 279.1 104.1 271.5 99 273.6 103.2 276 86.7 283 91.7 285.9 108.2 278.9 112.2 281.2 117.3 279.1"/>
            <path class="st9" d="M113.1,289.4l6.2-1.3c.3,0,.7-.2,1.2-.3.5-.1,1.2-.3,1.8-.5-.3.2-.6.4-.9.6s-.6.5-1,.8l-3.5,3-3.9-2.3M130.6,286.8l-6.3-3.6-28,5.4,5.4,3.1,5.3-1,6.5,3.8-2.8,2.5,5.1,2.9,14.6-13.1"/>
            <polyline class="st9" points="143.5 294.3 138.5 291.4 116.9 300.5 128.2 307 133.3 304.8 127.1 301.2 143.5 294.3"/>
          </g>
        </g>
      </g>
    </g>
  </g>
</svg>