<?xml version="1.0" encoding="UTF-8"?>
<svg xmlns="http://www.w3.org/2000/svg" version="1.1" xmlns:xlink="http://www.w3.org/1999/xlink" viewBox="0 0 282.9 396.3">
  <!-- Generator: Adobe Illustrator 29.0.1, SVG Export Plug-In . SVG Version: 2.1.0 Build 192)  -->
  <defs>
    <style>
      .st0, .st1, .st2, .st3 {
        isolation: isolate;
      }

      .st0, .st1, .st3, .st4 {
        opacity: .5;
      }

      .st0, .st5 {
        fill: #203e79;
      }

      .st6 {
        fill: url(#linear-gradient2);
      }

      .st1 {
        fill: url(#linear-gradient1);
      }

      .st1, .st3 {
        mix-blend-mode: multiply;
      }

      .st7 {
        fill: #efbbca;
      }

      .st8 {
        fill: #7ab0df;
      }

      .st9 {
        fill: #fff;
      }

      .st10 {
        fill: #870830;
      }

      .st11 {
        fill: #f89f60;
      }

      .st12 {
        fill: #cbe5f6;
      }

      .st13 {
        fill: none;
      }

      .st14 {
        fill: #3a6daa;
      }

      .st15 {
        clip-path: url(#clippath-1);
      }

      .st16 {
        fill: #7e56a2;
      }

      .st17 {
        fill: #d37a43;
      }

      .st18 {
        fill: #d3e9f8;
      }

      .st19 {
        fill: #5692cd;
      }

      .st20 {
        fill: #e6a223;
      }

      .st21 {
        fill: #e13262;
      }

      .st22 {
        opacity: .3;
      }

      .st23 {
        fill: url(#linear-gradient3);
      }

      .st24 {
        fill: #115dab;
      }

      .st3 {
        fill: url(#linear-gradient);
      }

      .st25 {
        clip-path: url(#clippath-2);
      }

      .st26 {
        fill: #fefefe;
      }

      .st27 {
        clip-path: url(#clippath);
      }
    </style>
    <linearGradient id="linear-gradient" x1="-121.7" y1="1419.6" x2="-197.4" y2="1288.5" gradientTransform="translate(197.1 -968.5) rotate(.7) scale(.9) skewX(4.1)" gradientUnits="userSpaceOnUse">
      <stop offset="0" stop-color="#fff"/>
      <stop offset=".3" stop-color="#60a1d7"/>
    </linearGradient>
    <linearGradient id="linear-gradient1" x1="-246.5" y1="1324.9" x2="-322.1" y2="1193.9" gradientTransform="translate(322 -992.3) rotate(.3) skewX(3.2)" gradientUnits="userSpaceOnUse">
      <stop offset="0" stop-color="#fff"/>
      <stop offset=".3" stop-color="#60a1d7"/>
    </linearGradient>
    <clipPath id="clippath">
      <polygon class="st13" points="156.1 180.5 189.3 198.9 233.2 173.7 238.5 184.6 169.3 224.5 143.9 211.5 156.1 180.5"/>
    </clipPath>
    <clipPath id="clippath-1">
      <polygon class="st13" points="152.9 178.7 189.3 198.9 239.9 169.8 240.7 126.1 207 120.6 154.3 157.3 152.9 178.7"/>
    </clipPath>
    <linearGradient id="linear-gradient2" x1="52.9" y1="1249.8" x2="189.6" y2="1249.8" gradientTransform="translate(0 -1002)" gradientUnits="userSpaceOnUse">
      <stop offset="0" stop-color="#1b75bb"/>
      <stop offset="1" stop-color="#a4c6e8"/>
    </linearGradient>
    <linearGradient id="linear-gradient3" x1="16.1" y1="1265.3" x2="178.3" y2="1265.3" gradientTransform="translate(0 -1002)" gradientUnits="userSpaceOnUse">
      <stop offset="0" stop-color="#1b75bb"/>
      <stop offset="1" stop-color="#a4c6e8"/>
    </linearGradient>
    <clipPath id="clippath-2">
      <polygon class="st13" points="15.7 222 55.9 198.6 208.2 286.6 168 309.9 15.7 222"/>
    </clipPath>
  </defs>
  <g class="st2">
    <g id="Layer_1">
      <rect class="st9" x=".7" width="241.4" height="396.7"/>
      <rect class="st24" width="242.1" height="396.7"/>
      <polygon class="st3" points="186.7 297.1 199.7 284.2 69.3 207.5 51.9 214.1 186.7 297.1"/>
      <polygon class="st1" points="168.5 316.7 183.2 302.1 35.1 218.6 16.8 224.8 168.5 316.7"/>
      <path class="st5" d="M72.3,0H0v72.1h0c3.4.6,6.9.9,10.5.9,34.2,0,61.8-27.7,61.8-61.8"/>
      <path class="st17" d="M27.9,396.3c10.5-8.3,17.2-21,17.2-35.4,0-24.9-20.2-45.1-45.1-45.1v80.5h27.9Z"/>
      <path class="st0" d="M270.9,180l-48-27.8c-2.6-1.5-7.2-1.3-10.2.4l-100.7,58c-3,1.7-3.3,4.4-.7,5.9l48,27.8c2.6,1.5,7.2,1.3,10.2-.4l100.7-58c3-1.7,3.4-4.4.7-5.9Z"/>
      <path class="st14" d="M157.8,233.9l-49.9-28.9c-1.6-.9-2.4-2.2-2.3-3.6h0v-7.2l2.8,3.2c.2-.1.4-.2.6-.4l102.2-58.8c4.1-2.3,10.2-2.6,13.7-.6l49.3,28.5c1-1.1,3.1-3.4,3.1-3.4v7.1h0c0,1.6-1.1,3.3-3.4,4.6l-102.2,58.8c-4.1,2.3-10.2,2.6-13.7.6h-.2Z"/>
      <path class="st5" d="M130.8,216.2l2.9,1.7c.4.2.7,0,.7-.5h0c0-.5-.3-1.1-.7-1.3l-2.9-1.7c-.4-.2-.7,0-.7.5h0c0,.5.3,1.1.7,1.3Z"/>
      <path class="st19" d="M211,138.3c4.1-2.3,10.2-2.6,13.7-.6l49.3,28.5c1-1.1,3.1-3.4,3.1-3.4v7.1h0c0,1.6-1.1,3.3-3.4,4.6l-102.2,58.8c-2.1,1.2-4.8,1.9-7.4,1.9v-70.1c.1,0,46.9-26.9,46.9-26.9h0Z"/>
      <path class="st18" d="M274.7,159.4l-49.9-28.9c-3.5-2-9.6-1.8-13.7.6l-102.2,58.8c-4.1,2.3-4.5,5.9-1,7.9l50,28.9c3.5,2,9.6,1.8,13.7-.6l102.2-58.8c4.1-2.3,4.5-5.9,1-7.9h-.1Z"/>
      <path class="st9" d="M157.8,227.4l-49.9-28.9c-1.8-1.1-2.6-2.5-2.3-4,0,1.2.9,2.3,2.3,3.2l50,28.9c3.5,2,9.6,1.8,13.7-.6l102.2-58.8c2-1.1,3.1-2.5,3.3-3.9.1,1.6-1,3.4-3.3,4.7l-102.2,58.8c-4.1,2.3-10.2,2.6-13.7.6h0Z"/>
      <path class="st5" d="M270.9,160.5l-48-27.8c-2.6-1.5-7.2-1.3-10.2.4l-100.7,58c-3,1.7-3.3,4.4-.7,5.9l48,27.8c2.6,1.5,7.2,1.3,10.2-.4l100.7-58c3-1.7,3.4-4.4.7-5.9Z"/>
      <polygon class="st18" points="171.3 210.4 137.4 190.8 139.6 189.6 173.5 209.1 171.3 210.4"/>
      <polygon class="st18" points="147.7 204.7 130.6 194.8 132.7 193.5 149.9 203.4 147.7 204.7"/>
      <polygon class="st17" points="156 209.5 150.5 206.2 152.7 205 158.2 208.2 156 209.5"/>
      <polygon class="st9" points="164.5 214.3 158.9 211.1 161 209.9 166.6 213.1 164.5 214.3"/>
      <polygon class="st9" points="147.9 200.8 134 192.8 136.2 191.5 150.1 199.6 147.9 200.8"/>
      <polygon class="st18" points="164.9 210.6 151 202.6 153.2 201.3 167.1 209.4 164.9 210.6"/>
      <path class="st21" d="M154.6,193.4c-.7.4-1.8.4-2.5,0s-.7-1.1,0-1.5,1.8-.4,2.5,0,.7,1.1,0,1.5Z"/>
      <path class="st9" d="M158.4,195.6c-.7.4-1.8.4-2.5,0s-.7-1.1,0-1.5,1.8-.4,2.5,0,.7,1.1,0,1.5Z"/>
      <path class="st18" d="M162.1,197.8c-.7.4-1.8.4-2.5,0s-.7-1.1,0-1.5,1.8-.4,2.5,0,.7,1.1,0,1.5Z"/>
      <path class="st11" d="M165.9,200c-.7.4-1.8.4-2.5,0s-.7-1.1,0-1.5,1.8-.4,2.5,0,.7,1.1,0,1.5Z"/>
      <path class="st9" d="M169.7,202.1c-.7.4-1.8.4-2.5,0s-.7-1.1,0-1.5,1.8-.4,2.5,0,.7,1.1,0,1.5Z"/>
      <polygon class="st21" points="245.4 160.8 239.7 157.5 242 156.2 247.7 159.5 245.4 160.8"/>
      <polygon class="st9" points="253.4 165.3 247.7 162 249.9 160.8 255.6 164.1 253.4 165.3"/>
      <polygon class="st9" points="220 145.9 214.3 142.6 216.5 141.3 222.2 144.6 220 145.9"/>
      <polygon class="st9" points="244.2 164.1 236.2 159.5 238.4 158.2 246.4 162.8 244.2 164.1"/>
      <polygon class="st18" points="249.9 167.4 246.4 165.4 248.6 164.1 252.1 166.1 249.9 167.4"/>
      <path class="st0" d="M204.3,241.9l19.9-11.5c1.6-.9,4.1-1,6.2-.2l5.5-3.2c-5.1-3.8-5.6-9.1-1.4-13.1.8,1.2,2,2.2,3.7,3.2,6.6,3.8,17.3,3.8,23.8,0,2.6-1.5,4.1-3.3,4.7-5.2,7.5,4.6,7.4,11.8-.4,16.3-7.7,4.4-20,4.6-28,.4l-5.5,3.2c.9,1.1.7,2.4-.7,3.2l-19.9,11.5c-1.9,1.1-5.2.9-7.3-.3s-2.4-3.1-.5-4.2h-.1Z"/>
      <g class="st4">
        <path class="st18" d="M261.9,205.8c-6.6-3.8-17.3-3.8-23.8,0-2.7,1.6-4.3,3.6-4.8,5.6.4,1.8,1.7,3.6,3.9,5,.5-.4,1.1-.9,1.8-1.3,6.6-3.8,17.3-3.8,23.8,0,.3.2.6.4.9.6,1.6-1.3,2.6-2.8,3-4.4-.5-2.1-2.1-4-4.8-5.6h0Z"/>
        <path class="st17" d="M261.9,205.8c-7.1-3.8-16.2-3.8-23.3,0-2.3,1.2-4.5,3.1-5.1,5.8.4,1.6,2.1,3.7,3.8,4.8h-.3c7.4-5.4,19.1-5.4,26.8-.5,1-.9,2.6-2.6,2.9-4.3-.6-2.5-2.6-4.4-4.8-5.6h0v-.2ZM261.9,205.8c2.2,1.2,4.2,3.1,4.8,5.6-.4,1.7-1.6,3.4-3,4.4-7.6-4.7-19.2-4.5-26.4.8h-.2c-1.9-1.1-3.6-2.9-4.1-5.2,3-9.9,21.4-10.2,28.9-5.6h0Z"/>
      </g>
      <path class="st24" d="M232.9,214.5l2.6-3.4,7.8-3.6,6.7-.6,7.9,1,5.5,2.8,3.5,2.2.6-3.6-1.2-4.2s-3-2-3.2-2.2-7-2.6-7-2.6l-6.8-.5-5.5.7-5.6,1.6-3.7,2.6-2.8,3.5-.3,4.4,1.3,1.8h.2Z"/>
      <path class="st17" d="M232.9,214.5l2.5-3.4,7.8-3.7s6.7-.6,6.8-.6c0,0,7.9.9,8,.9l5.5,2.8,3.5,2.2h-.3c0,.1.6-3.5.6-3.5h0c0,.1-1.2-4.1-1.2-4.1h.1c-.8-.4-2.7-1.8-3.5-2.2l-1.3-.5-5.3-2h0l-6.8-.5c.2,0-5.5.7-5.4.7.2,0-5.7,1.7-5.5,1.6,0,0-3.8,2.6-3.7,2.5,0,0-2.9,3.6-2.8,3.4,0,0-.4,4.4-.4,4.3l1.3,1.9h0v.2ZM232.9,214.5s-1.3-1.8-1.4-1.8l.3-4.4h0l2.7-3.6,3.7-2.6h0l5.6-1.7,5.5-.7,6.8.4h0l5.3,1.9c.5.2,1.6.5,2,.9.5.3,2.5,1.7,3,2h0l1.2,4.3h0c0,.1-.6,3.7-.6,3.7v.3l-.3-.2s-3.5-2.3-3.5-2.2l-5.5-2.8c.4,0-8-1-7.8-1,0,0-6.9.6-6.7.6,0,0-7.9,3.6-7.8,3.5l-2.6,3.3h0Z"/>
      <polygon class="st24" points="269.4 210.2 269.4 217.2 267.5 214.2 269.4 210.2"/>
      <path class="st17" d="M269.4,210.2c0,2.6.3,5.3.3,7.9-.8-1.3-1.6-2.6-2.4-3.9.7-1.4,1.5-2.7,2.1-4h0ZM269.4,210.2c-.6,1.4-1.1,2.7-1.7,4.1v-.2c.6,1,1.3,2,1.9,3.1h-.5c0-2.2.2-4.5.2-6.9h.1Z"/>
      <path class="st24" d="M238.1,210.5c6.6-3.8,17.3-3.8,23.8,0,2.1,1.2,3.5,2.6,4.3,4.1.6-.5,1.3-.9,1.6-1.6-.9-1.3-2.3-2.5-4.1-3.5-7.6-4.4-19.8-4.4-27.4,0-1.6.9-2.9,2-3.9,3.2.3.7.8,1.4,1.4,2,.8-1.5,2.2-2.9,4.3-4.1h0Z"/>
      <path class="st17" d="M238.1,210.5c7.7-4.4,23.2-4.3,28.3,4h-.3c.6-.6,1.3-1,1.6-1.6v.2c-4.1-5.1-11.2-6.5-17.4-6.7-6.3,0-13.4,1.3-17.7,6.3.3.6.8,1.4,1.4,1.9.8-1.7,2.6-3.2,4.2-4.1h-.1ZM238.1,210.5c-1.8,1-3.3,2.5-4.3,4.2-.6-.6-1.1-1.2-1.4-2,4.3-5,11.4-6.5,17.8-6.6,6.4.1,13.6,1.6,17.8,6.9h0c-.4,1.1-1.3,1.5-2,2.1v-.2c-5.1-8.3-20.3-8.6-28-4.2h0v-.2Z"/>
      <g class="st4">
        <path class="st18" d="M261.9,205.8c-6.6-3.8-17.3-3.8-23.8,0-2.7,1.6-4.3,3.6-4.8,5.6.5,2.1,2.1,4,4.8,5.6,6.6,3.8,17.3,3.8,23.8,0,2.7-1.6,4.3-3.6,4.8-5.6-.5-2.1-2.1-4-4.8-5.6Z"/>
        <path class="st17" d="M261.9,205.8c-4.7-2.6-10.4-3.2-15.7-2.5-5,.8-11.2,2.8-12.7,8.2.7,2.8,3.9,5.3,6.8,6.4,6.1,2.4,13.2,2.5,19.4.1,3-1.2,6.1-3.2,7-6.6-.6-2.4-2.6-4.4-4.8-5.6h0ZM261.9,205.8c2.2,1.2,4.2,3.1,4.8,5.6-.8,3.3-3.9,5.5-6.9,6.8-6.2,2.5-13.4,2.6-19.6.1-3.1-1.2-6.3-3.4-7.1-6.9.3-1.4,1.1-2.6,2.1-3.6,6.8-6.2,19-6.2,26.8-2h0Z"/>
      </g>
      <path class="st24" d="M267.8,213c-.1.3-.3.5-.6.8h0l-1.8,1-2.1,2-3,1.3-4.1,1.5-3.6.9-5,.2-3.2-.3-6.4-1.7-4.2-3.7s0-.1.1-.2c-.6-.6-1.1-1.3-1.4-2-.1.1-.2.3-.3.4l-1.5-3.1v7.3h0c0,2.9,1.9,5.7,5.7,7.9,7.6,4.4,19.8,4.4,27.4,0,5.7-3.3,7.1-8.2,4.1-12.3h-.1Z"/>
      <path class="st17" d="M267.8,213c-.1.3-.4.6-.6.8h0l-1.7,1.1-2.1,2s-3,1.3-3,1.4l-4.1,1.5-3.6.9s-5,.2-5.1.2c0,0-3.2-.3-3.3-.3h0l-6.4-1.7h0l-4.2-3.7h-.1v-.4c.1,0,.1.2.1.2-.6-.6-1.1-1.3-1.4-2h.4l-.3.5-.2.3v-.3c-.1,0-1.6-3.1-1.6-3.1h.4c0-.1,0,7.2,0,7.2h-.5c0-.1.5-1,.5-1-.5,5,4.1,8.5,8.4,10.1,8.2,3,18.2,2.7,25.6-2.1,3.9-2.5,6-7.4,2.9-11.4h0v-.2ZM267.8,213c3.2,4,1.1,9-2.8,11.6-7.5,4.9-17.6,5.2-25.9,2.3-4.1-1.6-8.6-4.6-8.7-9.5h.5c0,.1-.5,1-.5,1v-9.3l.4.9,1.5,3.1h-.4l.3-.5.2-.3v.3c.5.8,1,1.4,1.6,2,0,0-.1.3-.2.4v-.2l4.1,3.7c-.4-.2,6.4,1.7,6.4,1.7-.1,0,3.3.4,3.2.3,0,0,5.1-.2,5-.2s3.7-.9,3.6-.8l4.1-1.4,3-1.3,2.2-2,1.8-1h0c.2-.1.5-.4.6-.7h0Z"/>
      <path class="st24" d="M235.2,216.2l-1.5-1.3s0-.1.1-.2c-.6-.6-1.1-1.3-1.4-2-.1.1-.2.3-.3.4l-1.5-3.1v7.3h0c0,2.6,1.5,5.1,4.6,7.2v-8.4h0Z"/>
      <path class="st17" d="M235.2,216.2l-1.6-1.3h0s0-.3.1-.3h0c-.6-.5-1.1-1.1-1.5-1.9h.2c0,.2-.4.5-.4.6v-.2c-.1,0-1.6-3-1.6-3h.4v7.3h-.5c0-.1.5-1,.5-1v1c0,3,2.1,5.4,4.4,7.1l-.3.2c0-2.8.1-5.6.2-8.4h.1ZM235.2,216.2c0,2.9.2,5.8.2,8.8-2.6-1.6-5-4.3-5-7.6h.5c0,.1-.5,1-.5,1v-9.2l.4.8,1.4,3.1h-.2l.3-.4v-.2c.5.8.9,1.6,1.6,2.2,0,0-.1.2-.1.3h0l1.5,1.3h0Z"/>
      <path class="st24" d="M263.7,202.3c-7.6-4.4-19.8-4.4-27.4,0s-7.6,11.4,0,15.8,19.8,4.4,27.4,0c7.6-4.4,7.6-11.4,0-15.8ZM261.9,217c-6.6,3.8-17.3,3.8-23.8,0s-6.6-10,0-13.8,17.3-3.8,23.8,0c6.6,3.8,6.6,10,0,13.8Z"/>
      <path class="st17" d="M263.7,202.3c-8.6-4.6-20.9-4.4-29,1.3-6.1,4.5-4.5,11,1.7,14.3,7.1,3.9,15.9,4.2,23.5,1.8,9.3-2.9,13.5-11.6,3.7-17.3h.1ZM263.7,202.3c9.9,5.7,5.7,14.5-3.6,17.6-7.7,2.6-16.6,2.3-23.9-1.6-9.9-5.9-5.7-14.8,3.8-17.8,7.7-2.5,16.6-2.1,23.7,1.8h0Z"/>
      <path class="st17" d="M261.9,217c-6.2,3.4-14,3.7-20.7,1.6-4-1.4-8.9-4.5-8.2-9.4,2.3-9.5,18.1-10.4,25.7-7.5,8.1,2.7,11.8,10.3,3.2,15.3h0ZM261.9,217c8.5-5,4.8-12.5-3.2-15.1-7.3-2.7-22.9-1.6-25.2,7.3-.6,4.6,4.1,7.7,7.9,9.1,6.6,2.2,14.4,2,20.6-1.3h0Z"/>
      <polygon class="st18" points="223.7 226.1 234.4 219.8 235.8 222.1 225 228.4 223.7 226.1"/>
      <path class="st17" d="M223.7,226.1c3.1-1.9,7.4-4.6,10.6-6.4h.2c0-.1.1,0,.1,0l1.4,2.3v.2c.1,0,0,.1,0,.1-3.6,2.1-7.2,4.2-10.9,6.2h0l-1.3-2.5h-.1ZM223.7,226.1l1.4,2.3c2.9-2.1,7.2-4.4,10.6-6.4v.4l-1.5-2.3h.3c-3.1,1.9-7.7,4.4-10.8,6.1h0Z"/>
      <path class="st16" d="M225.3,227.8c0,.6-.4.9-1,.6s-1-1.1-1-1.7.4-.9,1-.6c.5.3,1,1.1,1,1.7Z"/>
      <path class="st17" d="M225.3,227.8c0,.8-.8.9-1.3.5-.7-.4-1.5-2.1-.3-2.5,1,0,1.5,1.2,1.6,2h0ZM225.3,227.8c0-.7-.7-1.7-1.5-1.6-.5.4,0,1.4.4,1.9s1.1.5,1.1-.3h0Z"/>
      <path class="st16" d="M225.3,227.8c0,.6-.4.9-1,.6s-1-1.1-1-1.7.4-.9,1-.6c.5.3,1,1.1,1,1.7Z"/>
      <path class="st17" d="M225.3,227.8c0,.8-.8.9-1.3.5-.7-.4-1.5-2.1-.3-2.5,1,0,1.5,1.2,1.6,2h0ZM225.3,227.8c0-.7-.7-1.7-1.5-1.6-.5.4,0,1.4.4,1.9s1.1.5,1.1-.3h0Z"/>
      <path class="st18" d="M236,221.6c0,.6-.4.9-1,.6-.5-.3-1-1.1-1-1.7s.4-.9,1-.6c.5.3,1,1.1,1,1.7Z"/>
      <path class="st17" d="M236,221.6c0,.8-.8.9-1.3.5-.7-.4-1.5-2.1-.3-2.5,1,0,1.5,1.2,1.6,2h0ZM236,221.6c0-.7-.7-1.7-1.5-1.6-.5.4,0,1.4.4,1.9s1.1.5,1.1-.3h0Z"/>
      <path class="st19" d="M230.6,228.2c0-2.6-1.9-5.9-4.1-7.2-1.2-.7-2.2-.7-3-.2h0l-22.7,13.2,5.9,10.1,22.4-13.1c.1,0,.3-.1.4-.2h0c.6-.5,1-1.3,1-2.5h.1Z"/>
      <path class="st17" d="M230.6,228.2c0-3.2-3.6-8.9-7.2-7.4-7.2,4.4-15.1,9-22.5,13.4v-.3l6,10.1h-.3c7.5-4.4,15.1-8.6,22.5-13,1-.4,1.4-1.7,1.4-2.8h.1ZM230.6,228.2c0,.9-.3,2-1,2.5-7.6,4.4-15.2,9-22.8,13.5h-.2c0,.1-.1,0-.1,0l-5.9-10.1v-.2c-.1,0,0-.1,0-.1,7.6-4.3,15.3-8.8,22.8-13,3.3-1.7,7.2,4.3,7.1,7.4h0Z"/>
      <path class="st18" d="M202.4,236.8l25.4-14.6c-.4-.4-.9-.8-1.4-1.1-1.2-.7-2.2-.7-3-.2h0l-22.7,13.2,1.6,2.8h0Z"/>
      <path class="st17" d="M202.4,236.8c7.4-4.4,17.9-10.6,25.3-14.9v.4c-1.1-1-2.7-2.1-4.1-1.3h-.2c0,.1-.1,0-.1,0h.3c-6.7,3.9-16.1,9.4-22.8,13.1h0l1.6,2.8h0ZM202.4,236.8l-1.7-2.8h0c6.5-3.9,15.9-9.5,22.6-13.4h.2c0-.1.1,0,.1,0h-.3c1.8-1.1,3.7.3,4.9,1.5-7.5,4.3-18.1,10.3-25.8,14.6h0Z"/>
      <ellipse class="st18" cx="203.8" cy="239.1" rx="3.4" ry="5.9" transform="translate(-92.3 133.9) rotate(-30)"/>
      <path class="st17" d="M207.9,241.4c0,3.4-3,3.7-5.2,1.8-1.9-1.6-3.2-4-3.3-6.6,0-3.6,3.2-4,5.5-1.8,1.8,1.7,3,4.1,3.1,6.6h-.1ZM207.9,241.4c0-3.2-2.9-7.8-6.4-7.5-1.2.3-1.6,1.6-1.6,2.7,0,2.4,1.2,4.7,3,6.4,2.1,2,5,1.8,5.1-1.6h-.1Z"/>
      <path class="st19" d="M204.5,240.2c0,1.5-1.2,2.7-2.7,2.7s-2.7-1.2-2.7-2.7,1.2-2.7,2.7-2.7,2.7,1.2,2.7,2.7Z"/>
      <path class="st17" d="M204.5,240.2c0,3.7-5.5,3.8-5.6,0,.1-3.8,5.6-3.7,5.6,0h0ZM204.5,240.2c-.1-3.4-5.1-3.4-5.1,0s5,3.4,5.1,0h0Z"/>
      <path class="st9" d="M201.3,239.2c0,.4-.4.8-.8.8s-.8-.4-.8-.8.4-.8.8-.8.8.4.8.8Z"/>
      <path class="st17" d="M201.3,239.2c0,1.2-1.8,1.3-1.8,0s1.9-1.2,1.8,0h0ZM201.3,239.2c0-.9-1.4-.8-1.3,0,0,.9,1.3.9,1.3,0h0Z"/>
      <path class="st9" d="M204.1,234.1c-1.2-.7-2.3-.7-3.1-.2.7-.3,1.7-.2,2.8.4,2.3,1.3,4.1,4.5,4.1,7.2s-.4,2.1-1.1,2.6c.8-.4,1.4-1.4,1.4-2.8,0-2.6-1.9-5.9-4.1-7.2h0Z"/>
      <path class="st17" d="M204.1,234.1c-.9-.5-2.1-.8-3.1-.2h0c3.5-1.2,6.8,3.7,7.1,6.8.2,1.2,0,2.7-1.1,3.5l-.2-.4c3.2-2.1,0-8.3-2.7-9.7h0ZM204.1,234.1c2.8,1.5,6.4,7.9,2.9,10.1l-.2-.4c.9-.7,1-1.9.9-3.1-.3-2.9-3.2-7.8-6.6-6.8h0c.9-.7,2.2-.4,3.1.2h0Z"/>
      <path class="st9" d="M261.9,203.3c-6.6-3.8-17.3-3.8-23.8,0-3.4,2-5.1,4.6-4.9,7.2.1-2.4,1.8-4.8,4.9-6.6,6.6-3.8,17.3-3.8,23.8,0,3.1,1.8,4.8,4.2,4.9,6.6.1-2.6-1.5-5.2-4.9-7.2Z"/>
      <path class="st17" d="M261.9,203.3c-7.7-4.2-21.6-4-27.4,3.3-.8,1.1-1.3,2.5-1.2,3.9h-.4c0-1.8,1.1-3.5,2.3-4.7,6.4-5.8,17.4-6,25-2.8,3.1,1.4,6.4,3.9,6.6,7.5h-.1c.2-3.2-2.3-5.7-4.9-7.2h0ZM261.9,203.3c2.6,1.5,5.1,4,5,7.2h-.1c-.3-3.6-3.6-6-6.6-7.3-7.7-3.1-18.1-2.7-24.6,2.9-1.2,1.2-2.1,2.7-2.2,4.4h-.4c0-1.5.4-2.9,1.3-4.1,6-7.4,19.9-7.5,27.7-3.1h-.1Z"/>
      <path class="st9" d="M263.7,218.1c-7.6,4.4-19.8,4.4-27.4,0-3.6-2.1-5.5-4.8-5.7-7.6-.1,3,1.7,5.9,5.7,8.2,7.6,4.4,19.8,4.4,27.4,0,3.9-2.3,5.8-5.2,5.7-8.2-.1,2.8-2,5.5-5.7,7.6Z"/>
      <path class="st17" d="M263.7,218.1c-8.9,5-24.2,4.8-31.4-3.1-1-1.2-1.7-2.8-1.8-4.5h.4c0,2,.9,4,2.2,5.4,7.2,6.9,20.1,7.3,28.9,3.5,3.9-1.7,7.2-4.7,7.4-8.9-.2,3.4-2.9,6-5.7,7.6h0ZM263.7,218.1c2.8-1.6,5.5-4.2,5.6-7.6.6,4.1-3.7,7.6-7.2,9.2-8.8,3.9-22.2,3.6-29.3-3.4-1.4-1.5-2.4-3.6-2.3-5.7h.4c0,1.6.7,3.1,1.7,4.3,7,7.9,22.3,8.2,31.1,3.3h0Z"/>
      <g class="st22">
        <g class="st27">
          <g>
            <path class="st18" d="M186.3,188.3c-1.8,1.1-1.8,2.8,0,3.8l30.9,17.8c.5.3,1.3.3,1.8,0s.5-.8,0-1l-30.9-17.8c-.8-.5-.8-1.2,0-1.7l3-1.7c-.3-.5-.6-1-.9-1.6l-3.9,2.2h0Z"/>
            <path class="st19" d="M230,202.5l-30.9-17.8c-1.8-1.1-4.8-1.1-6.6,0l-2.4,1.4c.3.5.6,1.1.9,1.6l3.3-1.9c.8-.5,2.1-.5,3,0l30.9,17.8c.5.3,1.3.3,1.8,0s.5-.8,0-1h0Z"/>
            <polygon class="st19" points="230.4 203.1 230.4 159.6 198 141.6 193.5 141.3 189.1 144.1 186.4 146.4 218 196.5 228.3 202.5 230.4 203.1"/>
            <polygon class="st8" points="218.4 208.5 228.1 203 228.1 161 218.1 165.6 218.4 208.5"/>
            <polygon class="st18" points="184.9 146.8 184.9 190.1 218.9 209.6 219.3 209.4 219.3 166 184.9 146.8"/>
            <path class="st9" d="M204,147.1l-6.8-3.9c-.8-.4-2-.4-2.8,0l-6.3,3.6c-.5.3-.7.7-.6,1l17.1,10.2,13.7,8.4,9.7-5.6-24.1-13.8h.1Z"/>
            <path class="st19" d="M218.1,165.3v44.8c.3,0,.6,0,.9-.2.2-.1.4-.3.4-.5h0v-43.4l-1.2-.7h0Z"/>
            <polygon class="st9" points="230.4 160.2 230.4 159.6 230.2 159.6 230.2 160 230.4 160.2"/>
            <polygon class="st9" points="219.3 166.5 219.3 166 219.2 166.2 219.3 166.5"/>
            <path class="st18" d="M217.2,166.5l-30.9-17.8c-1.8-1.1-1.8-2.8,0-3.8l6.3-3.6c1.8-1.1,4.8-1.1,6.6,0l30.9,17.8c.5.3.5.8,0,1s-1.3.3-1.8,0l-30.9-17.8c-.8-.5-2.1-.5-3,0l-6.3,3.6c-.8.5-.8,1.2,0,1.7l30.9,17.8c.5.3.5.8,0,1s-1.3.3-1.8,0h0Z"/>
            <polygon class="st9" points="209.1 187.1 193.1 177.8 193.1 161.7 209.1 171 209.1 187.1"/>
            <path class="st9" d="M230,160.1c-.5.3-1.3.3-1.8,0l-30.9-17.8c-.8-.5-2.1-.5-3,0l-6.3,3.6c-.5.3-.7.8-.6,1.1,0-.2.3-.4.6-.6l6.3-3.6c.8-.5,2.1-.5,3,0l30.9,17.8c.5.3,1.3.3,1.8,0,.4-.2.5-.5.3-.8,0,0-.1.2-.3.2h0Z"/>
            <path class="st9" d="M219,166.5c-.5.3-1.3.3-1.8,0l-30.9-17.8c-.8-.4-1.2-1-1.3-1.6-.1.8.3,1.6,1.3,2.2l30.9,17.8c.5.3,1.3.3,1.8,0,.4-.2.5-.5.3-.8,0,0-.1.2-.3.2h0Z"/>
            <path class="st24" d="M172.1,196.7c-1.8,1.1-1.8,2.8,0,3.8l30.9,17.8c.5.3,1.3.3,1.8,0s.5-.8,0-1l-30.9-17.8c-.8-.5-.8-1.2,0-1.7l3-1.7c-.3-.5-.6-1-.9-1.6l-3.9,2.2h0Z"/>
            <path class="st24" d="M215.8,210.9l-30.9-17.8c-1.8-1.1-4.8-1.1-6.6,0l-2.4,1.4c.3.5.6,1.1.9,1.6l3.3-1.9c.8-.5,2.1-.5,3,0l30.9,17.8c.5.3,1.3.3,1.8,0s.5-.8,0-1h0Z"/>
            <polygon class="st24" points="216.2 211.5 216.2 168 183.8 150 179.3 149.7 174.9 152.5 172.2 154.9 203.8 204.9 214.1 210.9 216.2 211.5"/>
            <polygon class="st12" points="204.2 216.9 213.9 211.4 213.9 169.4 203.9 174 204.2 216.9"/>
            <polygon class="st24" points="170.7 155.2 170.7 198.6 204.7 218 205.1 217.8 205.1 174.4 170.7 155.2"/>
            <path class="st9" d="M189.8,155.6l-6.8-3.9c-.8-.4-2-.4-2.8,0l-6.3,3.6c-.5.3-.7.7-.6,1l17.1,10.2,13.7,8.4,9.7-5.6-24.1-13.8h.1Z"/>
            <path class="st24" d="M203.9,173.7v44.8c.3,0,.6,0,.9-.2.2-.1.4-.3.4-.5h0v-43.4l-1.2-.7h0Z"/>
            <polygon class="st9" points="216.2 168.6 216.2 168 216 168 216 168.4 216.2 168.6"/>
            <polygon class="st9" points="205.1 174.9 205.1 174.4 205 174.6 205.1 174.9"/>
            <path class="st24" d="M203,174.9l-30.9-17.8c-1.8-1.1-1.8-2.8,0-3.8l6.3-3.6c1.8-1.1,4.8-1.1,6.6,0l30.9,17.8c.5.3.5.8,0,1s-1.3.3-1.8,0l-30.9-17.8c-.8-.5-2.1-.5-3,0l-6.3,3.6c-.8.5-.8,1.2,0,1.7l30.9,17.8c.5.3.5.8,0,1s-1.3.3-1.8,0h0Z"/>
            <polygon class="st9" points="194.9 195.5 178.9 186.2 178.9 170.1 194.9 179.4 194.9 195.5"/>
            <path class="st9" d="M215.8,168.5c-.5.3-1.3.3-1.8,0l-30.9-17.8c-.8-.5-2.1-.5-3,0l-6.3,3.6c-.5.3-.7.8-.6,1.1,0-.2.3-.4.6-.6l6.3-3.6c.8-.5,2.1-.5,3,0l30.9,17.8c.5.3,1.3.3,1.8,0,.4-.2.5-.5.3-.8,0,0-.1.2-.3.2h0Z"/>
            <path class="st9" d="M204.8,174.9c-.5.3-1.3.3-1.8,0l-30.9-17.8c-.8-.4-1.2-1-1.3-1.6-.1.8.3,1.6,1.3,2.2l30.9,17.8c.5.3,1.3.3,1.8,0,.4-.2.5-.5.3-.8,0,0-.1.2-.3.2h0Z"/>
            <path class="st18" d="M157.5,210.8c-1.8,1.1-1.8,2.8,0,3.8l30.9,17.8c.5.3,1.3.3,1.8,0s.5-.8,0-1l-30.9-17.8c-.8-.5-.8-1.2,0-1.7l3-1.7c-.3-.5-.6-1-.9-1.6l-3.9,2.2h0Z"/>
            <path class="st19" d="M201.2,225l-30.9-17.8c-1.8-1.1-4.8-1.1-6.6,0l-2.4,1.4c.3.5.6,1.1.9,1.6l3.3-1.9c.8-.5,2.1-.5,3,0l30.9,17.8c.5.3,1.3.3,1.8,0s.5-.8,0-1h0Z"/>
            <polygon class="st19" points="201.6 225.5 201.6 182.1 169.2 164.1 164.7 163.8 160.3 166.6 157.6 168.9 189.2 218.9 199.5 225 201.6 225.5"/>
            <polygon class="st8" points="189.6 231 199.3 225.4 199.3 183.5 189.3 188.1 189.6 231"/>
            <polygon class="st18" points="156.1 169.3 156.1 212.6 190.1 232.1 190.5 231.9 190.5 188.5 156.1 169.3"/>
            <path class="st9" d="M175.2,169.6l-6.8-3.9c-.8-.4-2-.4-2.8,0l-6.3,3.6c-.5.3-.7.7-.6,1l17.1,10.2,13.7,8.4,9.7-5.6-24.1-13.8h.1Z"/>
            <path class="st19" d="M189.3,187.8v44.8c.3,0,.6,0,.9-.2.2-.1.4-.3.4-.5h0v-43.4l-1.2-.7h0Z"/>
            <polygon class="st9" points="201.6 182.6 201.6 182.1 201.4 182.1 201.4 182.5 201.6 182.6"/>
            <polygon class="st9" points="190.5 189 190.5 188.5 190.4 188.7 190.5 189"/>
            <path class="st18" d="M188.4,189l-30.9-17.8c-1.8-1.1-1.8-2.8,0-3.8l6.3-3.6c1.8-1.1,4.8-1.1,6.6,0l30.9,17.8c.5.3.5.8,0,1s-1.3.3-1.8,0l-30.9-17.8c-.8-.5-2.1-.5-3,0l-6.3,3.6c-.8.5-.8,1.2,0,1.7l30.9,17.8c.5.3.5.8,0,1s-1.3.3-1.8,0h0Z"/>
            <polygon class="st9" points="180.3 209.5 164.3 200.3 164.3 184.2 180.3 193.4 180.3 209.5"/>
            <path class="st9" d="M201.2,182.6c-.5.3-1.3.3-1.8,0l-30.9-17.8c-.8-.5-2.1-.5-3,0l-6.3,3.6c-.5.3-.7.8-.6,1.1,0-.2.3-.4.6-.6l6.3-3.6c.8-.5,2.1-.5,3,0l30.9,17.8c.5.3,1.3.3,1.8,0,.4-.2.5-.5.3-.8,0,0-.1.2-.3.2h0Z"/>
            <path class="st9" d="M190.2,189c-.5.3-1.3.3-1.8,0l-30.9-17.8c-.8-.4-1.2-1-1.3-1.6-.1.8.3,1.6,1.3,2.2l30.9,17.8c.5.3,1.3.3,1.8,0,.4-.2.5-.5.3-.8,0,0-.1.2-.3.2h0Z"/>
          </g>
        </g>
      </g>
      <g class="st15">
        <g>
          <polygon class="st20" points="214.5 170.5 212 179 205.4 183.5 210.4 185.6 208.9 194 214.5 186.7 220.2 187.4 218.7 180.8 223.7 172.9 217.1 176 214.5 170.5"/>
          <path class="st24" d="M226.8,174.7l-3.1-1.8-4.8,2.2v3.3c0,.1,2,.2,2.1.2s5.7-3.9,5.7-3.9h.1Z"/>
          <path class="st24" d="M208.9,194l3.1,1.8,1.5-8.4-1.5-1.6-1.7.3-1.4,7.9h0Z"/>
          <polygon class="st24" points="217.6 172.3 215 180.8 208.5 185.3 213.5 187.3 212 195.7 217.6 188.4 223.3 189.2 221.8 182.5 226.8 174.7 220.2 177.8 217.6 172.3"/>
          <path class="st9" d="M212.6,195l1.4-7.9-4.6-1.9,6-4.1,2.3-7.5,2.3,4.8,6.4-3,.5-.7-6.6,3.1-2.6-5.5-2.6,8.5-6.6,4.5,5,2-1.5,8.4.6-.8h0Z"/>
          <polygon class="st24" points="217.6 172.3 214.5 170.5 212 179 215 180.8 217.6 172.3"/>
          <polygon class="st24" points="205.4 183.5 208.5 185.3 215 180.8 212 179 205.4 183.5"/>
          <polygon class="st9" points="214.9 181 215.4 180.7 212 178.8 212 179 211.7 179.1 214.9 181"/>
          <polygon class="st20" points="193.5 182.6 190.9 191 184.3 195.6 189.3 197.6 187.8 206 193.5 198.7 199.2 199.5 197.7 192.8 202.7 185 196.1 188.1 193.5 182.6"/>
          <path class="st24" d="M205.8,186.8l-3.1-1.8-4.8,2.2v3.3c0,.1,2,.2,2.1.2s5.7-3.9,5.7-3.9h.1Z"/>
          <path class="st24" d="M187.8,206l3.1,1.8,1.5-8.4-1.5-1.6-1.7.3-1.4,7.9h0Z"/>
          <polygon class="st24" points="196.6 184.3 194 192.8 187.4 197.4 192.4 199.4 190.9 207.8 196.6 200.5 202.3 201.2 200.8 194.6 205.8 186.8 199.2 189.8 196.6 184.3"/>
          <path class="st9" d="M191.5,207l1.4-7.9-4.6-1.9,6-4.1,2.3-7.5,2.3,4.8,6.4-3,.5-.7-6.6,3.1-2.6-5.5-2.6,8.5-6.6,4.5,5,2-1.5,8.4.6-.8h0Z"/>
          <polygon class="st24" points="196.6 184.3 193.5 182.6 190.9 191 194 192.8 196.6 184.3"/>
          <polygon class="st24" points="184.3 195.6 187.4 197.4 194 192.8 190.9 191 184.3 195.6"/>
          <polygon class="st9" points="193.9 193 194.3 192.8 191 190.8 190.9 191 190.7 191.2 193.9 193"/>
          <polygon class="st20" points="172.5 194.6 169.9 203.1 163.3 207.6 168.3 209.7 166.8 218.1 172.5 210.8 178.2 211.5 176.6 204.8 181.7 197 175 200.1 172.5 194.6"/>
          <path class="st24" d="M184.7,198.8l-3.1-1.8-4.8,2.2v3.3c0,.1,2,.2,2.1.2s5.7-3.9,5.7-3.9h.1Z"/>
          <path class="st24" d="M166.8,218.1l3.1,1.8,1.5-8.4-1.5-1.6-1.7.3-1.4,7.9h0Z"/>
          <polygon class="st24" points="175.5 196.4 173 204.9 166.4 209.4 171.4 211.4 169.9 219.8 175.5 212.5 181.2 213.3 179.7 206.6 184.7 198.8 178.1 201.9 175.5 196.4"/>
          <path class="st9" d="M170.5,219.1l1.4-7.9-4.6-1.9,6-4.1,2.3-7.5,2.3,4.8,6.4-3,.5-.7-6.6,3.1-2.6-5.5-2.6,8.5-6.6,4.5,5,2-1.5,8.4.6-.8h0Z"/>
          <polygon class="st24" points="175.5 196.4 172.5 194.6 169.9 203.1 173 204.9 175.5 196.4"/>
          <polygon class="st24" points="163.3 207.6 166.4 209.4 173 204.9 169.9 203.1 163.3 207.6"/>
          <polygon class="st9" points="172.8 205.1 173.3 204.8 170 202.9 169.9 203.1 169.7 203.2 172.8 205.1"/>
          <polygon class="st20" points="199.9 150.6 197.3 159 190.7 163.6 195.7 165.6 194.2 174 199.9 166.7 205.6 167.4 204.1 160.8 209.1 153 202.5 156 199.9 150.6"/>
          <path class="st24" d="M212.2,154.7l-3.1-1.8-4.8,2.2v3.3c0,.1,2,.2,2.1.2s5.7-3.9,5.7-3.9h.1Z"/>
          <path class="st24" d="M194.2,174l3.1,1.8,1.5-8.4-1.5-1.6-1.7.3-1.4,7.9h0Z"/>
          <polygon class="st24" points="203 152.3 200.4 160.8 193.8 165.3 198.8 167.4 197.3 175.8 203 168.5 208.7 169.2 207.2 162.6 212.2 154.7 205.6 157.8 203 152.3"/>
          <path class="st9" d="M197.9,175l1.4-7.9-4.6-1.9,6-4.1,2.3-7.5,2.3,4.8,6.4-3,.5-.7-6.6,3.1-2.6-5.5-2.6,8.5-6.6,4.5,5,2-1.5,8.4.6-.8h0Z"/>
          <polygon class="st24" points="203 152.3 199.9 150.6 197.3 159 200.4 160.8 203 152.3"/>
          <polygon class="st24" points="190.7 163.6 193.8 165.3 200.4 160.8 197.3 159 190.7 163.6"/>
          <polygon class="st9" points="200.3 161 200.7 160.7 197.4 158.8 197.3 159 197.1 159.2 200.3 161"/>
          <polygon class="st20" points="178.9 162.6 176.3 171.1 169.7 175.6 174.7 177.6 173.2 186 178.9 178.7 184.5 179.5 183 172.8 188 165 181.5 168.1 178.9 162.6"/>
          <path class="st24" d="M191.1,166.8l-3.1-1.8-4.8,2.2v3.3c0,.1,2,.2,2.1.2s5.7-3.9,5.7-3.9h.1Z"/>
          <path class="st24" d="M173.2,186l3.1,1.8,1.5-8.4-1.5-1.6-1.7.3-1.4,7.9h0Z"/>
          <polygon class="st24" points="182 164.4 179.4 172.8 172.8 177.4 177.8 179.4 176.3 187.8 182 180.5 187.6 181.3 186.1 174.6 191.1 166.8 184.5 169.9 182 164.4"/>
          <path class="st9" d="M176.9,187l1.4-7.9-4.6-1.9,6-4.1,2.3-7.5,2.3,4.8,6.4-3,.5-.7-6.6,3.1-2.6-5.5-2.6,8.5-6.6,4.5,5,2-1.5,8.4.6-.8h0Z"/>
          <polygon class="st24" points="182 164.4 178.9 162.6 176.3 171.1 179.4 172.8 182 164.4"/>
          <polygon class="st24" points="169.7 175.6 172.8 177.4 179.4 172.8 176.3 171.1 169.7 175.6"/>
          <polygon class="st9" points="179.2 173 179.7 172.8 176.4 170.8 176.3 171.1 176.1 171.2 179.2 173"/>
          <path class="st18" d="M186.3,179c-1.8,1.1-1.8,2.8,0,3.8l30.9,17.8c.5.3,1.3.3,1.8,0s.5-.8,0-1l-30.9-17.8c-.8-.5-.8-1.2,0-1.7l3-1.7c-.3-.5-.6-1-.9-1.6l-3.9,2.2h0Z"/>
          <path class="st19" d="M230,193.2l-30.9-17.8c-1.8-1.1-4.8-1.1-6.6,0l-2.4,1.4c.3.5.6,1.1.9,1.6l3.3-1.9c.8-.5,2.1-.5,3,0l30.9,17.8c.5.3,1.3.3,1.8,0s.5-.8,0-1h0Z"/>
          <polygon class="st19" points="230.4 193.8 230.4 150.3 198 132.3 193.5 132 189.1 134.8 186.4 137.1 218 187.2 228.3 193.2 230.4 193.8"/>
          <polygon class="st8" points="218.4 199.2 228.1 193.6 228.1 151.7 218.1 156.3 218.4 199.2"/>
          <polygon class="st18" points="184.9 137.5 184.9 180.9 218.9 200.3 219.3 200.1 219.3 156.7 184.9 137.5"/>
          <path class="st9" d="M204,137.8l-6.8-3.9c-.8-.4-2-.4-2.8,0l-6.3,3.6c-.5.3-.7.7-.6,1l17.1,10.2,13.7,8.4,9.7-5.6-24.1-13.8h.1Z"/>
          <path class="st19" d="M218.1,156v44.8c.3,0,.6,0,.9-.2.2-.1.4-.3.4-.5h0v-43.4l-1.2-.7h0Z"/>
          <polygon class="st9" points="230.4 150.9 230.4 150.3 230.2 150.3 230.2 150.7 230.4 150.9"/>
          <polygon class="st9" points="219.3 157.2 219.3 156.7 219.2 156.9 219.3 157.2"/>
          <path class="st18" d="M217.2,157.2l-30.9-17.8c-1.8-1.1-1.8-2.8,0-3.8l6.3-3.6c1.8-1.1,4.8-1.1,6.6,0l30.9,17.8c.5.3.5.8,0,1s-1.3.3-1.8,0l-30.9-17.8c-.8-.5-2.1-.5-3,0l-6.3,3.6c-.8.5-.8,1.2,0,1.7l30.9,17.8c.5.3.5.8,0,1s-1.3.3-1.8,0h0Z"/>
          <polygon class="st9" points="209.1 177.8 193.1 168.5 193.1 152.4 209.1 161.7 209.1 177.8"/>
          <path class="st9" d="M230,150.8c-.5.3-1.3.3-1.8,0l-30.9-17.8c-.8-.5-2.1-.5-3,0l-6.3,3.6c-.5.3-.7.8-.6,1.1,0-.2.3-.4.6-.6l6.3-3.6c.8-.5,2.1-.5,3,0l30.9,17.8c.5.3,1.3.3,1.8,0,.4-.2.5-.5.3-.8,0,0-.1.2-.3.2h0Z"/>
          <path class="st9" d="M219,157.2c-.5.3-1.3.3-1.8,0l-30.9-17.8c-.8-.4-1.2-1-1.3-1.6-.1.8.3,1.6,1.3,2.2l30.9,17.8c.5.3,1.3.3,1.8,0,.4-.2.5-.5.3-.8,0,0-.1.2-.3.2h0Z"/>
          <path class="st10" d="M172.1,196.7c-1.8,1.1-1.8,2.8,0,3.8l30.9,17.8c.5.3,1.3.3,1.8,0s.5-.8,0-1l-30.9-17.8c-.8-.5-.8-1.2,0-1.7l3-1.7c-.3-.5-.6-1-.9-1.6l-3.9,2.2h0Z"/>
          <path class="st10" d="M215.8,210.9l-30.9-17.8c-1.8-1.1-4.8-1.1-6.6,0l-2.4,1.4c.3.5.6,1.1.9,1.6l3.3-1.9c.8-.5,2.1-.5,3,0l30.9,17.8c.5.3,1.3.3,1.8,0s.5-.8,0-1h0Z"/>
          <polygon class="st21" points="216.2 211.5 216.2 168 183.8 150 179.3 149.7 174.9 152.5 172.2 154.9 203.8 204.9 214.1 210.9 216.2 211.5"/>
          <polygon class="st7" points="204.2 216.9 213.9 211.4 213.9 169.4 203.9 174 204.2 216.9"/>
          <polygon class="st21" points="170.7 155.2 170.7 198.6 204.7 218 205.1 217.8 205.1 174.4 170.7 155.2"/>
          <path class="st9" d="M189.8,155.6l-6.8-3.9c-.8-.4-2-.4-2.8,0l-6.3,3.6c-.5.3-.7.7-.6,1l17.1,10.2,13.7,8.4,9.7-5.6-24.1-13.8h.1Z"/>
          <path class="st10" d="M203.9,173.7v44.8c.3,0,.6,0,.9-.2.2-.1.4-.3.4-.5h0v-43.4l-1.2-.7h0Z"/>
          <polygon class="st9" points="216.2 168.6 216.2 168 216 168 216 168.4 216.2 168.6"/>
          <polygon class="st9" points="205.1 174.9 205.1 174.4 205 174.6 205.1 174.9"/>
          <path class="st21" d="M203,174.9l-30.9-17.8c-1.8-1.1-1.8-2.8,0-3.8l6.3-3.6c1.8-1.1,4.8-1.1,6.6,0l30.9,17.8c.5.3.5.8,0,1s-1.3.3-1.8,0l-30.9-17.8c-.8-.5-2.1-.5-3,0l-6.3,3.6c-.8.5-.8,1.2,0,1.7l30.9,17.8c.5.3.5.8,0,1s-1.3.3-1.8,0h0Z"/>
          <polygon class="st9" points="194.9 195.5 178.9 186.2 178.9 170.1 194.9 179.4 194.9 195.5"/>
          <path class="st9" d="M215.8,168.5c-.5.3-1.3.3-1.8,0l-30.9-17.8c-.8-.5-2.1-.5-3,0l-6.3,3.6c-.5.3-.7.8-.6,1.1,0-.2.3-.4.6-.6l6.3-3.6c.8-.5,2.1-.5,3,0l30.9,17.8c.5.3,1.3.3,1.8,0,.4-.2.5-.5.3-.8,0,0-.1.2-.3.2h0Z"/>
          <path class="st9" d="M204.8,174.9c-.5.3-1.3.3-1.8,0l-30.9-17.8c-.8-.4-1.2-1-1.3-1.6-.1.8.3,1.6,1.3,2.2l30.9,17.8c.5.3,1.3.3,1.8,0,.4-.2.5-.5.3-.8,0,0-.1.2-.3.2h0Z"/>
          <path class="st18" d="M157.5,210.1c-1.8,1.1-1.8,2.8,0,3.8l30.9,17.8c.5.3,1.3.3,1.8,0s.5-.8,0-1l-30.9-17.8c-.8-.5-.8-1.2,0-1.7l3-1.7c-.3-.5-.6-1-.9-1.6l-3.9,2.2h0Z"/>
          <path class="st19" d="M201.2,224.3l-30.9-17.8c-1.8-1.1-4.8-1.1-6.6,0l-2.4,1.4c.3.5.6,1.1.9,1.6l3.3-1.9c.8-.5,2.1-.5,3,0l30.9,17.8c.5.3,1.3.3,1.8,0s.5-.8,0-1h0Z"/>
          <polygon class="st19" points="201.6 224.8 201.6 181.4 169.2 163.4 164.7 163.1 160.3 165.9 157.6 168.2 189.2 218.2 199.5 224.3 201.6 224.8"/>
          <polygon class="st8" points="189.6 230.3 199.3 224.7 199.3 182.8 189.3 187.4 189.6 230.3"/>
          <polygon class="st18" points="156.1 168.6 156.1 211.9 190.1 231.4 190.5 231.2 190.5 187.8 156.1 168.6"/>
          <path class="st9" d="M175.2,168.9l-6.8-3.9c-.8-.4-2-.4-2.8,0l-6.3,3.6c-.5.3-.7.7-.6,1l17.1,10.2,13.7,8.4,9.7-5.6-24.1-13.8h.1Z"/>
          <path class="st19" d="M189.3,187.1v44.8c.3,0,.6,0,.9-.2.2-.1.4-.3.4-.5h0v-43.4l-1.2-.7h0Z"/>
          <polygon class="st9" points="201.6 181.9 201.6 181.4 201.4 181.4 201.4 181.8 201.6 181.9"/>
          <polygon class="st9" points="190.5 188.3 190.5 187.8 190.4 188 190.5 188.3"/>
          <path class="st18" d="M188.4,188.3l-30.9-17.8c-1.8-1.1-1.8-2.8,0-3.8l6.3-3.6c1.8-1.1,4.8-1.1,6.6,0l30.9,17.8c.5.3.5.8,0,1s-1.3.3-1.8,0l-30.9-17.8c-.8-.5-2.1-.5-3,0l-6.3,3.6c-.8.5-.8,1.2,0,1.7l30.9,17.8c.5.3.5.8,0,1s-1.3.3-1.8,0h0Z"/>
          <polygon class="st9" points="180.3 208.8 164.3 199.6 164.3 183.5 180.3 192.7 180.3 208.8"/>
          <path class="st9" d="M201.2,181.9c-.5.3-1.3.3-1.8,0l-30.9-17.8c-.8-.5-2.1-.5-3,0l-6.3,3.6c-.5.3-.7.8-.6,1.1,0-.2.3-.4.6-.6l6.3-3.6c.8-.5,2.1-.5,3,0l30.9,17.8c.5.3,1.3.3,1.8,0,.4-.2.5-.5.3-.8,0,0-.1.2-.3.2h0Z"/>
          <path class="st9" d="M190.2,188.3c-.5.3-1.3.3-1.8,0l-30.9-17.8c-.8-.4-1.2-1-1.3-1.6-.1.8.3,1.6,1.3,2.2l30.9,17.8c.5.3,1.3.3,1.8,0,.4-.2.5-.5.3-.8,0,0-.1.2-.3.2h0Z"/>
        </g>
      </g>
      <polygon class="st0" points="261.8 146.9 254.4 142.6 261.8 138.4 269.2 142.6 261.8 146.9"/>
      <polygon class="st11" points="269.2 137.2 261.8 141.5 261.8 132.9 269.2 128.7 269.2 137.2"/>
      <polygon class="st17" points="261.8 132.9 254.4 128.7 261.8 124.4 269.2 128.7 261.8 132.9"/>
      <polygon class="st17" points="261.8 141.5 254.4 137.2 254.4 128.7 261.8 132.9 261.8 141.5"/>
      <polygon class="st9" points="259.1 136.9 257.1 135.7 257.1 133.3 259.1 134.5 259.1 136.9"/>
      <polygon class="st0" points="73.7 190.5 66 186 73.7 181.6 81.4 186 73.7 190.5"/>
      <polygon class="st21" points="81.4 180.4 73.7 184.8 73.7 175.9 81.4 171.5 81.4 180.4"/>
      <polygon class="st10" points="73.7 175.9 66 171.5 73.7 167.1 81.4 171.5 73.7 175.9"/>
      <polygon class="st7" points="73.7 184.8 66 180.4 66 171.5 73.7 175.9 73.7 184.8"/>
      <polygon class="st9" points="71 180 68.8 178.8 68.8 176.3 71 177.6 71 180"/>
      <path class="st11" d="M183.5,109.8l-19.3-11.1c-.4-.2-.7-.2-1,0h0l-1.9,1.1s.8.3,1.3.5v14c0,1.1.7,2.5,1.6,3l18.4,10.6v1.6l1.9-1.1h0c.3-.2.5-.6.5-1.2v-14.3c0-1.1-.7-2.5-1.6-3h.1Z"/>
      <path class="st11" d="M181.5,129.4l-19.3-11.1c-.9-.5-1.6-1.8-1.6-3v-14.3c0-1.1.7-1.7,1.6-1.2l19.3,11.1c.9.5,1.6,1.8,1.6,3v14.3c0,1.1-.7,1.7-1.6,1.2Z"/>
      <path class="st9" d="M182,110.6l-19.3-11.1c-.5-.3-1-.2-1.3.2.2,0,.5,0,.8.2l19.3,11.1c.9.5,1.6,1.8,1.6,3v14.3c0,.4,0,.8-.3,1,.4-.1.7-.6.7-1.3v-14.3c0-1.1-.7-2.5-1.6-3h.1Z"/>
      <path class="st9" d="M168.8,113.3c0,.8-.6,1.2-1.3.8s-1.3-1.4-1.3-2.2.6-1.2,1.3-.8,1.3,1.4,1.3,2.2Z"/>
      <path class="st9" d="M172.7,115.6c0,.8-.6,1.2-1.3.8s-1.3-1.4-1.3-2.2.6-1.2,1.3-.8,1.3,1.4,1.3,2.2Z"/>
      <path class="st9" d="M176.6,117.9c0,.8-.6,1.2-1.3.8s-1.3-1.4-1.3-2.2.6-1.2,1.3-.8,1.3,1.4,1.3,2.2Z"/>
      <circle class="st11" cx="85.7" cy="342.2" r="11.2"/>
      <circle class="st7" cx="52.8" cy="114.2" r="6.7"/>
      <g class="st2">
        <g class="st2">
          <g class="st2">
            <path class="st26" d="M107.4,28.1h-1.8v-1.8h5.5v1.8h-1.8v6h-1.9v-6Z"/>
            <path class="st26" d="M116,34.1h-1.7v-.5c-.3.4-.8.7-1.4.7s-1.6-.6-1.6-1.7v-3.9h1.8v3.4c0,.3.2.4.4.4s.5-.2.6-.4v-3.4h1.8v5.4ZM111.6,27.2c0-.5.4-.9.9-.9s.9.4.9.9-.4.9-.9.9-.9-.4-.9-.9ZM113.9,27.2c0-.5.4-.9.9-.9s.9.4.9.9-.4.9-.9.9-.9-.4-.9-.9Z"/>
            <path class="st26" d="M117,26.3h2.9c1.5,0,2.8.9,2.8,2.6s-.4,1.9-1.2,2.3l1.5,2.9h-2.1l-1.2-2.6h-.7v2.6h-1.9v-7.8ZM119.9,29.8c.5,0,.9-.3.9-.9s-.4-.9-.9-.9h-.9v1.8h.9Z"/>
            <path class="st26" d="M123.6,26.3h1.9v3.1h.5l1.3-3.1h2.2l-1.8,3.9,1.9,3.9h-2.2l-1.3-3.1h-.5v3.1h-1.9v-7.8Z"/>
            <path class="st26" d="M129.9,27.1c0-.7.5-1,1-1s1,.3,1,1-.5,1-1,1-1-.3-1-1ZM130,28.7h1.8v5.4h-1.8v-5.4Z"/>
            <path class="st26" d="M134.6,31.1l-2.3-4.9h2.1l1.2,2.9,1.2-2.9h2.1l-2.3,4.9v3h-1.9v-3Z"/>
            <path class="st26" d="M139.4,26.3h4.6v1.7h-2.7v1.3h2.4v1.7h-2.4v1.4h2.8v1.7h-4.7v-7.8Z"/>
            <path class="st26" d="M146.7,26.3h1.7l1.8,3.5,1.8-3.5h1.7v7.8h-1.9v-2.3c0-.8,0-1.5.2-2.2l-1.5,2.8h-.7l-1.5-2.8c.1.7.2,1.5.2,2.2v2.3h-1.9v-7.8Z"/>
            <path class="st26" d="M156.7,26.3h1.9l2.5,7.8h-2l-.3-1.2h-2.2l-.3,1.2h-2l2.5-7.8ZM158.4,31.3l-.4-1.3c-.1-.5-.3-1.1-.3-1.7,0,.6-.2,1.2-.3,1.7l-.4,1.3h1.4Z"/>
            <path class="st26" d="M163.6,26.3h1.9l2.5,7.8h-2l-.3-1.2h-2.2l-.3,1.2h-2l2.5-7.8ZM165.3,31.3l-.4-1.3c-.1-.5-.3-1.1-.3-1.7,0,.6-.2,1.2-.3,1.7l-.4,1.3h1.4Z"/>
            <path class="st26" d="M168.5,26.3h2.9c1.5,0,2.8.9,2.8,2.6s-.4,1.9-1.2,2.3l1.5,2.9h-2.1l-1.2-2.6h-.7v2.6h-1.9v-7.8ZM171.3,29.8c.5,0,.9-.3.9-.9s-.4-.9-.9-.9h-.9v1.8h.9Z"/>
            <path class="st26" d="M174.8,27.1c0-.7.5-1,1-1s1,.3,1,1-.5,1-1,1-1-.3-1-1ZM175,28.7h1.8v5.4h-1.8v-5.4Z"/>
            <path class="st26" d="M182.5,28.1h-2.8v1.4h2.5v1.8h-2.5v2.7h-1.9v-7.8h4.7v1.8Z"/>
            <path class="st26" d="M184.2,26.3h2.1l1,4.1c.1.5.2,1,.3,1.7,0-.6.2-1.2.3-1.7l1-4.1h2.1l-2.3,7.8h-2.1l-2.3-7.8Z"/>
            <path class="st26" d="M192.6,26.3h1.9l2.5,7.8h-2l-.3-1.2h-2.2l-.3,1.2h-2l2.5-7.8ZM194.3,31.3l-.4-1.3c-.1-.5-.3-1.1-.3-1.7,0,.6-.2,1.2-.3,1.7l-.4,1.3h1.4Z"/>
            <path class="st26" d="M197.6,26.3h1.9v3.1h.5l1.3-3.1h2.2l-1.8,3.9,1.9,3.9h-2.2l-1.3-3.1h-.5v3.1h-1.9v-7.8Z"/>
            <path class="st26" d="M208.8,28.1h-2.8v1.4h2.5v1.8h-2.5v2.7h-1.9v-7.8h4.7v1.8Z"/>
            <path class="st26" d="M211.6,34.1h-1.9v-7.8h1.9v7.8Z"/>
          </g>
        </g>
      </g>
      <path class="st26" d="M90.3,37.8l-2.8,2.8-3.5-3.5,3.5-3.5,1.1,1.1-2.4,2.4,1.4,1.4,2-2v-3.6l-2-2h-3.6l-2,2,1.4,1.4,2.4-2.4,1.1,1.1-3.5,3.5-3.5-3.5,2.8-2.8-2.8-2.8,3.5-3.5,3.5,3.5-1.1,1.1-2.4-2.4-1.4,1.4,2,2h3.6l2-2v-3.6l-2-2-1.4,1.4,2.4,2.4-1.1,1.1-3.5-3.5,3.5-3.5,2.8,2.8,2.8-2.8,3.5,3.5-3.5,3.5-1.1-1.1,2.4-2.4-1.4-1.4-2,2v3.6l2,2h3.6l2-2-1.4-1.4-2.4,2.4-1.1-1.1,3.5-3.5,3.5,3.5-2.8,2.8,2.8,2.8-3.5,3.5-3.5-3.5,1.1-1.1,2.4,2.4,1.4-1.4-2-2h-3.6l-2,2v3.6l2,2,1.4-1.4-2.4-2.4,1.1-1.1,3.5,3.5-3.5,3.5-2.8-2.8h0ZM90.3,31.4l1.3-1.4-1.3-1.4-1.3,1.4,1.3,1.4Z"/>
      <path class="st6" d="M185.5,273.7l-10.2,2c.1-.1.2-.2.3-.3h0c.1-.2.2-.3.3-.5h0c0-.2.1-.3.1-.4v-.2h0v-.5h0v-3.5.4c0-.5,0-1.1-.3-1.6-.2-.4-.6-.8-1.2-1.2-.6-.5-1.7-1.1-3.4-2.1l-2.2-1.2-6.5,2.8s0-.2.1-.3v-.2h0v-.5h0v-3.5.4c0-.5,0-1.1-.3-1.6-.2-.4-.6-.8-1.2-1.2-.6-.5-1.7-1.1-3.4-2.1l-2.2-1.3-9.3,3.9,3.9-3.5v-3.5l-4.2-2.4-8.7,1.7c.1,0,.2-.2.4-.3h.1v-.3c0,0,0,0,0,0h0s0-.1.1-.2h0v-.4h0v-3.5h0c0-.3,0-.6-.3-.9-.2-.3-.5-.5-.9-.8s-1.2-.8-2.3-1.4l-2.9-1.7-9.3,3.9,4-3.6v-3.5l-4.2-2.4-5.5,1.1.8-.3v-3.5l-8.9-5.2-4.1-2.4h-4c0,.1,0-2.3,0-2.3l-3.4-2-9.4,4,4-3.6v-3.5l-4.2-2.4-10.8,2.1,4.1-2.5v-3.5l-3.7-2.2-4.1.9v-3.2l-3.8-2.2-16.4,5.1v3.5l3.3,1.9,3.7-1.2v3.3l2,1.2,3.6-.8v2.9l3.1,1.8h0l3.7,2.1,3.6-.7,2.6,1.5v2.7l3.4,2,.7-.6v1l3.4,1.9,4.9-2.1-.4,1.1v3.5l4,2.3,2.1-6.2h8.8v.6l-8.3,3.5v3.5l3.4,2,3.2-1.3v3.1l3.7,2.1,3.6-.7,2.6,1.5v2.7l3.4,2,.7-.6v1l3.3,1.9.9.5c1.3.8,2.3,1.3,2.9,1.5h0c.3.1.5.2.8.3h0c0,0,.3,0,.4.1h1.2v1.1l3.7,2.1,3.6-.7,2.6,1.5v2.7l3.4,2,.7-.6v1l2.4,1.4.5.3c.5.3,1,.5,1.4.8.1,0,.3.1.4.2.3.1.6.3.8.4.1,0,.3.1.4.2.2.1.4.2.6.3.1,0,.2.1.4.2.1,0,.3.1.4.2h.2c.4.1.7.2,1,.3.1,0,.3,0,.4.1h.6c.3,0,.5.1.8.1h3.1v2.9l2.4,1.4.5.3c.5.3,1,.5,1.4.8.1,0,.3.1.4.2.3.1.6.3.8.4.1,0,.3.1.4.2.2.1.4.2.6.3.1,0,.2.1.4.2.1,0,.3.1.4.2h.2c.4.1.7.2,1.1.4.1,0,.3,0,.4.1h.6c.3,0,.5.1.8.1h1.6v2l3.7,2.1,3.6-.7,2.6,1.5v2.7l3.4,2,9.9-8.9v-3.5l-4.2-2.4h0l.3.4ZM170.1,271.6c-1.3.8-2.6,1.1-4,1.1h-.6l3.8-1.6.6.4s.1.1.2.1h0ZM156.7,263.9c-1.3.8-2.6,1.1-4,1.1h-.6l3.8-1.6.6.4s.1.1.2.1h0ZM176.1,270.8h0c0,.2-.1.3-.2.5,0-.2.1-.4.2-.5h0ZM162.8,263.1h0c0,.2-.1.3-.2.5,0-.2.1-.4.2-.5h0ZM132.3,249.9h0c.2,0,.4.1.6.2h0c-.2,0-.4,0-.6-.2ZM132.1,249.8h-.1.1ZM132.4,253.4c.1,0,.3,0,.4.1h-.7c0,.1,0-.2,0-.2h.3ZM111.6,238l1.9,1.1-8.5,1.6,6.5-2.8h0Z"/>
      <path class="st23" d="M162.5,300.9v-1l2.6.3c0-.2.1-.4.1-.5h0v-.6h0v-3.6.3c0-.6,0-1.2-.3-1.8-.4-.8-1.2-1.5-2.4-2.2-1-.6-2.2-1-3.4-1.4-1.2-.3-2.5-.5-3.8-.5h-1.6v-3l-3.4-2-2.8,1.2v-2.8l-3.4-2-5.5,2.3,1-1.5v-3.5l-3.9-2.2-6.4,2.7h0v-.5h0v-.4h0v-3.6.2-.3c0-1.3-1.1-2.5-3-3.6-1.1-.7-2.4-1.1-3.8-1.5-1.4-.3-2.8-.4-4.3-.4s-2.4.2-3.5.5c-.2,0-.5.2-.7.2v-.4h0v-3.6.2-.4c0-1.3-1.1-2.5-3-3.6-1.1-.7-2.4-1.1-3.8-1.5-1.4-.3-2.8-.4-4.3-.4s-2,.2-2.9.4v-3.3h0c0-.2,0-.6-.3-1-.2-.3-.5-.6-.9-.9-.4-.3-1.1-.8-2.2-1.4l-3.4-1.9-9.4,4,4-3.6v-3.5l-4.2-2.4-5.5,1.1.8-.3v-3.5l-8.9-5.2-4.1-2.4h-4c0,.1,0-2.3,0-2.3l-3.4-2-2.4,1v-2.4l-7.3-4.2-12.6,5.3v-1.5l-.7-.4,7.6-3.2v-3.5l-3.4-2-2.4,1v-2.4l-7.3-4.2-14.6,6.1v3.5l7.3,4.2,2.4-1v2.4l7.6,4.4,1.5-.6v1.5l7.3,4.2,2.4-1v2.4l3.3,1.9,4.9-2.1-.4,1.1v3.5l4,2.3,2.1-6.2h8.8v.6l-8.3,3.5v3.5l3.4,2,3.2-1.3v3.1l3.7,2.1,3.6-.7,2.6,1.5v2.7l3.4,2,.7-.6v1l3.4,1.9,3.2-1.4v3.2l3.8,2.2,1.9-4.7h.2c.2,0,.3.1.5.2,0,0,.2,0,.3.1h0c.2,0,.4.1.7.2h1.6c-.4.6-.6,1.2-.5,1.9v-.3,3.8c0,.6.4,1.2.9,1.8s1.2,1.1,2.1,1.6c.3.2.6.3.9.5,0,0,.2,0,.3.1.2,0,.4.2.6.2h0c.4.1.8.3,1.1.4h0c.3,0,.5.1.8.2h6.2c.4,0,.9-.2,1.3-.3.2,0,.4-.1.6-.2h.2v.8-.3,3.8c0,.6.4,1.2.9,1.8s1.2,1.1,2.1,1.6c.3.2.6.3.9.5,0,0,.2,0,.3.1.2,0,.4.2.6.2h0c.4.1.8.3,1.1.4h0c.3,0,.5.1.8.2h4.8v2.9l3.4,2,5.8-2.5-1.1,1.7v3.5l3.7,2.1,2.8-1.2v2.7l3.4,2,6.5-2.7c-.2.4-.3.9-.3,1.4v-.2,3.7c0,1.3,1.1,2.5,3.1,3.7.3.1.5.3.8.4,0,0,.2,0,.3.1.2,0,.4.2.6.2h.1c.3.1.6.2.8.3h.3c.2,0,.3,0,.5.1h2.8v1.6l3.7,2.1,3.6-.7,2.6,1.5v2.7l3.4,2,9.9-8.9v-3.5l-4.2-2.4-11.5,2.2h0l1,2.3ZM151.8,297.3c.3-.2.6-.3.8-.4,0,0,.2,0,.3-.1h.3v1.3c-.2,0-.3,0-.5-.1-.4-.1-.7-.3-1-.5h.1c0-.1,0-.2,0-.2ZM165.4,296h0c0,.2,0,.4-.1.6h0c0-.2.1-.4.2-.6h0ZM160.9,295.2h0q0-.1,0,0ZM92.5,260.2h0c.3,0,.6.1.9.2h0c-.3,0-.6-.1-.8-.2h0ZM101.5,267.2s.2,0,.2-.1c.2,0,.4-.1.5-.2.2,0,.3,0,.5-.1.2,0,.4,0,.6-.1h2.1c.3,0,.6,0,.9.1h0c.3,0,.5.1.8.2h0c.3.1.6.2.8.4h0c-1.1.6-2.4,1-3.9,1s-2.7-.2-3.7-.8h.2c.2-.2.5-.4.8-.5h0ZM91.9,260h0s.2,0,.3.1h0s-.2,0-.3-.1ZM112.8,268.9s0,0,.2-.1h0c0,.1,0,.1,0,.1ZM114.5,266.6h0c0,.1,0,0,0-.1h0ZM116.7,276s.2,0,.2-.1c.2,0,.4-.1.5-.2.2,0,.3,0,.5-.1.2,0,.4,0,.6-.1h2.1c.3,0,.6,0,.9.1h0c.3,0,.5.1.8.2h0c.3.1.6.2.8.4h0c-1.1.6-2.4,1-3.9,1s-2.7-.2-3.7-.8h.2c.2-.2.5-.4.8-.5h0ZM128,277.7s0,0,.2-.1h0c0,.1,0,.1,0,.1ZM129.7,275.3h0c0,.1,0,0,0-.1h0ZM129.6,275.8v.2-.2h0ZM129.4,276.2s0,.1-.1.1h0s0-.1.1-.2h0ZM129.1,276.6h0c0,.1,0,0,.1-.1h-.1ZM128.6,277.1h0q0,.1,0,0h0ZM114.3,267v.2-.2h0ZM114.1,267.4h0c0,.1,0,0,0-.1h0ZM113.8,267.8h0q0,.1,0-.1h0ZM113.4,268.3h0q0,.1,0,0h0ZM127.6,277.9h0s-.2.1-.3.2c0,0,.2-.1.3-.2h0ZM112.3,269.1h0s-.2.1-.3.2c0,0,.2-.1.3-.2h0ZM100.5,257.8h0v.2-.4h0v.2ZM73.3,247.4l1.9,1.1-8.5,1.6,6.5-2.8h0ZM50.6,234.3l1.5.9-1.5.6v-1.5ZM46.6,237.5l-1.3.5v-1.3l1.3.7h0ZM31.9,223.5l1.5.9-1.5.6v-1.5ZM27.8,226.7l-1.3.5v-1.3l1.3.7h0Z"/>
      <g class="st2">
        <g class="st25">
          <g>
            <path class="st9" d="M81,213.1l-3.7-2.2-7.2,1.6c-.6.1-1.2.3-1.5.4-.4.1-.8.2-1.1.3.3-.2.6-.4.9-.7s.6-.4.8-.6l4-3.3-3.8-2.2-16.4,5.1,3.3,1.9,7.7-2.5c.4-.1.8-.3,1.2-.4.4-.1.8-.3,1.3-.5-.3.2-.6.4-.8.6-.3.2-.5.4-.8.6l-4.9,4.2,2,1.2,9-1.9h.4c.9-.2,1.7-.4,2.2-.6-.3.2-.7.4-1,.6-.3.2-.7.4-1,.6l-6,3.5,3.1,1.8,12.3-7.5"/>
            <path class="st9" d="M80.2,221.2l4.2-.9c.2,0,.5-.1.8-.2.4,0,.8-.2,1.2-.3-.2.1-.4.3-.6.4-.2.1-.4.3-.7.5l-2.4,2-2.7-1.5M92,219.5l-4.2-2.4-18.9,3.6,3.7,2.1,3.6-.7,4.4,2.6-1.9,1.7,3.4,2,9.9-8.9"/>
            <polyline class="st9" points="108.8 229.2 104.7 226.8 94.6 227.1 100.7 224.5 97.3 222.6 82.8 228.7 86.1 230.7 92.6 228 90.6 233.2 94.6 235.5 96.6 229.4 108.5 229.3 108.8 229.2"/>
            <polyline class="st9" points="117.8 234.4 108.8 229.2 108.5 229.3 105.4 230.6 108.3 232.2 97.1 237 100.5 238.9 111.7 234.2 114.3 235.8 117.8 234.4"/>
            <path class="st9" d="M114.9,241.3l4.2-.9c.2,0,.4-.1.8-.2s.8-.2,1.2-.3c-.2.1-.4.3-.6.4-.2.1-.4.3-.7.5l-2.4,2-2.7-1.5M126.7,239.5l-4.2-2.4-18.9,3.6,3.7,2.1,3.6-.7,4.4,2.6-1.9,1.7,3.4,2,9.9-8.9"/>
            <path class="st9" d="M123.7,249.5l3.4-1.4.6.4c.7.4,1.1.7,1.2,1,0,.3,0,.6-.5.8-.6.4-1.2.5-1.8.5s-1.4-.4-2.4-1l-.4-.2M129.7,246.9l2.8-1.2.5.3c.6.3.9.6.9.8s0,.5-.4.7c-.5.3-1,.4-1.6.4s-1.2-.3-2-.8l-.3-.2M135,244.3l-2.9-1.7-14.6,6.1,3.3,1.9.9.5c1.3.8,2.3,1.3,2.9,1.5.7.3,1.3.4,1.9.5.8.1,1.6,0,2.5,0,.8-.1,1.6-.4,2.2-.8.8-.4,1.2-.9,1.3-1.5,0-.5-.2-1.1-.9-1.6.9.4,1.9.6,2.9.6s1.9-.3,2.8-.8c.6-.4,1-.8,1.2-1.2.2-.5,0-.9-.2-1.3-.2-.3-.5-.5-.9-.8s-1.2-.8-2.3-1.4"/>
            <path class="st9" d="M138.6,254.9l4.2-.9c.2,0,.4-.1.8-.2s.8-.2,1.2-.3c-.2.1-.4.2-.6.4-.2.1-.4.3-.6.5l-2.4,2-2.7-1.5M150.4,253.2l-4.2-2.4-18.9,3.6,3.7,2.1,3.6-.7,4.4,2.6-1.9,1.7,3.4,2,9.9-8.9"/>
            <path class="st9" d="M148.3,263.4c-.1,0-.3-.2-.5-.3l8.1-3.5.6.4c1.1.7,1.7,1.3,1.8,1.9,0,.6-.5,1.2-1.6,1.8-1.3.8-2.6,1.1-4,1.1s-2.8-.4-4.1-1.2l-.3-.2M157.9,257.5l-2.2-1.3-14.6,6.2,2.4,1.4.5.3c2,1.2,3.6,2,4.6,2.4,1.1.4,2.1.6,3.2.8,1.5.1,3,.1,4.3-.2,1.3-.3,2.6-.8,3.8-1.5s2.1-1.5,2.5-2.3.4-1.6,0-2.4-.6-.8-1.2-1.2c-.6-.5-1.7-1.1-3.4-2.1"/>
            <path class="st9" d="M161.7,271.1c-.1,0-.3-.2-.5-.3l8.1-3.4.6.4c1.1.7,1.7,1.3,1.8,1.9s-.5,1.2-1.6,1.8c-1.3.8-2.6,1.1-4,1.1s-2.8-.4-4.1-1.2l-.3-.2M171.2,265.2l-2.2-1.2-14.6,6.2,2.4,1.4.5.3c2,1.2,3.6,2,4.6,2.4s2.1.6,3.2.8c1.5.1,3,0,4.3-.2,1.3-.3,2.6-.8,3.8-1.5s2.1-1.5,2.5-2.3.4-1.6,0-2.4-.6-.8-1.2-1.2c-.6-.5-1.7-1.1-3.4-2.1"/>
            <path class="st9" d="M177.9,277.6l4.2-.9c.2,0,.5-.1.8-.2s.8-.2,1.2-.3c-.2.1-.4.2-.6.4-.2.1-.4.3-.6.5l-2.4,2-2.7-1.5M189.7,275.9l-4.2-2.4-18.9,3.6,3.7,2.1,3.6-.7,4.4,2.5-1.9,1.7,3.4,2,9.9-8.9"/>
            <polyline class="st9" points="37.9 219.8 30.6 215.6 16 221.8 23.3 226 26.6 224.6 22.7 222.4 25.1 221.3 28.7 223.4 31.9 222.1 28.3 220 30.6 219 34.6 221.2 37.9 219.8"/>
            <polyline class="st9" points="43.7 223.1 40.3 221.2 25.7 227.3 33.3 231.7 36.8 230.2 32.6 227.8 43.7 223.1"/>
            <polyline class="st9" points="56.6 230.6 49.3 226.4 34.8 232.6 42.1 236.8 45.3 235.4 41.4 233.1 43.8 232.1 47.4 234.2 50.6 232.9 47 230.8 49.3 229.8 53.3 232 56.6 230.6"/>
            <polyline class="st9" points="70.4 238.6 66.3 236.2 56.3 236.5 62.4 233.9 59 232 44.4 238.1 47.8 240.1 54.2 237.4 52.2 242.6 56.2 244.9 58.3 238.8 70.1 238.7 70.4 238.6"/>
            <polyline class="st9" points="79.4 243.8 70.4 238.6 70.1 238.7 67 240 69.9 241.7 58.7 246.4 62.1 248.3 73.3 243.6 76 245.2 79.4 243.8"/>
            <path class="st9" d="M76.6,250.7l4.2-.9c.2,0,.4-.1.8-.2s.8-.2,1.2-.3c-.2.1-.4.3-.6.4-.2.1-.4.3-.7.5l-2.4,2-2.7-1.5M88.4,249l-4.2-2.4-18.9,3.6,3.7,2.1,3.6-.7,4.4,2.6-1.9,1.7,3.4,2,9.9-8.9"/>
            <path class="st9" d="M90.4,256.8l3.8-1.6.5.3c.7.4,1.1.8,1.2,1.1,0,.3,0,.7-.7,1s-1.2.5-1.8.5-1.3-.2-2-.6l-1.1-.6M97.1,254l-3.4-1.9-14.6,6.2,3.4,1.9,5.6-2.4-2.4,4.2,3.8,2.2,1.9-4.7c1.3.5,2.6.8,3.9.7,1.3,0,2.5-.4,3.6-1,.8-.4,1.2-.9,1.4-1.4.2-.5.2-1-.2-1.6s-.5-.6-.9-.9c-.4-.3-1.1-.8-2.2-1.4"/>
            <path class="st9" d="M100.6,267.4c-.9-.5-1.4-1.1-1.4-1.8s.5-1.3,1.5-1.8c1.1-.6,2.4-1,3.8-1s2.7.3,3.7.9c.9.5,1.3,1.1,1.3,1.8s-.5,1.3-1.4,1.8c-1.1.6-2.4,1-3.9,1s-2.7-.2-3.7-.8M111.5,262c-1.1-.7-2.4-1.1-3.8-1.5-1.4-.3-2.8-.4-4.3-.4s-2.4.2-3.5.5-2.1.7-3.1,1.3c-.9.5-1.5,1.1-2,1.7-.4.6-.6,1.3-.5,2,0,.6.4,1.2.9,1.8s1.2,1.1,2.1,1.6c1.2.7,2.4,1.1,3.8,1.5,1.4.3,2.8.4,4.3.4s2.4-.2,3.5-.5,2.1-.7,3.1-1.3c1.7-1,2.6-2.2,2.5-3.5,0-1.3-1.1-2.5-3-3.6"/>
            <path class="st9" d="M115.8,276.2c-.9-.5-1.4-1.1-1.4-1.8s.5-1.3,1.5-1.8c1.1-.6,2.4-1,3.8-1s2.7.3,3.7.9c.9.5,1.3,1.1,1.3,1.8s-.5,1.3-1.4,1.8c-1.1.6-2.4,1-3.9,1s-2.7-.2-3.7-.8M126.7,270.8c-1.1-.7-2.4-1.1-3.8-1.5-1.4-.3-2.8-.4-4.3-.4s-2.4.2-3.5.5-2.1.7-3.1,1.3c-.9.5-1.5,1.1-2,1.7-.4.6-.6,1.3-.5,2,0,.6.4,1.2.9,1.8s1.2,1.1,2.1,1.6c1.2.7,2.4,1.1,3.8,1.5s2.8.4,4.3.4,2.4-.2,3.5-.5,2.1-.7,3.1-1.3c1.7-1,2.6-2.2,2.5-3.5,0-1.3-1.1-2.5-3-3.6"/>
            <path class="st9" d="M147.7,283.2l-3.4-2-7.1,3c-.4.2-.8.4-1.1.5s-.6.3-.8.4l-.3.2c.4-.4.8-.8,1.2-1.4,0-.1.1-.2.2-.2l3.5-5.1-3.9-2.2-14.6,6.1,3.4,2,7.3-3.1c.5-.2.8-.4,1.1-.5s.5-.3.8-.4l.4-.2c-.2.2-.4.5-.6.7s-.4.5-.7.9l-3.6,5.4,3.7,2.1,14.6-6.1"/>
            <polyline class="st9" points="153.9 286.8 150.4 284.8 135.9 290.9 139.3 292.9 153.9 286.8"/>
            <path class="st9" d="M162.6,291.5c-1-.6-2.2-1-3.4-1.4-1.2-.3-2.5-.5-3.8-.5s-2.7.2-3.9.5-2.4.8-3.4,1.4c-1.8,1.1-2.7,2.2-2.6,3.5,0,1.3,1.1,2.5,3.1,3.7s4.3,1.7,6.7,1.7,4.8-.7,7.1-2l-6.4-3.7-3,1.3,2.9,1.7c-.4.1-.8.2-1.1.2h-1.1c-.4,0-.8-.1-1.2-.3-.4-.1-.7-.3-1.1-.5-.9-.5-1.3-1.1-1.3-1.8s.5-1.3,1.5-1.8c1.2-.7,2.5-1,3.9-1.1,1.4,0,2.7.2,3.8.9.6.4,1,.8,1.2,1.2.2.4.2.9,0,1.4l4.5.5c.3-1,.3-1.8-.1-2.6s-1.2-1.5-2.4-2.2"/>
            <path class="st9" d="M166.5,302.6l4.2-.9c.2,0,.4-.1.8-.2.4,0,.8-.2,1.2-.3-.2.1-.4.3-.6.4-.2.1-.4.3-.6.5l-2.4,2-2.7-1.5M178.3,300.9l-4.2-2.4-18.9,3.6,3.7,2.1,3.6-.7,4.4,2.5-1.9,1.7,3.4,2,9.9-8.9"/>
          </g>
        </g>
      </g>
    </g>
  </g>
</svg>