<?xml version="1.0" encoding="utf-8"?>
<svg version="1.1" id="Layer_1" xmlns="http://www.w3.org/2000/svg" xmlns:xlink="http://www.w3.org/1999/xlink" x="0px" y="0px" viewBox="0 0 170.079 58.186" enable-background="new 0 0 170.079 58.186"
	 xml:space="preserve">
<g>
	<g>
		<g>
			<polygon fill="#fff" points="67.131,18.427 64.229,18.427 64.229,15.712 73.15,15.712 73.15,18.427 70.248,18.427 
				70.248,27.292 67.131,27.292 			"/>
			<path fill="#fff" d="M74.146,23.587v-3.878h3.138v3.631c0,1.042,0.563,1.472,1.575,1.472c1.033,0,1.597-0.43,1.597-1.472
				v-3.631h3.12v3.878c0,2.712-1.832,3.937-4.717,3.937C75.997,27.521,74.146,26.299,74.146,23.587"/>
			<path fill="#fff" d="M85.279,15.712h4.717c2.444,0,4.479,1.277,4.479,3.905c0,1.651-0.727,2.812-1.954,3.407l2.37,4.268H91.5
				l-2.011-3.771h-1.069v3.771h-3.141V15.712z M89.867,20.973c0.885,0,1.469-0.467,1.469-1.309s-0.584-1.306-1.469-1.306h-1.447
				v2.613L89.867,20.973L89.867,20.973z"/>
			<polygon fill="#fff" points="95.921,15.712 99.06,15.712 99.06,20.248 99.837,20.248 101.921,15.712 105.55,15.712 
				102.56,21.504 105.662,27.292 102.037,27.292 99.859,22.779 99.06,22.779 99.06,27.292 95.921,27.292 			"/>
			<polygon fill="#fff" points="114.253,22.908 110.462,15.713 113.875,15.713 115.814,20.061 117.737,15.713 121.166,15.713 
				117.375,22.908 117.375,27.292 114.253,27.292 			"/>
			<polygon fill="#fff" points="122.017,15.712 129.505,15.712 129.505,18.26 125.151,18.26 125.151,20.227 129.085,20.227 
				129.085,22.709 125.151,22.709 125.151,24.713 129.614,24.713 129.614,27.292 122.017,27.292 			"/>
			<rect x="106.457" y="19.71" fill="#fff" width="3.14" height="7.582"/>
			<rect x="106.457" y="15.713" fill="#fff" width="3.14" height="2.861"/>
			<rect x="74.146" y="15.713" fill="#fff" width="3.138" height="2.861"/>
			<rect x="80.437" y="15.713" fill="#fff" width="3.139" height="2.861"/>
		</g>
		<g>
			<g>
				<path fill="#fff" d="M125.63,30.665h3.334l1.611,6.191c0.186,0.76,0.327,1.57,0.473,2.529
					c0.129-0.959,0.272-1.77,0.457-2.529l1.613-6.191h3.336l-3.701,11.811h-3.426L125.63,30.665z"/>
				<path fill="#fff" d="M139.229,30.667h3.153l4.023,11.807h-3.262l-0.527-1.771h-3.607l-0.523,1.771h-3.283L139.229,30.667z
					 M141.966,38.308l-0.6-2.027c-0.214-0.775-0.419-1.602-0.564-2.543c-0.145,0.941-0.324,1.768-0.543,2.543l-0.612,2.027H141.966z
					"/>
				<polygon fill="#fff" points="147.226,30.665 150.362,30.665 150.362,35.29 151.141,35.29 153.226,30.665 156.851,30.665 
					153.86,36.57 156.958,42.474 153.337,42.474 151.158,37.87 150.362,37.87 150.362,42.474 147.226,42.474 				"/>
				<polygon fill="#fff" points="165.357,33.433 160.894,33.433 160.894,35.593 165.015,35.593 165.015,38.361 160.894,38.361 
					160.894,42.474 157.757,42.474 157.757,30.665 165.357,30.665 				"/>
				<rect x="166.721" y="30.665" fill="#fff" width="3.133" height="11.811"/>
			</g>
			<g>
				<path fill="#fff" d="M64.229,30.665h2.704l2.989,5.164l2.995-5.164h2.7v11.58h-3.065v-3.428c0-1.107,0.111-2.182,0.31-3.271
					l-2.391,4.168h-1.072l-2.393-4.168c0.194,1.09,0.288,2.164,0.288,3.271v3.428h-3.065V30.665z"/>
				<path fill="#fff" d="M80.458,30.665h3.154l4.029,11.58h-3.263l-0.53-1.74h-3.605l-0.526,1.74h-3.286L80.458,30.665z
					 M83.203,38.161l-0.604-1.988c-0.217-0.76-0.423-1.57-0.565-2.494c-0.141,0.924-0.325,1.734-0.543,2.494l-0.613,1.988H83.203z"
					/>
				<path fill="#fff" d="M91.52,30.665h3.157l4.025,11.58h-3.266l-0.525-1.74h-3.607l-0.525,1.74H87.5L91.52,30.665z
					 M94.255,38.161l-0.596-1.988c-0.217-0.76-0.418-1.57-0.558-2.494c-0.151,0.924-0.333,1.734-0.552,2.494l-0.614,1.988H94.255z"
					/>
				<path fill="#fff" d="M99.517,30.665h4.711c2.453,0,4.484,1.277,4.484,3.904c0,1.65-0.729,2.813-1.965,3.406l2.381,4.27
					h-3.395l-2.009-3.771h-1.075v3.771h-3.134L99.517,30.665L99.517,30.665z M104.106,35.927c0.888,0,1.467-0.467,1.467-1.309
					s-0.579-1.307-1.467-1.307h-1.455v2.613h1.455V35.927z"/>
				<polygon fill="#fff" points="122.669,33.38 118.208,33.38 118.208,35.495 122.328,35.495 122.328,38.21 118.208,38.21 
					118.208,42.245 115.071,42.245 115.071,30.665 122.669,30.665 				"/>
				<rect x="110.162" y="34.661" fill="#fff" width="3.137" height="7.584"/>
				<rect x="110.162" y="30.665" fill="#fff" width="3.137" height="2.861"/>
			</g>
		</g>
	</g>
	<path fill="#fff" d="M28.556,49.929l-7.464,7.465l-9.416-9.42l9.416-9.418l2.885,2.885l-6.539,6.533l3.654,3.656l5.421-5.422
		v-9.736l-5.331-5.332h-9.771l-5.422,5.422l3.654,3.658l6.532-6.541l2.883,2.883l-9.417,9.42l-9.416-9.42l7.462-7.463l-7.462-7.466
		l9.416-9.421l9.417,9.421l-2.883,2.882l-6.532-6.538l-3.654,3.656l5.419,5.419h9.773l5.332-5.329v-9.743l-5.422-5.424l-3.654,3.653
		l6.539,6.54l-2.885,2.88l-9.416-9.42l9.416-9.417l7.464,7.465l7.462-7.465l9.416,9.417l-9.416,9.42l-2.882-2.883l6.535-6.537
		l-3.653-3.653l-5.421,5.424v9.74l5.331,5.334h9.718l5.423-5.421l-3.654-3.656l-6.535,6.538L38,21.634l9.413-9.421l9.417,9.421
		l-7.462,7.466l7.462,7.464l-9.417,9.42L38,36.562l2.879-2.885l6.533,6.543l3.655-3.658l-5.42-5.422h-9.721l-5.331,5.334v9.734
		l5.421,5.422l3.653-3.656l-6.535-6.533l2.882-2.885l9.416,9.418l-9.416,9.42L28.556,49.929z M28.557,32.738l3.64-3.639l-3.64-3.642
		l-3.641,3.642L28.557,32.738z"/>
</g>
</svg>
