<?xml version="1.0" encoding="UTF-8"?><svg id="Layer_1" xmlns="http://www.w3.org/2000/svg" viewBox="0 0 156.89 47.3"><defs><style>.cls-1{fill:#fefefe;stroke-width:0px;}.cls-2{isolation:isolate;}</style></defs><g class="cls-2"><path class="cls-1" d="m44.06,23.61h-1.79v-1.84h5.52v1.84h-1.79v6.01h-1.93v-6.01Z"/><path class="cls-1" d="m52.7,29.63h-1.66v-.49c-.31.38-.75.65-1.44.65-.78,0-1.61-.56-1.61-1.68v-3.86h1.84v3.4c0,.3.16.44.43.44s.47-.17.61-.38v-3.45h1.84v5.38Zm-4.46-6.88c0-.52.42-.93.93-.93s.93.42.93.93-.42.93-.93.93-.93-.42-.93-.93Zm2.28,0c0-.52.42-.93.93-.93s.93.42.93.93-.42.93-.93.93-.93-.42-.93-.93Z"/><path class="cls-1" d="m53.69,21.77h2.92c1.51,0,2.77.86,2.77,2.65,0,1.12-.45,1.91-1.21,2.31l1.47,2.89h-2.1l-1.25-2.56h-.66v2.56h-1.94v-7.85Zm2.84,3.57c.55,0,.91-.31.91-.89s-.36-.89-.91-.89h-.9v1.77h.9Z"/><path class="cls-1" d="m60.27,21.77h1.94v3.07h.48l1.29-3.07h2.24l-1.85,3.92,1.92,3.93h-2.24l-1.35-3.06h-.49v3.06h-1.94v-7.85Z"/><path class="cls-1" d="m66.57,22.57c0-.7.49-.99,1.04-.99s1.03.29,1.03.99-.48,1.01-1.03,1.01-1.04-.31-1.04-1.01Zm.12,1.67h1.84v5.38h-1.84v-5.38Z"/><path class="cls-1" d="m71.3,26.65l-2.34-4.88h2.11l1.2,2.95,1.19-2.95h2.12l-2.34,4.88v2.97h-1.93v-2.97Z"/><path class="cls-1" d="m76.1,21.77h4.63v1.73h-2.69v1.33h2.43v1.68h-2.43v1.36h2.76v1.75h-4.7v-7.85Z"/><path class="cls-1" d="m83.42,21.77h1.67l1.85,3.5,1.85-3.5h1.67v7.85h-1.9v-2.32c0-.75.07-1.48.19-2.22l-1.48,2.83h-.66l-1.48-2.83c.12.74.18,1.47.18,2.22v2.32h-1.9v-7.85Z"/><path class="cls-1" d="m93.46,21.77h1.95l2.49,7.85h-2.02l-.33-1.18h-2.23l-.33,1.18h-2.03l2.49-7.85Zm1.69,5.08l-.37-1.35c-.13-.52-.26-1.07-.35-1.69-.09.63-.2,1.18-.34,1.69l-.38,1.35h1.44Z"/><path class="cls-1" d="m100.3,21.77h1.95l2.49,7.85h-2.02l-.33-1.18h-2.23l-.33,1.18h-2.03l2.49-7.85Zm1.69,5.08l-.37-1.35c-.13-.52-.26-1.07-.35-1.69-.09.63-.2,1.18-.34,1.69l-.38,1.35h1.44Z"/><path class="cls-1" d="m105.25,21.77h2.92c1.51,0,2.77.86,2.77,2.65,0,1.12-.45,1.91-1.21,2.31l1.47,2.89h-2.1l-1.25-2.56h-.66v2.56h-1.94v-7.85Zm2.84,3.57c.55,0,.91-.31.91-.89s-.36-.89-.91-.89h-.9v1.77h.9Z"/><path class="cls-1" d="m111.61,22.57c0-.7.49-.99,1.04-.99s1.03.29,1.03.99-.48,1.01-1.03,1.01-1.04-.31-1.04-1.01Zm.12,1.67h1.84v5.38h-1.84v-5.38Z"/><path class="cls-1" d="m119.26,23.61h-2.76v1.44h2.55v1.84h-2.55v2.74h-1.94v-7.85h4.7v1.84Z"/><path class="cls-1" d="m121.03,21.77h2.06l1,4.12c.11.5.2,1.04.29,1.68.08-.64.17-1.18.28-1.68l1-4.12h2.06l-2.29,7.85h-2.12l-2.29-7.85Z"/><path class="cls-1" d="m129.44,21.77h1.95l2.49,7.85h-2.02l-.33-1.18h-2.23l-.33,1.18h-2.03l2.49-7.85Zm1.69,5.08l-.37-1.35c-.13-.52-.26-1.07-.35-1.69-.09.63-.2,1.18-.34,1.69l-.38,1.35h1.44Z"/><path class="cls-1" d="m134.39,21.77h1.94v3.07h.48l1.29-3.07h2.24l-1.85,3.92,1.92,3.93h-2.24l-1.35-3.06h-.49v3.06h-1.94v-7.85Z"/><path class="cls-1" d="m145.61,23.61h-2.76v1.44h2.55v1.84h-2.55v2.74h-1.94v-7.85h4.7v1.84Z"/><path class="cls-1" d="m148.39,29.63h-1.94v-7.85h1.94v7.85Z"/></g><path class="cls-1" d="m27,33.32l-2.77,2.77-3.49-3.5,3.49-3.5,1.07,1.07-2.43,2.43,1.36,1.36,2.01-2.01v-3.61l-1.98-1.98h-3.63l-2.01,2.01,1.36,1.36,2.42-2.43,1.07,1.07-3.49,3.5-3.49-3.5,2.77-2.77-2.77-2.77,3.49-3.5,3.49,3.5-1.07,1.07-2.42-2.43-1.36,1.36,2.01,2.01h3.63l1.98-1.98v-3.62l-2.01-2.01-1.36,1.36,2.43,2.43-1.07,1.07-3.49-3.5,3.49-3.5,2.77,2.77,2.77-2.77,3.49,3.5-3.49,3.5-1.07-1.07,2.43-2.43-1.36-1.36-2.01,2.01v3.62l1.98,1.98h3.61l2.01-2.01-1.36-1.36-2.43,2.43-1.07-1.07,3.49-3.5,3.5,3.5-2.77,2.77,2.77,2.77-3.5,3.5-3.49-3.5,1.07-1.07,2.42,2.43,1.36-1.36-2.01-2.01h-3.61l-1.98,1.98v3.61l2.01,2.01,1.36-1.36-2.43-2.43,1.07-1.07,3.49,3.5-3.49,3.5-2.77-2.77h.01Zm0-6.38l1.35-1.35-1.35-1.35-1.35,1.35,1.35,1.35Z"/></svg>